<svg width="614" height="717" viewBox="0 0 614 717" fill="none" xmlns="http://www.w3.org/2000/svg">
<rect x="-95" y="157" width="400" height="400" rx="30" stroke="black" stroke-width="2"/>
<rect x="214" y="483" width="126" height="126" rx="30" stroke="black" stroke-width="2"/>
<circle cx="543" cy="196" r="70" stroke="black" stroke-width="2"/>
<path fill-rule="evenodd" clip-rule="evenodd" d="M264 482C277.807 482 287.5 482 287.5 483.5L289 780.3C289 794.107 277.807 805.3 264 805.3C250.193 805.3 239 794.107 239 780.3L240 483.5C240 482 250.193 482 264 482Z" fill="url(#paint0_linear_148_11)" fill-opacity="0.9"/>
<rect x="214" y="483" width="126" height="126" rx="30" stroke="url(#paint1_linear_148_11)" stroke-width="2"/>
<path fill-rule="evenodd" clip-rule="evenodd" d="M402.902 157.692H543.062C556.869 157.692 568.062 168.885 568.062 182.692C568.062 196.499 556.869 207.692 543.062 207.692H400.04C400.461 207.693 400.3 207.704 397.421 207.894C395.269 208.036 392.305 208.214 389.246 208.283C386.411 208.347 382.49 208.349 378.734 207.892C376.962 207.677 373.969 207.221 370.734 206.039C368.777 205.324 359.763 201.986 355.243 191.816C353.268 187.372 352.765 183.246 352.585 180.928C352.387 178.376 352.458 176.057 352.541 174.46C352.612 173.091 352.728 171.701 352.8 170.834C352.812 170.697 352.822 170.573 352.831 170.464C352.877 169.902 352.895 169.622 352.902 169.53V0.288084C361.584 0.288064 370.266 0.287136 377.902 0.287142C385.537 0.287136 394.219 0.287144 402.902 0.287164V157.692Z" fill="url(#paint2_linear_148_11)" fill-opacity="0.9"/>
<path fill-rule="evenodd" clip-rule="evenodd" d="M292.52 346.422C281.399 346.45 270.244 346.478 259.028 346.478H-84.3213C-96.8464 346.478 -107 336.323 -107 323.795C-107 311.268 -96.8464 301.113 -84.3213 301.113H259.028C269.994 301.113 281.024 301.085 292.088 301.057C314.347 301 336.742 300.943 359.035 301.113C360.517 301.124 362.033 301.131 363.582 301.137C382.618 301.214 406.471 301.311 429.395 311.204C447.831 319.16 467.282 331.287 475.107 357.97C481.447 379.587 481.31 402.146 481.198 420.609C481.184 422.962 481.17 425.248 481.17 427.458C481.17 436.125 481.157 444.754 481.143 453.362C481.116 470.497 481.089 487.549 481.17 504.66C481.179 506.583 481.137 508.618 481.097 510.445L481.086 510.948C481.048 512.68 481.012 514.32 480.999 516.003C480.971 519.721 481.067 522.945 481.401 525.716C481.596 527.333 481.827 528.459 482.025 529.212C482.196 529.248 482.384 529.285 482.589 529.322C484.263 529.619 486.506 529.794 489.476 529.801C492.45 529.807 495.585 529.651 499.197 529.453L499.961 529.411C503.148 529.235 506.942 529.025 510.467 529.025C513.386 529.025 516.748 528.854 520.97 528.617L521.861 528.567C525.67 528.352 530.076 528.103 534.504 528.017C543.64 527.84 555.844 528.218 567.173 532.63C589.218 541.215 599.395 560.059 604.052 576.358C608.639 592.411 609 609.592 609 621.296C609 647.531 607.157 673.501 605.349 698.58L605.256 699.874C603.462 724.75 601.732 748.75 601.589 772.755C601.544 780.314 601.544 795.538 601.555 807.032C601.56 811.283 601.565 815.001 601.571 817.606C601.583 817.913 601.59 818.222 601.59 818.532C601.59 820.324 601.589 821.503 601.584 821.874C601.584 821.902 601.582 822.066 601.576 822.268C601.575 822.282 601.565 822.694 601.529 823.202C601.497 823.611 601.294 825.236 601.065 826.442C591.847 840.24 563.386 838.151 556.703 826.23C556.5 825.122 556.316 823.617 556.285 823.229C556.272 823.032 556.254 822.716 556.249 822.597C556.239 822.384 556.235 822.217 556.234 822.164C556.233 822.112 556.232 822.063 556.231 822.021C556.23 821.956 556.229 821.907 556.229 821.885C556.226 821.728 556.225 821.542 556.225 821.416C556.223 821.108 556.221 820.634 556.219 820.034C556.212 817.621 556.204 812.82 556.198 807.077C556.187 795.614 556.186 780.23 556.232 772.485C556.384 746.96 558.209 721.661 559.971 697.228L560.109 695.318C561.931 670.036 563.643 645.65 563.643 621.296C563.643 609.841 563.133 598.249 560.44 588.823C557.818 579.643 554.306 576.302 550.715 574.904C548.065 573.872 543.337 573.22 535.383 573.375C531.828 573.444 528.216 573.647 524.233 573.871L523.512 573.911C519.458 574.139 514.855 574.391 510.467 574.391C508.239 574.391 505.622 574.534 501.953 574.736L501.68 574.751C498.147 574.944 493.81 575.176 489.378 575.166C481.202 575.149 468.794 574.418 457.797 568.023C441.41 558.494 437.562 541.041 436.369 531.144C435.414 523.218 435.63 513.819 435.756 508.34C435.79 506.866 435.817 505.675 435.813 504.874C435.732 487.626 435.759 470.316 435.786 453.091C435.799 444.52 435.813 435.969 435.813 427.458C435.813 425.078 435.82 422.756 435.827 420.485C435.884 401.147 435.931 385.562 431.584 370.739C429.382 363.232 425.012 358.721 411.426 352.858C397.295 346.76 382.252 346.65 360.92 346.494C360.184 346.489 359.441 346.483 358.69 346.478C336.618 346.31 314.635 346.365 292.52 346.422ZM482.481 530.516C482.48 530.518 482.462 530.489 482.43 530.423C482.466 530.481 482.482 530.514 482.481 530.516Z" fill="url(#paint3_linear_148_11)"/>
<defs>
<linearGradient id="paint0_linear_148_11" x1="267.066" y1="507.067" x2="267.066" y2="749.733" gradientUnits="userSpaceOnUse">
<stop stop-color="#F9EF5B"/>
<stop offset="1" stop-color="#BFF067"/>
</linearGradient>
<linearGradient id="paint1_linear_148_11" x1="277" y1="482" x2="277" y2="610" gradientUnits="userSpaceOnUse">
<stop/>
<stop offset="1" stop-opacity="0"/>
</linearGradient>
<linearGradient id="paint2_linear_148_11" x1="460.26" y1="0.28714" x2="460.26" y2="206.735" gradientUnits="userSpaceOnUse">
<stop stop-color="#2B56F0"/>
<stop offset="1" stop-color="#900BCF"/>
</linearGradient>
<linearGradient id="paint3_linear_148_11" x1="-99.2174" y1="620.695" x2="574.541" y2="620.316" gradientUnits="userSpaceOnUse">
<stop stop-color="#BBEC69"/>
<stop offset="0.504937" stop-color="#9BCFAD" stop-opacity="0.495063"/>
<stop offset="1" stop-color="#455DD1"/>
</linearGradient>
</defs>
</svg>
