<svg width="36" height="42" viewBox="0 0 36 42" fill="none" xmlns="http://www.w3.org/2000/svg">
<path d="M34.1266 36.7991C33.2436 34.8779 31.7227 33.3261 29.8254 32.4108C27.9206 31.5578 25.7884 31.5454 23.7423 31.6505C21.5855 31.7556 19.4411 31.6505 17.2597 31.6938L11.6067 31.7309H10.2733C9.8596 31.6927 9.47199 31.5108 9.17709 31.2164C8.88218 30.922 8.6984 30.5335 8.65731 30.1177C8.63471 29.7847 8.71008 29.4524 8.87398 29.1623C9.03789 28.8721 9.28308 28.6369 9.57899 28.486C10.1764 28.2083 10.8488 28.1387 11.49 28.2882C12.992 28.8125 14.5769 29.0555 16.166 29.0051C18.1 28.9993 20.0164 28.6347 21.819 27.9297C23.5723 27.2859 25.1671 26.2698 26.4951 24.9505C27.7519 23.6674 28.7365 22.1407 29.3892 20.4633C30.0362 18.884 30.3802 17.1958 30.403 15.4878C30.4122 14.0006 30.2052 12.5201 29.7886 11.0932C29.6411 10.6812 29.4363 10.1064 29.1741 9.36878C29.0092 8.94762 28.8716 8.51612 28.7624 8.077C28.7624 7.95338 28.8607 7.83595 29.1004 7.71851C29.8869 7.30646 31.4333 7.222 33.7395 7.46511H33.8809V1H32.2402C31.4783 1 30.9315 1 30.5997 1.04945C28.3639 1.15201 26.2031 1.89152 24.369 3.18182C24.2754 3.25063 24.1624 3.28772 24.0464 3.28772C23.9305 3.28772 23.8175 3.25063 23.7239 3.18182C22.883 2.62883 21.9742 2.18835 21.0202 1.87149C19.7008 1.37559 18.3057 1.11416 16.8972 1.09889C14.2024 1.0589 11.5326 1.62261 9.08128 2.74916C6.83611 3.7823 4.92124 5.42381 3.55115 7.48983C2.20307 9.47853 1.48738 11.8322 1.49886 14.2392C1.4911 16.6445 2.02688 19.02 3.06572 21.1864C3.67543 22.5985 4.57843 23.8629 5.71406 24.8949C5.78745 24.9551 5.84444 25.033 5.87971 25.1214C5.91498 25.2098 5.92737 25.3057 5.9157 25.4002C5.90403 25.4947 5.8687 25.5847 5.81301 25.6617C5.75732 25.7388 5.6831 25.8003 5.59731 25.8406C2.69706 27.3322 1.1691 29.3739 1.01343 31.9657C0.960695 32.7385 1.06359 33.5139 1.31594 34.2457C1.56828 34.9774 1.96489 35.6504 2.482 36.2243C3.26257 37.0924 4.29782 37.6878 5.43755 37.924C6.45191 38.0978 7.4823 38.1579 8.50984 38.1033C10.599 38.0662 12.6943 38.0291 14.7835 38.0105L17.4748 37.9796H20.2583H23.0172C23.8532 37.8816 24.6993 37.9171 25.5242 38.0847C25.8742 38.1704 26.2097 38.3079 26.5196 38.4926C26.9393 38.7966 27.3103 39.1635 27.6195 39.5805C27.8316 40.0176 28.0163 40.4676 28.1725 40.9279L31.9515 39.9019L34.225 39.2838C34.4892 39.2096 34.8087 39.1973 34.8763 38.9067C34.9807 38.4617 34.4093 37.4728 34.225 37.0525C34.1964 36.9664 34.1636 36.8819 34.1266 36.7991ZM11.1766 9.47386C12.6388 8.19255 14.5361 7.52832 16.4732 7.61963C18.6648 7.61963 20.3034 8.44373 21.3889 10.0919C21.8562 10.8143 22.2164 11.6014 22.4581 12.4283C22.6945 13.2309 22.8145 14.0635 22.8144 14.9006C22.8145 15.7579 22.6946 16.611 22.4581 17.4347C21.5323 20.7847 19.5353 22.4597 16.4671 22.4597C14.0584 22.4597 12.2437 21.7839 11.023 20.4324C9.80225 19.0809 9.18779 17.2266 9.1796 14.8697C9.16731 12.521 9.83297 10.7224 11.1766 9.47386Z" fill="black" stroke="black" stroke-miterlimit="10"/>
</svg>
