<svg width="33" height="32" viewBox="0 0 33 32" fill="none" xmlns="http://www.w3.org/2000/svg">
<path d="M14.5979 1.8541C15.1966 0.0114784 17.8034 0.0114799 18.4021 1.8541L20.878 9.47417C21.1458 10.2982 21.9137 10.8561 22.7801 10.8561H30.7924C32.7298 10.8561 33.5353 13.3354 31.9679 14.4742L25.4859 19.1836C24.7849 19.6929 24.4916 20.5957 24.7594 21.4197L27.2353 29.0398C27.834 30.8824 25.725 32.4146 24.1576 31.2758L17.6756 26.5664C16.9746 26.0571 16.0254 26.0571 15.3244 26.5664L8.84241 31.2758C7.27499 32.4146 5.16603 30.8824 5.76473 29.0398L8.24064 21.4197C8.50839 20.5957 8.21507 19.6929 7.5141 19.1836L1.03208 14.4742C-0.535347 13.3354 0.270204 10.8561 2.20765 10.8561H10.2199C11.0863 10.8561 11.8542 10.2982 12.122 9.47417L14.5979 1.8541Z" fill="url(#paint0_linear_442_7)" fill-opacity="0.9"/>
<defs>
<linearGradient id="paint0_linear_442_7" x1="19.1368" y1="-0.665993" x2="19.1368" y2="31.6093" gradientUnits="userSpaceOnUse">
<stop stop-color="#F9EF5B"/>
<stop offset="1" stop-color="#BFF067"/>
</linearGradient>
</defs>
</svg>
