<svg width="200" height="68" viewBox="0 0 200 68" fill="none" xmlns="http://www.w3.org/2000/svg">
<path d="M94.43 62.24C94.43 61.68 94.5433 61.19 94.77 60.77C94.9967 60.3433 95.3067 60.0133 95.7 59.78C96.1 59.5467 96.5467 59.43 97.04 59.43C97.4667 59.43 97.8633 59.53 98.23 59.73C98.5967 59.9233 98.8767 60.18 99.07 60.5V57.6H99.99V65H99.07V63.97C98.89 64.2967 98.6233 64.5667 98.27 64.78C97.9167 64.9867 97.5033 65.09 97.03 65.09C96.5433 65.09 96.1 64.97 95.7 64.73C95.3067 64.49 94.9967 64.1533 94.77 63.72C94.5433 63.2867 94.43 62.7933 94.43 62.24ZM99.07 62.25C99.07 61.8367 98.9867 61.4767 98.82 61.17C98.6533 60.8633 98.4267 60.63 98.14 60.47C97.86 60.3033 97.55 60.22 97.21 60.22C96.87 60.22 96.56 60.3 96.28 60.46C96 60.62 95.7767 60.8533 95.61 61.16C95.4433 61.4667 95.36 61.8267 95.36 62.24C95.36 62.66 95.4433 63.0267 95.61 63.34C95.7767 63.6467 96 63.8833 96.28 64.05C96.56 64.21 96.87 64.29 97.21 64.29C97.55 64.29 97.86 64.21 98.14 64.05C98.4267 63.8833 98.6533 63.6467 98.82 63.34C98.9867 63.0267 99.07 62.6633 99.07 62.25ZM101.188 62.24C101.188 61.68 101.301 61.19 101.528 60.77C101.754 60.3433 102.064 60.0133 102.458 59.78C102.858 59.5467 103.301 59.43 103.788 59.43C104.268 59.43 104.684 59.5333 105.038 59.74C105.391 59.9467 105.654 60.2067 105.828 60.52V59.52H106.748V65H105.828V63.98C105.648 64.3 105.378 64.5667 105.018 64.78C104.664 64.9867 104.251 65.09 103.778 65.09C103.291 65.09 102.851 64.97 102.458 64.73C102.064 64.49 101.754 64.1533 101.528 63.72C101.301 63.2867 101.188 62.7933 101.188 62.24ZM105.828 62.25C105.828 61.8367 105.744 61.4767 105.578 61.17C105.411 60.8633 105.184 60.63 104.898 60.47C104.618 60.3033 104.308 60.22 103.968 60.22C103.628 60.22 103.318 60.3 103.038 60.46C102.758 60.62 102.534 60.8533 102.368 61.16C102.201 61.4667 102.118 61.8267 102.118 62.24C102.118 62.66 102.201 63.0267 102.368 63.34C102.534 63.6467 102.758 63.8833 103.038 64.05C103.318 64.21 103.628 64.29 103.968 64.29C104.308 64.29 104.618 64.21 104.898 64.05C105.184 63.8833 105.411 63.6467 105.578 63.34C105.744 63.0267 105.828 62.6633 105.828 62.25ZM109.396 60.27V63.5C109.396 63.7667 109.452 63.9567 109.566 64.07C109.679 64.1767 109.876 64.23 110.156 64.23H110.826V65H110.006C109.499 65 109.119 64.8833 108.866 64.65C108.612 64.4167 108.486 64.0333 108.486 63.5V60.27H107.776V59.52H108.486V58.14H109.396V59.52H110.826V60.27H109.396ZM111.588 62.24C111.588 61.68 111.702 61.19 111.928 60.77C112.155 60.3433 112.465 60.0133 112.858 59.78C113.258 59.5467 113.702 59.43 114.188 59.43C114.668 59.43 115.085 59.5333 115.438 59.74C115.792 59.9467 116.055 60.2067 116.228 60.52V59.52H117.148V65H116.228V63.98C116.048 64.3 115.778 64.5667 115.418 64.78C115.065 64.9867 114.652 65.09 114.178 65.09C113.692 65.09 113.252 64.97 112.858 64.73C112.465 64.49 112.155 64.1533 111.928 63.72C111.702 63.2867 111.588 62.7933 111.588 62.24ZM116.228 62.25C116.228 61.8367 116.145 61.4767 115.978 61.17C115.812 60.8633 115.585 60.63 115.298 60.47C115.018 60.3033 114.708 60.22 114.368 60.22C114.028 60.22 113.718 60.3 113.438 60.46C113.158 60.62 112.935 60.8533 112.768 61.16C112.602 61.4667 112.518 61.8267 112.518 62.24C112.518 62.66 112.602 63.0267 112.768 63.34C112.935 63.6467 113.158 63.8833 113.438 64.05C113.718 64.21 114.028 64.29 114.368 64.29C114.708 64.29 115.018 64.21 115.298 64.05C115.585 63.8833 115.812 63.6467 115.978 63.34C116.145 63.0267 116.228 62.6633 116.228 62.25ZM121.642 65.06C121.469 65.06 121.322 65 121.202 64.88C121.082 64.76 121.022 64.6133 121.022 64.44C121.022 64.2667 121.082 64.12 121.202 64C121.322 63.88 121.469 63.82 121.642 63.82C121.809 63.82 121.949 63.88 122.062 64C122.182 64.12 122.242 64.2667 122.242 64.44C122.242 64.6133 122.182 64.76 122.062 64.88C121.949 65 121.809 65.06 121.642 65.06ZM128.058 65.09C127.638 65.09 127.261 65.02 126.928 64.88C126.594 64.7333 126.331 64.5333 126.138 64.28C125.944 64.02 125.838 63.7233 125.818 63.39H126.758C126.784 63.6633 126.911 63.8867 127.138 64.06C127.371 64.2333 127.674 64.32 128.048 64.32C128.394 64.32 128.668 64.2433 128.868 64.09C129.068 63.9367 129.168 63.7433 129.168 63.51C129.168 63.27 129.061 63.0933 128.848 62.98C128.634 62.86 128.304 62.7433 127.858 62.63C127.451 62.5233 127.118 62.4167 126.858 62.31C126.604 62.1967 126.384 62.0333 126.198 61.82C126.018 61.6 125.928 61.3133 125.928 60.96C125.928 60.68 126.011 60.4233 126.178 60.19C126.344 59.9567 126.581 59.7733 126.888 59.64C127.194 59.5 127.544 59.43 127.938 59.43C128.544 59.43 129.034 59.5833 129.408 59.89C129.781 60.1967 129.981 60.6167 130.008 61.15H129.098C129.078 60.8633 128.961 60.6333 128.748 60.46C128.541 60.2867 128.261 60.2 127.908 60.2C127.581 60.2 127.321 60.27 127.128 60.41C126.934 60.55 126.838 60.7333 126.838 60.96C126.838 61.14 126.894 61.29 127.008 61.41C127.128 61.5233 127.274 61.6167 127.448 61.69C127.628 61.7567 127.874 61.8333 128.188 61.92C128.581 62.0267 128.901 62.1333 129.148 62.24C129.394 62.34 129.604 62.4933 129.778 62.7C129.958 62.9067 130.051 63.1767 130.058 63.51C130.058 63.81 129.974 64.08 129.808 64.32C129.641 64.56 129.404 64.75 129.098 64.89C128.798 65.0233 128.451 65.09 128.058 65.09ZM136.342 62.05C136.342 62.2233 136.332 62.4067 136.312 62.6H131.932C131.966 63.14 132.149 63.5633 132.482 63.87C132.822 64.17 133.232 64.32 133.712 64.32C134.106 64.32 134.432 64.23 134.692 64.05C134.959 63.8633 135.146 63.6167 135.252 63.31H136.232C136.086 63.8367 135.792 64.2667 135.352 64.6C134.912 64.9267 134.366 65.09 133.712 65.09C133.192 65.09 132.726 64.9733 132.312 64.74C131.906 64.5067 131.586 64.1767 131.352 63.75C131.119 63.3167 131.002 62.8167 131.002 62.25C131.002 61.6833 131.116 61.1867 131.342 60.76C131.569 60.3333 131.886 60.0067 132.292 59.78C132.706 59.5467 133.179 59.43 133.712 59.43C134.232 59.43 134.692 59.5433 135.092 59.77C135.492 59.9967 135.799 60.31 136.012 60.71C136.232 61.1033 136.342 61.55 136.342 62.05ZM135.402 61.86C135.402 61.5133 135.326 61.2167 135.172 60.97C135.019 60.7167 134.809 60.5267 134.542 60.4C134.282 60.2667 133.992 60.2 133.672 60.2C133.212 60.2 132.819 60.3467 132.492 60.64C132.172 60.9333 131.989 61.34 131.942 61.86H135.402ZM138.453 57.6V65H137.543V57.6H138.453ZM140.914 57.6V65H140.004V57.6H140.914ZM142.935 58.63C142.762 58.63 142.615 58.57 142.495 58.45C142.375 58.33 142.315 58.1833 142.315 58.01C142.315 57.8367 142.375 57.69 142.495 57.57C142.615 57.45 142.762 57.39 142.935 57.39C143.102 57.39 143.242 57.45 143.355 57.57C143.475 57.69 143.535 57.8367 143.535 58.01C143.535 58.1833 143.475 58.33 143.355 58.45C143.242 58.57 143.102 58.63 142.935 58.63ZM143.375 59.52V65H142.465V59.52H143.375ZM147.596 59.42C148.263 59.42 148.803 59.6233 149.216 60.03C149.63 60.43 149.836 61.01 149.836 61.77V65H148.936V61.9C148.936 61.3533 148.8 60.9367 148.526 60.65C148.253 60.3567 147.88 60.21 147.406 60.21C146.926 60.21 146.543 60.36 146.256 60.66C145.976 60.96 145.836 61.3967 145.836 61.97V65H144.926V59.52H145.836V60.3C146.016 60.02 146.26 59.8033 146.566 59.65C146.88 59.4967 147.223 59.42 147.596 59.42ZM153.583 59.43C154.056 59.43 154.469 59.5333 154.823 59.74C155.183 59.9467 155.449 60.2067 155.623 60.52V59.52H156.543V65.12C156.543 65.62 156.436 66.0633 156.223 66.45C156.009 66.8433 155.703 67.15 155.303 67.37C154.909 67.59 154.449 67.7 153.923 67.7C153.203 67.7 152.603 67.53 152.123 67.19C151.643 66.85 151.359 66.3867 151.273 65.8H152.173C152.273 66.1333 152.479 66.4 152.793 66.6C153.106 66.8067 153.483 66.91 153.923 66.91C154.423 66.91 154.829 66.7533 155.143 66.44C155.463 66.1267 155.623 65.6867 155.623 65.12V63.97C155.443 64.29 155.176 64.5567 154.823 64.77C154.469 64.9833 154.056 65.09 153.583 65.09C153.096 65.09 152.653 64.97 152.253 64.73C151.859 64.49 151.549 64.1533 151.323 63.72C151.096 63.2867 150.983 62.7933 150.983 62.24C150.983 61.68 151.096 61.19 151.323 60.77C151.549 60.3433 151.859 60.0133 152.253 59.78C152.653 59.5467 153.096 59.43 153.583 59.43ZM155.623 62.25C155.623 61.8367 155.539 61.4767 155.373 61.17C155.206 60.8633 154.979 60.63 154.693 60.47C154.413 60.3033 154.103 60.22 153.763 60.22C153.423 60.22 153.113 60.3 152.833 60.46C152.553 60.62 152.329 60.8533 152.163 61.16C151.996 61.4667 151.913 61.8267 151.913 62.24C151.913 62.66 151.996 63.0267 152.163 63.34C152.329 63.6467 152.553 63.8833 152.833 64.05C153.113 64.21 153.423 64.29 153.763 64.29C154.103 64.29 154.413 64.21 154.693 64.05C154.979 63.8833 155.206 63.6467 155.373 63.34C155.539 63.0267 155.623 62.6633 155.623 62.25ZM161.037 65.06C160.863 65.06 160.717 65 160.597 64.88C160.477 64.76 160.417 64.6133 160.417 64.44C160.417 64.2667 160.477 64.12 160.597 64C160.717 63.88 160.863 63.82 161.037 63.82C161.203 63.82 161.343 63.88 161.457 64C161.577 64.12 161.637 64.2667 161.637 64.44C161.637 64.6133 161.577 64.76 161.457 64.88C161.343 65 161.203 65.06 161.037 65.06ZM167.772 59.43C168.246 59.43 168.659 59.5333 169.012 59.74C169.372 59.9467 169.639 60.2067 169.812 60.52V59.52H170.732V65.12C170.732 65.62 170.626 66.0633 170.412 66.45C170.199 66.8433 169.892 67.15 169.492 67.37C169.099 67.59 168.639 67.7 168.112 67.7C167.392 67.7 166.792 67.53 166.312 67.19C165.832 66.85 165.549 66.3867 165.462 65.8H166.362C166.462 66.1333 166.669 66.4 166.982 66.6C167.296 66.8067 167.672 66.91 168.112 66.91C168.612 66.91 169.019 66.7533 169.332 66.44C169.652 66.1267 169.812 65.6867 169.812 65.12V63.97C169.632 64.29 169.366 64.5567 169.012 64.77C168.659 64.9833 168.246 65.09 167.772 65.09C167.286 65.09 166.842 64.97 166.442 64.73C166.049 64.49 165.739 64.1533 165.512 63.72C165.286 63.2867 165.172 62.7933 165.172 62.24C165.172 61.68 165.286 61.19 165.512 60.77C165.739 60.3433 166.049 60.0133 166.442 59.78C166.842 59.5467 167.286 59.43 167.772 59.43ZM169.812 62.25C169.812 61.8367 169.729 61.4767 169.562 61.17C169.396 60.8633 169.169 60.63 168.882 60.47C168.602 60.3033 168.292 60.22 167.952 60.22C167.612 60.22 167.302 60.3 167.022 60.46C166.742 60.62 166.519 60.8533 166.352 61.16C166.186 61.4667 166.102 61.8267 166.102 62.24C166.102 62.66 166.186 63.0267 166.352 63.34C166.519 63.6467 166.742 63.8833 167.022 64.05C167.302 64.21 167.612 64.29 167.952 64.29C168.292 64.29 168.602 64.21 168.882 64.05C169.169 63.8833 169.396 63.6467 169.562 63.34C169.729 63.0267 169.812 62.6633 169.812 62.25ZM173.18 60.41C173.34 60.0967 173.567 59.8533 173.86 59.68C174.16 59.5067 174.523 59.42 174.95 59.42V60.36H174.71C173.69 60.36 173.18 60.9133 173.18 62.02V65H172.27V59.52H173.18V60.41ZM178.39 65.09C177.877 65.09 177.41 64.9733 176.99 64.74C176.577 64.5067 176.25 64.1767 176.01 63.75C175.777 63.3167 175.66 62.8167 175.66 62.25C175.66 61.69 175.78 61.1967 176.02 60.77C176.267 60.3367 176.6 60.0067 177.02 59.78C177.44 59.5467 177.91 59.43 178.43 59.43C178.95 59.43 179.42 59.5467 179.84 59.78C180.26 60.0067 180.59 60.3333 180.83 60.76C181.077 61.1867 181.2 61.6833 181.2 62.25C181.2 62.8167 181.074 63.3167 180.82 63.75C180.574 64.1767 180.237 64.5067 179.81 64.74C179.384 64.9733 178.91 65.09 178.39 65.09ZM178.39 64.29C178.717 64.29 179.024 64.2133 179.31 64.06C179.597 63.9067 179.827 63.6767 180 63.37C180.18 63.0633 180.27 62.69 180.27 62.25C180.27 61.81 180.184 61.4367 180.01 61.13C179.837 60.8233 179.61 60.5967 179.33 60.45C179.05 60.2967 178.747 60.22 178.42 60.22C178.087 60.22 177.78 60.2967 177.5 60.45C177.227 60.5967 177.007 60.8233 176.84 61.13C176.674 61.4367 176.59 61.81 176.59 62.25C176.59 62.6967 176.67 63.0733 176.83 63.38C176.997 63.6867 177.217 63.9167 177.49 64.07C177.764 64.2167 178.064 64.29 178.39 64.29ZM189.697 59.52L187.987 65H187.047L185.727 60.65L184.407 65H183.467L181.747 59.52H182.677L183.937 64.12L185.297 59.52H186.227L187.557 64.13L188.797 59.52H189.697ZM191.71 60.27V63.5C191.71 63.7667 191.767 63.9567 191.88 64.07C191.993 64.1767 192.19 64.23 192.47 64.23H193.14V65H192.32C191.813 65 191.433 64.8833 191.18 64.65C190.927 64.4167 190.8 64.0333 190.8 63.5V60.27H190.09V59.52H190.8V58.14H191.71V59.52H193.14V60.27H191.71ZM196.963 59.42C197.376 59.42 197.749 59.51 198.083 59.69C198.416 59.8633 198.676 60.1267 198.863 60.48C199.056 60.8333 199.153 61.2633 199.153 61.77V65H198.253V61.9C198.253 61.3533 198.116 60.9367 197.843 60.65C197.569 60.3567 197.196 60.21 196.723 60.21C196.243 60.21 195.859 60.36 195.573 60.66C195.293 60.96 195.153 61.3967 195.153 61.97V65H194.243V57.6H195.153V60.3C195.333 60.02 195.579 59.8033 195.893 59.65C196.213 59.4967 196.569 59.42 196.963 59.42Z" fill="black"/>
<path d="M61.9049 41.0235C66.3066 41.0235 68.6324 39.3622 70.0946 36.4511L76.2084 40.3834C73.7613 44.3766 69.4885 47.6992 61.6625 47.6992C51.397 47.6992 44.6695 40.3834 44.6695 30.7281C44.6334 28.5211 45.0329 26.3289 45.8448 24.2783C46.6567 22.2277 47.865 20.3594 49.3996 18.7818C50.9342 17.2041 52.7647 15.9483 54.7851 15.0871C56.8056 14.2258 58.9757 13.7763 61.17 13.7645C71.3219 13.7645 77.4887 21.7586 77.4887 30.0574C77.5058 31.1046 77.445 32.1515 77.3069 33.1895H52.3288C52.7199 35.4362 53.9038 37.4656 55.6629 38.9047C57.4221 40.3439 59.6385 41.0962 61.9049 41.0235ZM70.0339 27.7408C69.1779 22.8864 65.8823 19.9372 61.3594 19.9372C56.8366 19.9372 53.291 22.7645 52.3288 27.7408H70.0339Z" fill="black" stroke="black" stroke-width="2" stroke-miterlimit="10"/>
<path d="M82.8751 29.7679C82.8751 20.0592 89.9662 12.8044 100.05 12.8044C110.134 12.8044 117.225 20.0592 117.225 29.7679C117.225 39.4766 110.073 46.6781 100.05 46.6781C90.0269 46.6781 82.8751 39.4232 82.8751 29.7679ZM109.391 29.7069C109.391 23.9305 105.664 19.8001 100.103 19.8001C94.5422 19.8001 90.6329 23.9229 90.6329 29.7603C90.6329 35.5977 94.4815 39.7204 100.103 39.7204C105.611 39.7281 109.399 35.5519 109.399 29.7069H109.391Z" fill="black" stroke="black" stroke-width="2" stroke-miterlimit="10"/>
<path d="M155.612 1V45.9617H148.4V41.8466C147.117 43.4153 145.494 44.6682 143.656 45.5095C141.818 46.3508 139.812 46.7583 137.794 46.7009C128.566 46.7009 121.884 39.4461 121.884 29.7907C121.884 20.1354 128.422 12.8272 137.65 12.8272C139.554 12.7844 141.446 13.145 143.203 13.8854C144.96 14.6259 146.542 15.7297 147.847 17.1253V1H155.612ZM148.158 29.7679C148.158 23.8085 144.37 19.7467 138.801 19.7467C133.498 19.7467 129.574 23.9914 129.574 29.7679C129.574 35.5443 133.49 39.789 138.801 39.789C144.37 39.789 148.158 35.6739 148.158 29.7679Z" fill="black" stroke="black" stroke-width="2" stroke-miterlimit="10"/>
<path d="M194 13.0787V45.474H186.788V41.115C185.556 42.7579 183.949 44.0788 182.103 44.9661C180.257 45.8534 178.226 46.2811 176.181 46.2132C166.954 46.2132 160.226 38.9584 160.226 29.3106C160.226 19.6629 166.954 12.8348 176.181 12.8348C180.825 12.8348 184.431 14.5571 186.788 17.6892V13.0787H194ZM186.545 29.3183C186.545 23.3513 182.757 19.2971 177.189 19.2971C171.886 19.2971 167.961 23.5342 167.961 29.3183C167.961 35.1023 171.87 39.3394 177.189 39.3394C182.75 39.3318 186.545 35.209 186.545 29.3183Z" fill="black" stroke="black" stroke-width="2" stroke-miterlimit="10"/>
<path d="M41.8436 55.1674C40.7549 52.7986 38.8797 50.8853 36.5404 49.7567C34.1919 48.7051 31.563 48.6898 29.0402 48.8194C26.381 48.9489 23.737 48.8194 21.0475 48.8727L14.0776 48.9184H12.4336C11.9235 48.8714 11.4456 48.6471 11.082 48.2842C10.7184 47.9212 10.4918 47.4422 10.4411 46.9295C10.4133 46.5189 10.5062 46.1092 10.7083 45.7515C10.9103 45.3937 11.2127 45.1037 11.5775 44.9176C12.3141 44.5753 13.1432 44.4895 13.9337 44.6738C15.7856 45.3202 17.7397 45.6198 19.699 45.5578C22.0836 45.5505 24.4464 45.101 26.6689 44.2318C28.8306 43.438 30.797 42.1852 32.4342 40.5586C33.9838 38.9765 35.1978 37.0943 36.0026 35.026C36.8003 33.0788 37.2244 30.9973 37.2526 28.8914C37.2639 27.0579 37.0086 25.2325 36.495 23.4732C36.3132 22.9651 36.0606 22.2564 35.7374 21.347C35.534 20.8277 35.3645 20.2957 35.2298 19.7543C35.2298 19.6019 35.351 19.4571 35.6465 19.3123C36.6162 18.8043 38.5228 18.7001 41.3663 18.9999H41.5406V11.0287H39.5178C38.5784 11.0287 37.9041 11.0287 37.495 11.0897C34.7384 11.2161 32.0742 12.1279 29.8129 13.7188C29.6975 13.8036 29.5582 13.8493 29.4152 13.8493C29.2722 13.8493 29.1329 13.8036 29.0175 13.7188C27.9808 13.037 26.8602 12.4939 25.684 12.1032C24.0572 11.4918 22.3371 11.1694 20.6005 11.1506C17.278 11.1013 13.9862 11.7963 10.9639 13.1853C8.19566 14.4591 5.83471 16.483 4.14545 19.0303C2.48333 21.4823 1.60092 24.3844 1.61507 27.3521C1.60551 30.3176 2.2661 33.2466 3.54694 35.9177C4.29868 37.6586 5.41204 39.2176 6.81222 40.49C6.90271 40.5642 6.97298 40.6603 7.01646 40.7693C7.05995 40.8782 7.07522 40.9965 7.06083 41.1131C7.04645 41.2296 7.00289 41.3405 6.93423 41.4355C6.86556 41.5305 6.77406 41.6063 6.66828 41.656C3.0924 43.4951 1.20849 46.0125 1.01656 49.208C0.951539 50.1608 1.07841 51.1169 1.38954 52.0191C1.70067 52.9213 2.18967 53.7511 2.82724 54.4586C3.78964 55.529 5.06606 56.2631 6.47129 56.5543C7.72195 56.7686 8.99239 56.8427 10.2593 56.7753C12.8351 56.7296 15.4185 56.6839 17.9944 56.661L21.3127 56.6229H24.7446H28.1462C29.1769 56.502 30.2201 56.5457 31.2372 56.7525C31.6688 56.8582 32.0824 57.0277 32.4645 57.2554C32.982 57.6302 33.4394 58.0825 33.8207 58.5967C34.0822 59.1356 34.3099 59.6904 34.5025 60.2579L39.1617 58.9929L41.9649 58.2309C42.2906 58.1394 42.6846 58.1242 42.7679 57.766C42.8967 57.2173 42.1921 55.998 41.9649 55.4798C41.9297 55.3737 41.8892 55.2694 41.8436 55.1674ZM13.5473 21.4766C15.3501 19.8968 17.6894 19.0778 20.0778 19.1904C22.7799 19.1904 24.8002 20.2065 26.1386 22.2386C26.7148 23.1293 27.1589 24.0997 27.4568 25.1192C27.7483 26.1088 27.8963 27.1354 27.8962 28.1675C27.8963 29.2246 27.7484 30.2764 27.4568 31.2919C26.3154 35.4223 23.8532 37.4875 20.0702 37.4875C17.1004 37.4875 14.863 36.6543 13.3579 34.9879C11.8528 33.3216 11.0952 31.0354 11.0851 28.1294C11.0699 25.2335 11.8907 23.0159 13.5473 21.4766Z" fill="black" stroke="black" stroke-miterlimit="10"/>
</svg>
