<svg width="63" height="74" viewBox="0 0 63 74" fill="none" xmlns="http://www.w3.org/2000/svg">
<path d="M60.6279 65.5548C59.0385 62.0903 56.3008 59.2921 52.8857 57.6415C49.457 56.1034 45.6191 56.0811 41.9361 56.2706C38.0539 56.4601 34.1939 56.2706 30.2675 56.3486L20.0921 56.4155H17.692C16.9473 56.3467 16.2496 56.0186 15.7187 55.4878C15.1879 54.9569 14.8571 54.2564 14.7831 53.5065C14.7425 52.9061 14.8781 52.3069 15.1732 51.7836C15.4682 51.2604 15.9095 50.8362 16.4422 50.5641C17.5176 50.0634 18.7279 49.9379 19.8819 50.2074C22.5856 51.1529 25.4383 51.5911 28.2988 51.5003C31.78 51.4897 35.2295 50.8323 38.4742 49.561C41.6301 48.4001 44.5008 46.5678 46.891 44.1889C49.1533 41.8749 50.9256 39.1221 52.1004 36.0972C53.2651 33.2493 53.8843 30.205 53.9254 27.1251C53.9418 24.4434 53.5692 21.7737 52.8193 19.2006C52.5539 18.4576 52.1852 17.421 51.7133 16.091C51.4164 15.3316 51.1689 14.5535 50.9723 13.7616C50.9723 13.5387 51.1493 13.3269 51.5806 13.1152C52.9963 12.3721 55.7798 12.2198 59.9311 12.6582H60.1855V1H57.2324C55.8609 1 54.8766 1 54.2793 1.08917C50.2549 1.27412 46.3655 2.60764 43.0642 4.93436C42.8956 5.05845 42.6923 5.12533 42.4835 5.12533C42.2748 5.12533 42.0715 5.05845 41.9029 4.93436C40.3894 3.93719 38.7534 3.1429 37.0364 2.57152C34.6613 1.67728 32.1502 1.20586 29.6149 1.17833C24.7644 1.10621 19.9587 2.12273 15.5463 4.15418C11.505 6.01719 8.05822 8.97724 5.59207 12.7028C3.16553 16.2889 1.87728 20.5333 1.89795 24.8737C1.88399 29.2109 2.84838 33.4947 4.7183 37.4012C5.81577 39.9475 7.44117 42.2276 9.4853 44.0885C9.6174 44.197 9.71999 44.3376 9.78347 44.4969C9.84696 44.6563 9.86925 44.8293 9.84825 44.9997C9.82724 45.1702 9.76365 45.3324 9.66341 45.4713C9.56317 45.6102 9.42958 45.7212 9.27515 45.7938C4.05471 48.4836 1.30437 52.1653 1.02418 56.839C0.929251 58.2324 1.11447 59.6308 1.56869 60.9503C2.02291 62.2699 2.7368 63.4834 3.6676 64.5182C5.07262 66.0837 6.93607 67.1573 8.98757 67.5833C10.8134 67.8967 12.6681 68.0051 14.5177 67.9065C18.2782 67.8396 22.0497 67.7728 25.8102 67.7393L30.6546 67.6836H35.6649H40.6309C42.1356 67.5068 43.6586 67.5707 45.1435 67.8731C45.7736 68.0276 46.3774 68.2756 46.9353 68.6087C47.6908 69.1568 48.3584 69.8184 48.9151 70.5703C49.2969 71.3585 49.6293 72.1699 49.9105 73L56.7125 71.1498L60.8049 70.0353C61.2804 69.9015 61.8556 69.8792 61.9772 69.3554C62.1653 68.5529 61.1367 66.7696 60.8049 66.0117C60.7535 65.8565 60.6944 65.704 60.6279 65.5548ZM19.3178 16.2805C21.9498 13.97 25.365 12.7722 28.8518 12.9368C32.7966 12.9368 35.746 14.4229 37.7 17.3951C38.5412 18.6977 39.1895 20.117 39.6245 21.6081C40.05 23.0553 40.266 24.5568 40.266 26.0663C40.2661 27.6123 40.0502 29.1506 39.6245 30.6359C37.9581 36.6768 34.3635 39.6972 28.8407 39.6972C24.5051 39.6972 21.2386 38.4786 19.0413 36.0415C16.844 33.6043 15.738 30.2607 15.7233 26.0105C15.7011 21.7752 16.8993 18.5319 19.3178 16.2805Z" fill="black" stroke="black" stroke-miterlimit="10"/>
</svg>
