<svg width="591" height="292" viewBox="0 0 591 292" fill="none" xmlns="http://www.w3.org/2000/svg">
<rect x="589.091" y="1" width="290" height="83" rx="41.5" transform="rotate(90 589.091 1)" stroke="url(#paint0_linear_68_4)" stroke-width="2"/>
<rect x="224.091" y="24" width="162" height="55" stroke="black" stroke-width="2"/>
<rect x="224.091" y="130" width="162" height="55" stroke="black" stroke-width="2"/>
<rect x="224.091" y="236" width="162" height="55" stroke="black" stroke-width="2"/>
<rect x="224.091" y="8" width="162" height="8" stroke="black" stroke-width="2"/>
<rect x="224.091" y="114" width="162" height="8" stroke="black" stroke-width="2"/>
<rect x="224.091" y="220" width="162" height="8" stroke="black" stroke-width="2"/>
<rect x="115.091" y="1" width="82" height="78" rx="8" stroke="black" stroke-width="2"/>
<rect x="115.091" y="107" width="82" height="78" rx="8" stroke="black" stroke-width="2"/>
<rect x="115.091" y="213" width="82" height="78" rx="8" stroke="black" stroke-width="2"/>
<circle cx="31.5" cy="243.5" r="30.5" stroke="black" stroke-width="2"/>
<path fill-rule="evenodd" clip-rule="evenodd" d="M375.786 77.129C344.109 94.112 313.091 112.039 281.76 130.148C269.028 137.506 256.245 144.895 243.344 152.262C231.238 159.176 219.068 166.228 206.824 173.323C162.203 199.18 116.586 225.614 69.3946 248.036C56.8577 253.993 33.0499 266.969 18 271C17.5 271 7.5 265 3.00016 254.5C0.142237 243.83 1.00002 237.5 2.50016 236C13.5 230.5 40.1059 217.667 52.2282 211.907C97.7955 190.256 141.547 164.908 185.957 139.178C198.404 131.967 210.903 124.725 223.508 117.527C236.011 110.387 248.56 103.134 261.162 95.8505C293.845 76.9609 326.885 57.8651 360.403 39.9959C377.776 30.7339 391.127 23.8381 408.961 15.8242C409.182 15.7246 409.578 15.5401 410.099 15.2969C411.87 14.4705 415.093 12.9669 417.873 11.8193C421.252 10.4248 427.34 8.06112 433.508 7.60426L433.566 7.59989C434.939 7.49585 443.875 6.81867 450.621 14.45C458.459 23.3171 455.078 33.3366 454.448 35.0662C453.415 37.9017 451.97 39.9533 451.409 40.7329C450.666 41.7639 449.926 42.6389 449.39 43.2495C448.377 44.4044 447.261 45.5447 446.6 46.2205L446.524 46.2979C445.769 47.0692 445.558 47.2946 445.555 47.2926C445.555 47.2926 445.567 47.2774 445.588 47.2533C430.804 64.5621 418.769 83.8399 405.941 104.388C402.259 110.287 398.511 116.291 394.614 122.382C381.34 143.132 367.887 163.817 354.07 184.333C358.948 182.734 363.775 181.195 368.506 179.688C372.743 178.337 376.903 177.011 380.951 175.689C420.676 162.717 459.539 147.72 498.991 132.496C508.904 128.67 518.854 124.83 528.865 121.005C535.387 118.512 541.487 115.929 547.901 113.213C551.843 111.544 555.903 109.824 560.252 108.045C560.244 108.048 560.415 107.983 561.036 107.608C561.062 107.593 562 107 562 107H562.5C563.023 106.672 563.067 106.969 568.5 105C573.5 103.5 574 104 589.5 99.5C589.5 99.5 589.5 107.454 589.5 118.5C588.5 129 589.5 137.5 588.5 138C587.5 138.5 583.621 140.667 583.564 140.703L583.375 140.821C582.943 141.092 582.329 141.478 581.704 141.855C580.174 142.779 578.044 143.984 575.397 145.067C572.012 146.452 568.357 147.997 564.568 149.599C557.607 152.541 550.189 155.677 543.144 158.369C533.413 162.088 523.649 165.856 513.852 169.638C474.303 184.902 434.195 200.382 393.367 213.713C388.728 215.228 384.17 216.683 379.685 218.115C362.409 223.631 346.223 228.799 330.658 235.693C330.567 235.756 329.979 236.094 328.559 236.95L328.408 237.04C326.692 238.074 324.353 239.483 321.96 240.84C319.605 242.175 316.615 243.794 313.738 245.025C312.36 245.615 310.297 246.428 307.949 246.967C306.765 247.238 304.957 247.572 302.791 247.595C300.781 247.615 297.056 247.391 293.01 245.368C286.174 241.95 283.278 235.917 282.328 231.732C281.497 228.072 281.884 225.069 282.093 223.78C282.536 221.045 283.445 218.872 283.808 218.024C284.708 215.922 285.894 213.81 286.832 212.212C288.853 208.773 291.584 204.605 294.146 200.811C299.196 193.33 305.01 185.236 304.692 185.694C323.999 157.876 342.552 129.537 360.919 100.827C364.255 95.6118 367.634 90.1927 371.087 84.6536C372.638 82.1671 374.203 79.6563 375.786 77.129ZM297.827 208.322C297.827 208.322 297.85 208.312 297.895 208.295L297.827 208.322Z" fill="url(#paint1_linear_68_4)" fill-opacity="0.9"/>
<g filter="url(#filter0_i_68_4)">
<path fill-rule="evenodd" clip-rule="evenodd" d="M375.786 77.129C344.109 94.112 313.091 112.039 281.76 130.148C269.028 137.506 256.245 144.895 243.344 152.262C231.238 159.176 219.068 166.228 206.824 173.323C162.203 199.18 116.586 225.614 69.3946 248.036C56.8577 253.993 33.0499 266.969 18 271C17.5 271 7.5 265 3.00016 254.5C0.142237 243.83 1.00002 237.5 2.50016 236C13.5 230.5 40.1059 217.667 52.2282 211.907C97.7955 190.256 141.547 164.908 185.957 139.178C198.404 131.967 210.903 124.725 223.508 117.527C236.011 110.387 248.56 103.134 261.162 95.8505C293.845 76.9609 326.885 57.8651 360.403 39.9959C377.776 30.7339 391.127 23.8381 408.961 15.8242C409.182 15.7246 409.578 15.5401 410.099 15.2969C411.87 14.4705 415.093 12.9669 417.873 11.8193C421.252 10.4248 427.34 8.06112 433.508 7.60426L433.566 7.59989C434.939 7.49585 443.875 6.81867 450.621 14.45C458.459 23.3171 455.078 33.3366 454.448 35.0662C453.415 37.9017 451.97 39.9533 451.409 40.7329C450.666 41.7639 449.926 42.6389 449.39 43.2495C448.377 44.4044 447.261 45.5447 446.6 46.2205L446.524 46.2979C445.769 47.0692 445.558 47.2946 445.555 47.2926C445.555 47.2926 445.567 47.2774 445.588 47.2533C430.804 64.5621 418.769 83.8399 405.941 104.388C402.259 110.287 398.511 116.291 394.614 122.382C381.34 143.132 367.887 163.817 354.07 184.333C358.948 182.734 363.775 181.195 368.506 179.688C372.743 178.337 376.903 177.011 380.951 175.689C420.676 162.717 459.539 147.72 498.991 132.496C508.904 128.67 518.854 124.83 528.865 121.005C535.387 118.512 541.487 115.929 547.901 113.213C551.843 111.544 555.903 109.824 560.252 108.045C560.244 108.048 560.415 107.983 561.036 107.608C561.337 107.427 561.622 107.248 562.067 106.969L562.5 108C563.023 107.672 564.182 108.084 565 107.608C569.095 105.567 581.704 102 589.5 99.5C589.5 99.5 589.5 107.454 589.5 118.5C588.5 129 589.5 137.5 588.5 138C587.5 138.5 583.621 140.667 583.564 140.703L583.375 140.821C582.943 141.092 582.329 141.478 581.704 141.855C580.174 142.779 578.044 143.984 575.397 145.067C572.012 146.452 568.357 147.997 564.568 149.599C557.607 152.541 550.189 155.677 543.144 158.369C533.413 162.088 523.649 165.856 513.852 169.638C474.303 184.902 434.195 200.382 393.367 213.713C388.728 215.228 384.17 216.683 379.685 218.115C362.409 223.631 346.223 228.799 330.658 235.693C330.567 235.756 329.979 236.094 328.559 236.95L328.408 237.04C326.692 238.074 324.353 239.483 321.96 240.84C319.605 242.175 316.615 243.794 313.738 245.025C312.36 245.615 310.297 246.428 307.949 246.967C306.765 247.238 304.957 247.572 302.791 247.595C300.781 247.615 297.056 247.391 293.01 245.368C286.174 241.95 283.278 235.917 282.328 231.732C281.497 228.072 281.884 225.069 282.093 223.78C282.536 221.045 283.445 218.872 283.808 218.024C284.708 215.922 285.894 213.81 286.832 212.212C288.853 208.773 291.584 204.605 294.146 200.811C299.196 193.33 305.01 185.236 304.692 185.694C323.999 157.876 342.552 129.537 360.919 100.827C364.255 95.6118 367.634 90.1927 371.087 84.6536C372.638 82.1671 374.203 79.6563 375.786 77.129ZM297.827 208.322C297.827 208.322 297.85 208.312 297.895 208.295L297.827 208.322Z" fill="url(#paint2_linear_68_4)" fill-opacity="0.15"/>
</g>
<circle cx="31.5" cy="243.5" r="30.5" stroke="url(#paint3_linear_68_4)" stroke-width="2"/>
<rect x="589.091" y="1" width="290" height="83" rx="41.5" transform="rotate(90 589.091 1)" stroke="black" stroke-width="2"/>
<defs>
<filter id="filter0_i_68_4" x="1.11316" y="7.53943" width="588.387" height="267.461" filterUnits="userSpaceOnUse" color-interpolation-filters="sRGB">
<feFlood flood-opacity="0" result="BackgroundImageFix"/>
<feBlend mode="normal" in="SourceGraphic" in2="BackgroundImageFix" result="shape"/>
<feColorMatrix in="SourceAlpha" type="matrix" values="0 0 0 0 0 0 0 0 0 0 0 0 0 0 0 0 0 0 127 0" result="hardAlpha"/>
<feOffset dy="4"/>
<feGaussianBlur stdDeviation="2"/>
<feComposite in2="hardAlpha" operator="arithmetic" k2="-1" k3="1"/>
<feColorMatrix type="matrix" values="0 0 0 0 0 0 0 0 0 0 0 0 0 0 0 0 0 0 0.25 0"/>
<feBlend mode="normal" in2="shape" result="effect1_innerShadow_68_4"/>
</filter>
<linearGradient id="paint0_linear_68_4" x1="736.091" y1="0" x2="736.091" y2="85" gradientUnits="userSpaceOnUse">
<stop/>
<stop offset="1" stop-opacity="0"/>
</linearGradient>
<linearGradient id="paint1_linear_68_4" x1="295.307" y1="7.53943" x2="295.307" y2="269" gradientUnits="userSpaceOnUse">
<stop stop-color="#2B56F0"/>
<stop offset="1" stop-color="#900BCF"/>
</linearGradient>
<linearGradient id="paint2_linear_68_4" x1="295.307" y1="7.53943" x2="295.307" y2="269" gradientUnits="userSpaceOnUse">
<stop/>
<stop offset="0.338542" stop-color="white" stop-opacity="0"/>
<stop offset="0.677083" stop-color="white" stop-opacity="0"/>
<stop offset="1"/>
</linearGradient>
<linearGradient id="paint3_linear_68_4" x1="2.5" y1="252.5" x2="57.5" y2="228" gradientUnits="userSpaceOnUse">
<stop/>
<stop offset="1" stop-opacity="0"/>
</linearGradient>
</defs>
</svg>
