<svg width="1123" height="522" viewBox="0 0 1123 522" fill="none" xmlns="http://www.w3.org/2000/svg">
<rect x="1" y="1" width="409" height="520" rx="31" stroke="black" stroke-width="2"/>
<rect x="449" y="262" width="673" height="259" rx="31" stroke="black" stroke-width="2"/>
<rect x="267" y="38" width="113" height="36" rx="18" stroke="black" stroke-width="2"/>
<rect x="985" y="288" width="113" height="36" rx="18" stroke="black" stroke-width="2"/>
<rect x="32" y="411" width="348" height="36" rx="18" stroke="black" stroke-width="2"/>
<circle cx="195" cy="178" r="61" stroke="black" stroke-width="2"/>
<circle cx="524.5" cy="336.5" r="35.5" stroke="black" stroke-width="2"/>
<rect x="32" y="301" width="348" height="42" rx="10" stroke="black" stroke-width="2"/>
<rect x="71" y="359" width="309" height="8" stroke="black" stroke-width="2"/>
<rect x="32" y="283" width="162" height="8" stroke="black" stroke-width="2"/>
<rect x="717" y="364" width="162" height="8" stroke="black" stroke-width="2"/>
<rect x="32" y="352" width="22" height="22" rx="5" stroke="black" stroke-width="2"/>
<rect x="633" y="396" width="82" height="78" rx="8" stroke="black" stroke-width="2"/>
<rect x="761" y="396" width="82" height="78" rx="8" stroke="black" stroke-width="2"/>
<rect x="885" y="396" width="82" height="78" rx="8" stroke="black" stroke-width="2"/>
<path fill-rule="evenodd" clip-rule="evenodd" d="M452.436 153.964C427.508 153.462 405.255 158.509 382.133 169.391C377.857 171.403 373.59 173.444 369.43 175.53C377.294 182.045 383.663 190.463 387.237 201.322C389.276 207.517 390.905 216.397 391.309 224.976C391.515 229.356 391.432 234.242 390.705 239.052C390.016 243.606 388.531 249.619 384.881 255.094C377.185 266.638 365.843 272.063 356.217 274.656C346.735 277.21 337.178 277.5 330.5 277.5C309.529 277.5 297.852 262.298 292.623 250.161C287.365 237.955 285.925 223.82 286.9 212.853C287.515 205.935 289.37 199.262 292.041 193.046C283.382 192.668 274.123 192.737 264.473 193.205C217.218 195.496 173.14 205.629 152.5 213C142.098 216.715 142.5 207.5 138 197.5C134.5 186.5 131.5 177 136.5 175.5C161.503 167.999 211.61 155.721 262.536 153.252C283.186 152.251 304.32 152.782 323.201 156.223C336.924 146.603 352.786 138.993 365.101 133.198C393.401 119.88 421.731 113.338 453.242 113.972C484.069 114.593 507.909 122.065 532.356 141.274C548.915 154.284 558.3 172.542 563.58 190.077C568.88 207.679 570.5 226.012 570.5 241.271C570.5 264.719 564.59 287.718 559.513 307.474C559.298 308.311 559.085 309.142 558.873 309.967C557.864 313.905 555.273 319.73 553.204 324.269C550.771 329.604 547.726 335.961 544.701 342.164C539.715 352.387 534.601 362.558 532.104 367.525C531.57 368.585 531.156 369.409 530.889 369.944C527 373.5 516.88 371.94 507 367C497.12 362.06 493.139 356 495.111 352.056C495.409 351.461 495.853 350.578 496.416 349.458C498.949 344.419 503.893 334.586 508.75 324.628C511.719 318.542 514.588 312.544 516.808 307.675C518.706 303.513 519.641 301.206 519.978 300.374C520.1 300.074 520.144 299.966 520.127 300.032L520.24 299.591C525.709 278.263 530.5 259.578 530.5 241.271C530.5 228.518 529.109 214.332 525.279 201.61C521.428 188.821 515.563 178.949 507.644 172.726C490.769 159.467 475.572 154.43 452.436 153.964ZM333.69 200.468C329.839 205.621 327.177 211.507 326.743 216.395C326.252 221.923 327.158 229.226 329.359 234.334C330.1 236.055 330.772 237.022 331.17 237.498C336.775 237.473 341.767 237.122 345.814 236.032C348.874 235.208 350.339 234.252 351.077 233.529C351.102 233.398 351.128 233.245 351.155 233.069C351.375 231.613 351.477 229.497 351.353 226.856C351.096 221.39 350.003 216.139 349.242 213.827C347.81 209.475 343.721 204.554 333.69 200.468Z" fill="url(#paint0_linear_68_5)" fill-opacity="0.9"/>
<g filter="url(#filter0_i_68_5)">
<path fill-rule="evenodd" clip-rule="evenodd" d="M452.436 153.964C427.508 153.462 405.255 158.509 382.133 169.391C377.857 171.403 373.59 173.444 369.43 175.53C377.294 182.045 383.663 190.463 387.237 201.322C389.276 207.517 390.905 216.397 391.309 224.976C391.515 229.356 391.432 234.242 390.705 239.052C390.016 243.606 388.531 249.619 384.881 255.094C377.185 266.638 365.843 272.063 356.217 274.656C346.735 277.21 337.178 277.5 330.5 277.5C309.529 277.5 297.852 262.298 292.623 250.161C287.365 237.955 285.925 223.82 286.9 212.853C287.515 205.935 289.37 199.262 292.041 193.046C283.382 192.668 274.123 192.737 264.473 193.205C217.218 195.496 173.14 205.629 152.5 213C142.098 216.715 142.5 207.5 138 197.5C134.5 186.5 131.5 177 136.5 175.5C161.503 167.999 211.61 155.721 262.536 153.252C283.186 152.251 304.32 152.782 323.201 156.223C336.924 146.603 352.786 138.993 365.101 133.198C393.401 119.88 421.731 113.338 453.242 113.972C484.069 114.593 507.909 122.065 532.356 141.274C548.915 154.284 558.3 172.542 563.58 190.077C568.88 207.679 570.5 226.012 570.5 241.271C570.5 264.719 564.59 287.718 559.513 307.474C559.298 308.311 559.085 309.142 558.873 309.967C557.864 313.905 555.273 319.73 553.204 324.269C550.771 329.604 547.726 335.961 544.701 342.164C539.715 352.387 534.601 362.558 532.104 367.525C531.57 368.585 531.156 369.409 530.889 369.944C527 373.5 516.88 371.94 507 367C497.12 362.06 493.139 356 495.111 352.056C495.409 351.461 495.853 350.578 496.416 349.458C498.949 344.419 503.893 334.586 508.75 324.628C511.719 318.542 514.588 312.544 516.808 307.675C518.706 303.513 519.641 301.206 519.978 300.374C520.1 300.074 520.144 299.966 520.127 300.032L520.24 299.591C525.709 278.263 530.5 259.578 530.5 241.271C530.5 228.518 529.109 214.332 525.279 201.61C521.428 188.821 515.563 178.949 507.644 172.726C490.769 159.467 475.572 154.43 452.436 153.964ZM333.69 200.468C329.839 205.621 327.177 211.507 326.743 216.395C326.252 221.923 327.158 229.226 329.359 234.334C330.1 236.055 330.772 237.022 331.17 237.498C336.775 237.473 341.767 237.122 345.814 236.032C348.874 235.208 350.339 234.252 351.077 233.529C351.102 233.398 351.128 233.245 351.155 233.069C351.375 231.613 351.477 229.497 351.353 226.856C351.096 221.39 350.003 216.139 349.242 213.827C347.81 209.475 343.721 204.554 333.69 200.468Z" fill="url(#paint1_linear_68_5)" fill-opacity="0.15"/>
</g>
<path fill-rule="evenodd" clip-rule="evenodd" d="M633.5 436.5C633.5 425.454 632.5 417 633.5 417L843 418C843 418 843 426.454 843 437.5C842 448.5 844 456 843 457H633.5C633.5 457 633.5 447.546 633.5 436.5Z" fill="url(#paint2_linear_68_5)" fill-opacity="0.9"/>
<path fill-rule="evenodd" clip-rule="evenodd" d="M632.446 437.013C632.446 426.243 631.442 418 632.446 418L842.71 418.975C842.71 418.975 842.71 427.218 842.71 437.988C841.706 448.713 843.714 456.025 842.71 457H632.446C632.446 457 632.446 447.782 632.446 437.013Z" fill="url(#paint3_linear_68_5)" fill-opacity="0.15"/>
<circle cx="195" cy="178" r="61" stroke="url(#paint4_linear_68_5)" stroke-width="2"/>
<circle cx="524.5" cy="336.5" r="35.5" stroke="url(#paint5_linear_68_5)" stroke-width="2"/>
<rect x="633" y="396" width="82" height="78" rx="8" stroke="url(#paint6_linear_68_5)" stroke-width="2"/>
<rect x="761" y="396" width="82" height="78" rx="8" stroke="url(#paint7_linear_68_5)" stroke-width="2"/>
<defs>
<filter id="filter0_i_68_5" x="133.854" y="113.93" width="436.646" height="261.948" filterUnits="userSpaceOnUse" color-interpolation-filters="sRGB">
<feFlood flood-opacity="0" result="BackgroundImageFix"/>
<feBlend mode="normal" in="SourceGraphic" in2="BackgroundImageFix" result="shape"/>
<feColorMatrix in="SourceAlpha" type="matrix" values="0 0 0 0 0 0 0 0 0 0 0 0 0 0 0 0 0 0 127 0" result="hardAlpha"/>
<feOffset dy="4"/>
<feGaussianBlur stdDeviation="2"/>
<feComposite in2="hardAlpha" operator="arithmetic" k2="-1" k3="1"/>
<feColorMatrix type="matrix" values="0 0 0 0 0.658333 0 0 0 0 0.644618 0 0 0 0 0.644618 0 0 0 0.15 0"/>
<feBlend mode="normal" in2="shape" result="effect1_innerShadow_68_5"/>
</filter>
<linearGradient id="paint0_linear_68_5" x1="378.953" y1="133.93" x2="378.953" y2="327.543" gradientUnits="userSpaceOnUse">
<stop stop-color="#F9EF5B"/>
<stop offset="1" stop-color="#BFF067"/>
</linearGradient>
<linearGradient id="paint1_linear_68_5" x1="528.5" y1="364.5" x2="144.5" y2="196" gradientUnits="userSpaceOnUse">
<stop/>
<stop offset="0.302083" stop-color="white"/>
<stop offset="0.75" stop-color="white"/>
<stop offset="1"/>
</linearGradient>
<linearGradient id="paint2_linear_68_5" x1="633.085" y1="439.662" x2="839.692" y2="439.662" gradientUnits="userSpaceOnUse">
<stop stop-color="#BBEC69"/>
<stop offset="0.5" stop-color="#9BCFAD"/>
<stop offset="1" stop-color="#455DD1"/>
</linearGradient>
<linearGradient id="paint3_linear_68_5" x1="632.029" y1="440.095" x2="839.39" y2="440.095" gradientUnits="userSpaceOnUse">
<stop/>
<stop offset="0.239583" stop-color="white" stop-opacity="0"/>
<stop offset="0.661458" stop-color="white" stop-opacity="0"/>
<stop offset="1"/>
</linearGradient>
<linearGradient id="paint4_linear_68_5" x1="133" y1="198" x2="257" y2="173.5" gradientUnits="userSpaceOnUse">
<stop/>
<stop offset="1" stop-opacity="0"/>
</linearGradient>
<linearGradient id="paint5_linear_68_5" x1="508" y1="369.5" x2="540.5" y2="300" gradientUnits="userSpaceOnUse">
<stop/>
<stop offset="1" stop-opacity="0"/>
</linearGradient>
<linearGradient id="paint6_linear_68_5" x1="634" y1="431" x2="714" y2="435" gradientUnits="userSpaceOnUse">
<stop/>
<stop offset="1" stop-opacity="0"/>
</linearGradient>
<linearGradient id="paint7_linear_68_5" x1="844" y1="437.5" x2="760" y2="437" gradientUnits="userSpaceOnUse">
<stop/>
<stop offset="1" stop-opacity="0"/>
</linearGradient>
</defs>
</svg>
