<svg width="225" height="268" viewBox="0 0 225 268" fill="none" xmlns="http://www.w3.org/2000/svg">
<circle cx="185" cy="50" r="26" fill="#282D36"/>
<path d="M137.141 64C135.006 63.9839 132.873 63.8147 130.759 63.4936C130.645 63.4772 130.535 63.4373 130.435 63.3761C130.336 63.3149 130.249 63.2337 130.179 63.1371C130.109 63.0405 130.058 62.9304 130.029 62.8131C130 62.6958 129.992 62.5736 130.008 62.4534C130.024 62.3332 130.062 62.2174 130.12 62.1127C130.178 62.008 130.255 61.9163 130.347 61.8429C130.439 61.7695 130.544 61.7159 130.655 61.6851C130.767 61.6543 130.883 61.6469 130.997 61.6633C139.752 62.9262 145.246 61.7975 147.312 58.3138C150.636 52.707 144.208 42.5366 144.144 42.4512C144.076 42.3516 144.027 42.2385 144.001 42.1187C143.975 41.9989 143.972 41.8749 143.993 41.7539C144.013 41.633 144.057 41.5176 144.121 41.4147C144.185 41.3119 144.268 41.2236 144.365 41.1551C144.462 41.0867 144.571 41.0395 144.686 41.0164C144.8 40.9932 144.918 40.9946 145.033 41.0205C145.147 41.0464 145.255 41.0962 145.351 41.1669C145.446 41.2377 145.527 41.3279 145.589 41.4323C145.879 41.8838 152.708 52.6887 148.791 59.2961C146.912 62.4259 143.013 64 137.141 64Z" fill="#BBEC69"/>
<path d="M34.7137 144C34.4935 144.004 34.2798 143.925 34.1154 143.78C32.823 142.66 31.2674 141.398 29.628 140.029C16.0939 128.873 -6.55867 110.198 1.8059 89.8916C6.09588 79.4735 16.2494 73.4549 27.0612 74.6217C26.8637 74.3955 26.6722 74.1693 26.4628 73.949C20.0608 66.5849 14.5263 60.2567 14.5741 48.9457C14.616 38.23 19.8873 27.4429 28.6647 20.1205C35.7967 14.1674 49.1573 7.48196 72.2705 9.35721C82.442 10.1906 99.2849 12.2147 106.196 16.8284C105.4 12.3814 105.208 7.71413 107.99 4.16605C110.384 1.13589 114.74 -0.423836 119.389 0.100042C127.915 1.06445 135.956 5.69601 143.286 13.8757C150.406 21.8112 155.174 31.1994 157.915 37.6883C157.966 37.797 157.995 37.915 157.999 38.0351C158.004 38.1552 157.984 38.2749 157.941 38.3872C157.898 38.4995 157.832 38.6019 157.748 38.6884C157.665 38.7749 157.564 38.8436 157.453 38.8905C157.342 38.9375 157.222 38.9615 157.101 38.9614C156.98 38.9612 156.861 38.9368 156.75 38.8896C156.639 38.8423 156.538 38.7733 156.455 38.6866C156.371 38.5998 156.306 38.4972 156.263 38.3848C153.571 32.0328 148.904 22.8292 141.951 15.0722C134.999 7.31528 127.292 2.76111 119.215 1.86218C116.056 1.51094 111.826 2.21342 109.438 5.24953C106.572 8.89882 107.458 14.2864 108.505 19.0549C108.548 19.2528 108.523 19.4594 108.433 19.641C108.342 19.8225 108.193 19.9682 108.009 20.054C107.824 20.1398 107.616 20.1608 107.418 20.1134C107.22 20.0659 107.044 19.953 106.919 19.7931C103.874 15.8938 90.8784 12.6493 72.1449 11.1253C59.7177 10.1192 42.3005 11.0896 29.8434 21.4778C21.4668 28.4669 16.4349 38.742 16.393 48.9398C16.3452 59.5781 21.6762 65.7039 27.845 72.7941C28.5629 73.6156 29.2909 74.457 30.0288 75.3182C30.1501 75.4601 30.2237 75.636 30.2395 75.8216C30.2553 76.0071 30.2123 76.1929 30.1167 76.353C30.0211 76.513 29.8776 76.6393 29.7063 76.7143C29.535 76.7892 29.3444 76.8089 29.1613 76.7708C18.3137 74.4907 7.75922 80.176 3.47522 90.5643C-4.38077 109.65 17.6316 127.801 30.7827 138.648C32.4341 140.011 33.9957 141.297 35.3061 142.428C35.395 142.505 35.4677 142.599 35.5201 142.705C35.5725 142.81 35.6034 142.925 35.6112 143.042C35.619 143.159 35.6035 143.277 35.5655 143.388C35.5275 143.499 35.4678 143.602 35.3898 143.69C35.3065 143.788 35.2028 143.866 35.0861 143.919C34.9693 143.973 34.8422 144 34.7137 144Z" fill="#455DD1"/>
<path d="M124.863 68.9995C124.672 68.9984 124.487 68.9325 124.336 68.8121C124.186 68.6916 124.078 68.5233 124.029 68.3332C123.98 68.143 123.993 67.9416 124.067 67.76C124.14 67.5785 124.27 67.4269 124.435 67.3288C135.894 60.5747 131.954 52.0544 129.641 46.9589C129.496 46.6487 129.357 46.3623 129.23 46.064C129.169 45.925 129.142 45.7722 129.153 45.62C129.165 45.4677 129.213 45.3208 129.294 45.1928C129.375 45.0638 129.488 44.9591 129.621 44.8889C129.754 44.8188 129.902 44.7858 130.051 44.7931C137.027 45.0437 141.487 43.5998 143.315 40.6165C145.629 36.7621 142.91 31.3742 142.881 31.3205C142.827 31.2167 142.793 31.103 142.782 30.9858C142.771 30.8685 142.782 30.7502 142.815 30.6375C142.848 30.5247 142.902 30.4198 142.975 30.3286C143.047 30.2375 143.136 30.162 143.237 30.1063C143.337 30.0507 143.448 30.0161 143.561 30.0044C143.675 29.9927 143.79 30.0043 143.899 30.0383C144.008 30.0724 144.11 30.1284 144.198 30.203C144.287 30.2776 144.36 30.3695 144.414 30.4733C144.547 30.7299 147.653 36.8158 144.796 41.5532C142.759 44.9303 138.294 46.6367 131.492 46.6367H131.382C133.84 52.0067 137.802 61.5233 125.274 68.9099C125.146 68.9738 125.005 69.0045 124.863 68.9995V68.9995Z" fill="#455DD1"/>
<path d="M140.101 197C139.923 197.002 139.748 196.948 139.602 196.846C111.709 178.268 95.9052 157.304 92.6243 134.54C88.4961 105.938 106.186 84.5636 106.367 84.3557C106.44 84.2591 106.533 84.1783 106.639 84.1182C106.745 84.058 106.862 84.0198 106.984 84.0059C107.105 83.992 107.228 84.0027 107.345 84.0372C107.462 84.0718 107.571 84.1295 107.665 84.207C107.759 84.2844 107.836 84.3799 107.891 84.4876C107.946 84.5954 107.979 84.7131 107.987 84.8337C107.995 84.9543 107.978 85.0752 107.937 85.189C107.896 85.3029 107.832 85.4073 107.749 85.496C107.575 85.6979 90.3889 106.508 94.4089 134.314C97.6297 156.55 113.169 177.075 140.606 195.373C140.765 195.48 140.885 195.634 140.949 195.814C141.013 195.993 141.017 196.188 140.96 196.37C140.904 196.552 140.79 196.711 140.636 196.825C140.481 196.938 140.294 196.999 140.101 197V197Z" fill="#BBEC69"/>
<path d="M72.5898 263C72.4675 263 72.3465 262.975 72.2346 262.926C72.1226 262.876 72.0223 262.804 71.9399 262.713C62.3993 252.56 58.428 243.655 60.0916 236.273C61.4571 230.247 66.1917 227.039 68.5112 225.803C43.1928 203.454 30.5813 181.045 31.0106 159.186C31.6069 129.102 56.651 108.975 64.8679 102.363L66.1022 101.366C67.4677 89.2892 70.6698 72.3034 82.375 62.4905C85.2439 60.0356 88.594 58.2094 92.21 57.1293C95.8259 56.0492 99.6276 55.7393 103.37 56.2194C110.305 57.0436 117.461 60.4001 123.513 65.644C130.573 71.7658 138.343 83.6392 135.284 105.457C134.247 112.316 132.582 119.066 130.311 125.62C130.162 126.062 129.667 127.215 128.981 128.821C127.735 131.712 124.878 138.377 124.741 139.835C133.465 150.042 143.978 166.442 144.926 186.928C145.522 199.297 142.338 207.181 142.201 207.515C142.11 207.735 141.937 207.911 141.718 208.003C141.498 208.094 141.252 208.095 141.032 208.005C140.812 207.915 140.637 207.741 140.545 207.521C140.454 207.302 140.453 207.055 140.543 206.834C140.579 206.757 143.709 198.915 143.131 186.91C142.606 175.843 138.718 158.839 123.227 140.82C122.571 140.056 122.756 138.766 127.335 128.111C127.931 126.665 128.492 125.423 128.617 125.053C130.848 118.6 132.487 111.957 133.513 105.206C136.458 84.1887 129.064 72.8289 122.344 66.9818C106.906 53.5915 91.7844 56.9241 83.5258 63.8463C72.1963 73.3426 69.1493 90.1254 67.8374 101.903C67.8152 102.136 67.7016 102.351 67.5214 102.5C67.1159 102.841 66.5971 103.253 65.983 103.749C57.9211 110.235 33.3719 129.962 32.7995 159.21C32.3701 180.806 45.1307 203.06 70.7056 225.337C70.8225 225.437 70.9116 225.565 70.9638 225.71C71.0161 225.854 71.0299 226.01 71.0037 226.161C70.9773 226.314 70.9125 226.457 70.8155 226.577C70.7184 226.697 70.5923 226.791 70.4492 226.848C70.3776 226.848 63.3951 229.703 61.8328 236.673C60.3182 243.434 64.1583 251.778 73.2398 261.477C73.3598 261.604 73.4399 261.764 73.4703 261.936C73.5008 262.108 73.4801 262.286 73.411 262.447C73.3419 262.607 73.2273 262.744 73.0814 262.84C72.9354 262.937 72.7646 262.988 72.5898 262.988V263Z" fill="#BBEC69"/>
<path d="M93.1171 267.994C92.9365 267.995 92.7598 267.943 92.609 267.845C92.2461 267.607 83.6938 261.958 80.3127 259.048C80.1574 258.915 80.0525 258.734 80.0151 258.535C79.9777 258.336 80.0102 258.131 80.1071 257.952C94.6231 231.464 89.9417 187.309 87.9699 168.452C87.5224 164.214 87.2018 161.148 87.2018 159.523C87.2011 159.398 87.2272 159.274 87.2784 159.16C87.3296 159.046 87.4048 158.943 87.499 158.86C87.5932 158.776 87.7043 158.713 87.8251 158.674C87.9459 158.636 88.0735 158.623 88.1998 158.636C96.2561 159.434 98.9114 153.779 99.0142 153.541C99.0906 153.366 99.2219 153.219 99.3891 153.123C99.5562 153.026 99.7503 152.985 99.943 153.005C100.136 153.025 100.317 153.105 100.46 153.234C100.603 153.362 100.7 153.532 100.738 153.719C102.991 165.772 104.357 177.968 104.827 190.214C105.552 208.827 104.294 234.976 94.2844 254.405C97.5275 256.957 100.952 259.278 104.53 261.351C104.635 261.408 104.727 261.484 104.801 261.576C104.876 261.668 104.931 261.773 104.964 261.886C104.997 261.998 105.008 262.116 104.994 262.233C104.981 262.35 104.945 262.463 104.887 262.565C104.83 262.668 104.752 262.759 104.659 262.832C104.566 262.905 104.459 262.96 104.344 262.993C104.113 263.058 103.864 263.031 103.653 262.917C99.77 260.672 96.064 258.143 92.5667 255.351C92.403 255.221 92.2901 255.039 92.2471 254.836C92.2042 254.633 92.2337 254.422 92.3308 254.238C109.726 221.387 101.403 167.601 99.365 156.225C97.7561 158.136 94.5263 160.708 89.0405 160.481C89.1312 162.184 89.4094 164.839 89.7723 168.285C91.7683 187.154 96.4255 231.149 82.0668 258.167C85.6958 261.143 93.5586 266.315 93.6372 266.369C93.797 266.476 93.9179 266.63 93.9822 266.81C94.0466 266.989 94.0511 267.184 93.9951 267.366C93.939 267.548 93.8254 267.708 93.6707 267.822C93.5161 267.936 93.3285 267.998 93.1352 268L93.1171 267.994Z" fill="#BBEC69"/>
<path d="M137.378 102.996C136.406 103.026 135.437 102.877 134.52 102.557C134.309 102.457 134.145 102.281 134.061 102.066C133.977 101.85 133.98 101.611 134.069 101.397C134.158 101.184 134.326 101.012 134.539 100.917C134.752 100.823 134.994 100.812 135.215 100.888C135.391 100.948 148.225 105.46 166.293 74.4522C166.353 74.3494 166.433 74.2593 166.528 74.187C166.624 74.1147 166.732 74.0616 166.848 74.0309C166.964 74.0001 167.085 73.9922 167.205 74.0077C167.324 74.0232 167.438 74.0616 167.542 74.121C167.646 74.1803 167.738 74.2593 167.811 74.3534C167.884 74.4476 167.938 74.5551 167.969 74.6697C168 74.7844 168.008 74.904 167.992 75.0217C167.977 75.1394 167.938 75.2529 167.878 75.3557C153.685 99.7075 142.418 102.996 137.378 102.996Z" fill="#BBEC69"/>
<path d="M126.024 136H125.88C125.762 135.997 125.645 135.972 125.537 135.924C125.429 135.877 125.331 135.809 125.249 135.724C125.084 135.553 124.995 135.324 125 135.088C125.003 134.971 125.029 134.856 125.077 134.749C125.125 134.641 125.193 134.545 125.279 134.464C125.452 134.301 125.683 134.212 125.922 134.218V134.218C125.988 134.218 133.536 134.319 142.573 128.983C157.712 120.042 165.392 102.967 169.133 90.2111C169.195 90.0022 169.331 89.8227 169.517 89.7061C173.57 87.1989 175.3 84.5729 173.492 77.1582C173.455 77.0417 173.443 76.9189 173.456 76.7974C173.469 76.6759 173.507 76.5584 173.568 76.4521C173.629 76.3458 173.711 76.253 173.81 76.1795C173.908 76.106 174.021 76.0533 174.141 76.0247C174.261 75.9962 174.386 75.9923 174.507 76.0134C174.629 76.0345 174.745 76.0802 174.848 76.1475C174.951 76.2147 175.039 76.3023 175.106 76.4046C175.174 76.507 175.219 76.6219 175.24 76.7424C177.239 84.9412 175.138 88.2505 170.766 91.0369C166.869 104.108 158.973 121.432 143.39 130.576C134.533 135.81 127.165 136 126.024 136Z" fill="#BBEC69"/>
<path d="M185 76C179.858 76 174.831 74.4458 170.555 71.534C166.28 68.6221 162.947 64.4834 160.979 59.6411C159.011 54.7989 158.496 49.4706 159.5 44.3301C160.503 39.1896 162.979 34.4678 166.615 30.7617C170.251 27.0556 174.884 24.5317 179.928 23.5092C184.971 22.4867 190.199 23.0115 194.95 25.0172C199.701 27.0229 203.761 30.4195 206.618 34.7774C209.475 39.1353 211 44.2588 211 49.5C210.992 56.5258 208.25 63.2615 203.376 68.2295C198.502 73.1975 191.893 75.992 185 76ZM185 24.8151C180.21 24.8151 175.527 26.2628 171.545 28.9752C167.562 31.6877 164.457 35.5429 162.624 40.0535C160.791 44.5641 160.312 49.5274 161.246 54.3158C162.181 59.1042 164.487 63.5026 167.874 66.9549C171.262 70.4071 175.577 72.7582 180.275 73.7106C184.973 74.6631 189.843 74.1742 194.268 72.3059C198.694 70.4376 202.476 67.2736 205.138 63.2142C207.799 59.1548 209.219 54.3822 209.219 49.5C209.203 42.9609 206.646 36.6946 202.106 32.0735C197.567 27.4525 191.416 24.8533 185 24.8453V24.8151Z" fill="#323740"/>
<path d="M156.87 105C156.73 104.998 156.592 104.963 156.467 104.898C156.264 104.789 156.112 104.602 156.042 104.379C155.972 104.156 155.99 103.913 156.093 103.703L172.344 71.4872C172.397 71.3825 172.469 71.2894 172.557 71.2131C172.644 71.1369 172.746 71.0792 172.855 71.0431C172.965 71.007 173.08 70.9934 173.195 71.003C173.31 71.0125 173.421 71.0451 173.524 71.0989C173.626 71.1526 173.717 71.2265 173.792 71.3162C173.866 71.406 173.923 71.5098 173.958 71.6219C173.993 71.734 174.006 71.852 173.997 71.9694C173.988 72.0867 173.956 72.2011 173.903 72.3058L157.652 104.522C157.576 104.667 157.463 104.787 157.326 104.872C157.188 104.956 157.03 105 156.87 105V105Z" fill="#323740"/>
<path d="M156.87 106C156.73 105.998 156.592 105.963 156.467 105.898C156.264 105.789 156.112 105.602 156.042 105.379C155.972 105.156 155.99 104.913 156.093 104.703L172.344 72.4872C172.397 72.3825 172.469 72.2894 172.557 72.2131C172.644 72.1369 172.746 72.0792 172.855 72.0431C172.965 72.007 173.08 71.9934 173.195 72.003C173.31 72.0125 173.421 72.0451 173.524 72.0989C173.626 72.1526 173.717 72.2265 173.792 72.3162C173.866 72.406 173.923 72.5098 173.958 72.6219C173.993 72.734 174.006 72.852 173.997 72.9694C173.988 73.0867 173.956 73.2011 173.903 73.3058L157.652 105.522C157.576 105.667 157.463 105.787 157.326 105.872C157.188 105.956 157.03 106 156.87 106V106Z" fill="#323740"/>
<path d="M157.87 106C157.73 105.998 157.592 105.963 157.467 105.898C157.264 105.789 157.112 105.602 157.042 105.379C156.972 105.156 156.99 104.913 157.093 104.703L173.344 72.4872C173.397 72.3825 173.469 72.2894 173.557 72.2131C173.644 72.1369 173.746 72.0792 173.855 72.0431C173.965 72.007 174.08 71.9934 174.195 72.003C174.31 72.0125 174.421 72.0451 174.524 72.0989C174.626 72.1526 174.717 72.2265 174.792 72.3162C174.866 72.406 174.923 72.5098 174.958 72.6219C174.993 72.734 175.006 72.852 174.997 72.9694C174.988 73.0867 174.956 73.2011 174.903 73.3058L158.652 105.522C158.576 105.667 158.463 105.787 158.326 105.872C158.188 105.956 158.03 106 157.87 106V106Z" fill="#323740"/>
<path d="M200.894 81C200.703 81.0007 200.517 80.9405 200.364 80.8282C200.21 80.7159 200.096 80.5574 200.04 80.376C199.983 80.1947 199.987 80 200.05 79.8208C200.113 79.6415 200.232 79.4871 200.389 79.3803C210.08 72.73 216.08 64.7084 217.742 56.1901C218.994 49.7645 217.35 45.2424 217.333 45.201C217.291 45.0919 217.272 44.9758 217.276 44.8593C217.279 44.7428 217.306 44.6281 217.354 44.5219C217.403 44.4157 217.471 44.32 217.557 44.2402C217.642 44.1605 217.742 44.0983 217.852 44.0571C217.961 44.016 218.078 43.9967 218.195 44.0005C218.312 44.0042 218.427 44.0308 218.534 44.0789C218.64 44.1269 218.736 44.1954 218.816 44.2804C218.896 44.3654 218.959 44.4653 219 44.5744C219.077 44.7754 220.828 49.5281 219.511 56.397C217.338 67.8059 208.46 75.9754 201.398 80.8226C201.252 80.9319 201.076 80.9938 200.894 81V81Z" fill="#323740"/>
<path d="M213.07 81L212 79.5816C212.108 79.5051 222.657 71.6246 223.207 58L225 58.0706C224.414 72.5663 213.536 80.6645 213.07 81Z" fill="#323740"/>
</svg>
