<svg width="332" height="249" viewBox="0 0 332 249" fill="none" xmlns="http://www.w3.org/2000/svg">
<g clip-path="url(#clip0_1_22)">
<path d="M2.10087 149.008H54.8634C54.8634 149.008 63.9396 144.01 44.7223 132.304C25.505 120.598 6.33114 136.522 6.33114 136.522C6.33114 136.522 0.0726617 143.461 0.0726617 144.639C0.0726617 145.816 -0.572021 147.982 2.10087 149.008Z" fill="#282D36"/>
</g>
<g clip-path="url(#clip1_1_22)">
<path d="M253.064 119.008H304.901C304.901 119.008 313.818 114.01 294.938 102.304C276.058 90.5983 257.22 106.522 257.22 106.522C257.22 106.522 251.071 113.461 251.071 114.639C251.071 115.816 250.438 117.982 253.064 119.008Z" fill="#282D36"/>
</g>
<path d="M138.4 243.138C74.7031 243.138 22.642 236.478 18.0937 235.874C14.1165 237.769 1.90977 241.923 1.37994 242.102C1.25163 242.147 1.11567 242.166 0.979837 242.159C0.844 242.151 0.710943 242.117 0.588264 242.059C0.465585 242 0.355687 241.918 0.264842 241.817C0.173997 241.716 0.103984 241.598 0.058803 241.47C0.0136222 241.342 -0.00584383 241.206 0.001518 241.071C0.00887983 240.935 0.0429254 240.802 0.101709 240.68C0.160493 240.557 0.242864 240.448 0.344121 240.357C0.445377 240.266 0.563536 240.197 0.69185 240.151C0.822587 240.11 13.9239 235.647 17.4331 233.896L17.7153 233.752L18.0318 233.793C19.3598 233.978 151.577 251.694 257.309 231.197C257.578 231.146 257.857 231.202 258.084 231.356C258.311 231.509 258.468 231.746 258.52 232.015C258.572 232.283 258.515 232.561 258.362 232.788C258.208 233.015 257.97 233.171 257.701 233.223C218.92 240.742 176.568 243.138 138.4 243.138Z" fill="#455DD1"/>
<path d="M302.241 248.014C289.491 248.014 278.2 244.196 269.764 240.103C260.927 235.816 252.79 230.223 245.625 223.514C245.444 223.318 245.346 223.059 245.352 222.792C245.358 222.525 245.467 222.271 245.657 222.083C245.847 221.895 246.103 221.788 246.37 221.785C246.638 221.782 246.896 221.882 247.091 222.065C254.106 228.623 262.072 234.088 270.72 238.277C283.794 244.594 303.81 250.232 325.368 241.353C327.77 237.055 330.508 230.6 327.852 223.17C324.46 213.708 313.32 205.276 294.734 198.107C294.479 198.009 294.273 197.813 294.162 197.564C294.051 197.314 294.044 197.03 294.143 196.775C294.241 196.52 294.437 196.315 294.688 196.204C294.938 196.093 295.222 196.086 295.478 196.185C314.655 203.58 326.194 212.424 329.793 222.477C332.8 230.882 329.634 238.03 326.992 242.671L326.82 242.98L326.49 243.118C318.817 246.352 310.571 248.016 302.241 248.014V248.014Z" fill="#455DD1"/>
<path d="M288.597 203.436C288.378 203.436 288.166 203.366 287.989 203.237C287.813 203.109 287.682 202.927 287.615 202.72C287.549 202.512 287.55 202.289 287.619 202.082C287.688 201.875 287.82 201.695 287.998 201.568C293.283 197.86 294.955 189.785 291.576 184.292C290.667 182.862 289.479 181.631 288.081 180.672C286.683 179.712 285.106 179.045 283.443 178.709C279.424 177.821 275.217 178.562 271.745 180.769C271.517 180.902 271.247 180.943 270.99 180.883C270.733 180.823 270.509 180.667 270.364 180.447C270.218 180.227 270.163 179.96 270.209 179.701C270.255 179.442 270.398 179.21 270.61 179.053C272.563 177.807 274.743 176.957 277.025 176.553C279.308 176.149 281.647 176.198 283.911 176.697C285.844 177.091 287.677 177.872 289.299 178.992C290.922 180.111 292.3 181.548 293.351 183.214C297.274 189.586 295.34 198.952 289.223 203.251C289.041 203.381 288.82 203.447 288.597 203.436V203.436Z" fill="#455DD1"/>
<path d="M271.188 195.121C271.135 195.127 271.082 195.127 271.03 195.121C270.896 195.101 270.767 195.054 270.651 194.984C270.535 194.914 270.434 194.822 270.354 194.713C270.274 194.603 270.217 194.479 270.185 194.348C270.153 194.216 270.148 194.08 270.169 193.946C270.532 190.972 270.416 187.958 269.825 185.02C268.546 178.943 265.25 174.967 260.02 173.202C259.891 173.157 259.773 173.087 259.671 172.997C259.569 172.906 259.487 172.796 259.427 172.673C259.368 172.55 259.334 172.417 259.327 172.281C259.319 172.145 259.338 172.009 259.384 171.881C259.429 171.752 259.499 171.634 259.59 171.532C259.681 171.431 259.791 171.348 259.914 171.289C260.037 171.23 260.17 171.196 260.307 171.189C260.443 171.181 260.579 171.2 260.708 171.246C274.904 176.052 272.254 194.063 272.227 194.242C272.19 194.489 272.064 194.715 271.873 194.876C271.682 195.038 271.438 195.125 271.188 195.121Z" fill="#455DD1"/>
<path d="M57.1636 216.736C57.0075 216.734 56.8538 216.697 56.7138 216.628C56.5738 216.559 56.451 216.46 56.3541 216.337C56.2573 216.215 56.1889 216.073 56.154 215.921C56.1191 215.769 56.1184 215.611 56.1521 215.459C58.6774 205.159 63.2464 198.334 69.7282 195.175C76.9669 191.646 84.9075 193.527 89.8824 195.457C87.7837 184.154 85.5887 168.746 106.397 145.063C116.374 133.726 129.365 127.169 145.012 125.576C161.348 123.907 175.619 128.233 182.672 130.952C190.021 133.795 195.45 137.194 199.385 140.655C199.86 140.044 200.363 139.46 200.892 138.897C203.254 136.36 206.117 134.339 209.3 132.962C212.484 131.584 215.918 130.878 219.388 130.89C236.295 130.664 240.85 141.328 244.235 150.343C259.999 144.782 285.521 136.143 303.108 148.716C308.93 152.884 315.742 161.248 316.96 169.762C317.322 171.847 317.242 173.984 316.725 176.036C316.208 178.088 315.266 180.009 313.96 181.676C309.143 187.814 300.645 190.025 296.021 190.801C295.747 190.847 295.467 190.782 295.241 190.621C295.015 190.46 294.863 190.216 294.817 189.943C294.771 189.67 294.836 189.39 294.998 189.164C295.159 188.939 295.403 188.787 295.677 188.741C300.012 188.013 307.932 185.995 312.336 180.371C313.468 178.923 314.283 177.253 314.726 175.47C315.17 173.688 315.232 171.832 314.909 170.023C313.781 162.106 307.382 154.285 301.904 150.364C284.853 138.155 259.243 147.192 243.967 152.596L243.004 152.932L242.653 151.985C239.157 142.605 235.545 132.916 219.946 132.916H219.436C216.245 132.901 213.085 133.547 210.156 134.813C207.227 136.079 204.593 137.937 202.42 140.27C201.883 140.84 201.388 141.431 200.927 142.028C206.487 147.466 208.496 152.864 208.682 156.221C208.84 159.352 207.663 163.706 205.117 165.965C204.583 166.481 203.937 166.866 203.23 167.091C202.522 167.316 201.771 167.375 201.037 167.263C196.365 166.487 194.631 163.39 194.156 154.999C193.943 151.03 195.47 146.347 198.188 142.268C194.562 139.041 189.367 135.711 181.929 132.841C159.531 124.196 128.34 123.227 107.945 146.388C87.1989 169.975 90.0063 185.006 92.0568 195.979L92.5866 198.856L90.7907 198.046C86.442 196.102 78.0335 193.369 70.6021 196.995C64.6982 199.872 60.5009 206.237 58.1269 215.912C58.0812 216.137 57.9616 216.34 57.7871 216.49C57.6126 216.639 57.3932 216.726 57.1636 216.736ZM199.75 143.745C197.156 147.762 196.096 151.985 196.255 154.923C196.695 163.115 198.195 164.736 201.388 165.265C201.819 165.324 202.258 165.283 202.67 165.143C203.082 165.004 203.456 164.77 203.762 164.461C205.523 162.896 206.782 159.339 206.631 156.359C206.61 155.988 206.218 150.234 199.75 143.745Z" fill="#BBEC69"/>
<path d="M290.496 88.4963C289.463 88.4992 288.432 88.4189 287.413 88.256C287.145 88.2058 286.907 88.0524 286.751 87.8288C286.596 87.6053 286.534 87.3295 286.58 87.0612C286.629 86.7927 286.782 86.5544 287.007 86.3986C287.231 86.2429 287.509 86.1823 287.778 86.2303C287.833 86.2303 293.42 87.1916 296.131 84.9257C296.619 84.5027 297.003 83.9725 297.251 83.3768C297.499 82.7811 297.606 82.1361 297.562 81.4924V69.0708C297.562 68.7976 297.671 68.5356 297.865 68.3425C298.058 68.1493 298.321 68.0408 298.595 68.0408C298.868 68.0408 299.131 68.1493 299.324 68.3425C299.518 68.5356 299.627 68.7976 299.627 69.0708V81.4855C299.67 82.431 299.496 83.3738 299.12 84.2424C298.743 85.111 298.173 85.8824 297.452 86.4981C295.512 88.1186 292.663 88.4963 290.496 88.4963Z" fill="#BBEC69"/>
<path d="M282.177 79.8033C280.546 79.8033 278.805 79.5286 277.601 78.5879C277.111 78.2032 276.719 77.7085 276.457 77.1441C276.196 76.5797 276.071 75.9615 276.094 75.34V64.3535C276.094 64.0803 276.203 63.8183 276.396 63.6252C276.59 63.432 276.852 63.3235 277.126 63.3235C277.4 63.3235 277.662 63.432 277.856 63.6252C278.05 63.8183 278.158 64.0803 278.158 64.3535V75.34C278.133 75.6466 278.182 75.9548 278.302 76.2382C278.421 76.5217 278.608 76.7719 278.846 76.9674C280.512 78.2651 284.585 77.654 286.016 77.2626C286.282 77.1962 286.563 77.2377 286.798 77.378C287.033 77.5184 287.202 77.7461 287.269 78.0111C287.335 78.2761 287.294 78.5566 287.153 78.791C287.012 79.0253 286.784 79.1943 286.519 79.2608C285.096 79.6047 283.64 79.7867 282.177 79.8033V79.8033Z" fill="#BBEC69"/>
<path d="M303.459 119.224H254.88C254.219 119.228 253.569 119.064 252.989 118.747C252.41 118.429 251.922 117.97 251.57 117.412C251.214 116.849 251.008 116.205 250.971 115.541C250.933 114.876 251.066 114.213 251.357 113.614C255.307 105.374 265.036 96.8805 280.408 97.677C296.462 98.501 303.9 107.922 306.907 113.47C307.228 114.065 307.389 114.733 307.375 115.408C307.36 116.084 307.17 116.744 306.824 117.324C306.477 117.905 305.986 118.385 305.397 118.72C304.809 119.054 304.143 119.23 303.466 119.231L303.459 119.224ZM278.406 99.682C261.252 99.682 254.46 111.959 253.242 114.5C253.103 114.786 253.039 115.102 253.056 115.419C253.073 115.736 253.17 116.044 253.339 116.313C253.504 116.577 253.735 116.793 254.008 116.943C254.282 117.092 254.589 117.168 254.901 117.164H303.48C303.804 117.167 304.123 117.084 304.405 116.926C304.686 116.767 304.922 116.537 305.087 116.259C305.252 115.981 305.341 115.665 305.345 115.341C305.349 115.018 305.269 114.7 305.111 114.418C302.31 109.254 295.367 100.479 280.34 99.7026C279.651 99.6958 279.012 99.682 278.406 99.682Z" fill="#323740"/>
<path d="M39.5484 118.448C38.516 118.451 37.4851 118.371 36.4657 118.208C36.3277 118.189 36.1949 118.143 36.0754 118.072C35.9558 118.001 35.8519 117.906 35.7699 117.793C35.688 117.681 35.6297 117.553 35.5985 117.418C35.5673 117.282 35.564 117.142 35.5886 117.005C35.6132 116.868 35.6653 116.738 35.7418 116.622C35.8183 116.506 35.9175 116.406 36.0335 116.329C36.1496 116.252 36.28 116.2 36.4169 116.175C36.5539 116.149 36.6945 116.152 36.8304 116.182C36.8855 116.182 42.4728 117.151 45.1839 114.885C45.6704 114.46 46.0525 113.93 46.3007 113.335C46.5489 112.739 46.6565 112.095 46.6151 111.451V99.0366C46.6151 98.9013 46.6418 98.7674 46.6937 98.6424C46.7455 98.5174 46.8216 98.4039 46.9174 98.3083C47.0133 98.2126 47.127 98.1367 47.2523 98.085C47.3775 98.0332 47.5117 98.0066 47.6472 98.0066C47.7828 98.0066 47.917 98.0332 48.0422 98.085C48.1674 98.1367 48.2812 98.2126 48.3771 98.3083C48.4729 98.4039 48.5489 98.5174 48.6008 98.6424C48.6527 98.7674 48.6794 98.9013 48.6794 99.0366V111.451C48.7224 112.397 48.549 113.34 48.1722 114.208C47.7955 115.077 47.2253 115.848 46.505 116.464C44.5646 118.084 41.7021 118.448 39.5484 118.448Z" fill="#BBEC69"/>
<path d="M31.2294 109.783C29.5986 109.783 27.8577 109.508 26.6536 108.574C26.1645 108.187 25.7733 107.691 25.5116 107.126C25.2498 106.561 25.1248 105.942 25.1467 105.319V94.333C25.1467 94.0598 25.2554 93.7978 25.449 93.6046C25.6425 93.4115 25.9051 93.303 26.1788 93.303C26.4525 93.303 26.7151 93.4115 26.9086 93.6046C27.1022 93.7978 27.2109 94.0598 27.2109 94.333V105.319C27.1852 105.626 27.2344 105.934 27.3542 106.218C27.4741 106.501 27.661 106.751 27.899 106.947C29.5642 108.245 33.7341 107.579 35.069 107.242C35.2004 107.209 35.3371 107.202 35.4712 107.222C35.6053 107.242 35.7342 107.288 35.8505 107.358C35.9667 107.427 36.0682 107.519 36.149 107.627C36.2297 107.736 36.2883 107.859 36.3213 107.991C36.3543 108.122 36.361 108.258 36.3412 108.392C36.3213 108.526 36.2753 108.654 36.2056 108.77C36.136 108.886 36.0441 108.988 35.9353 109.068C35.8264 109.149 35.7027 109.207 35.5713 109.24C34.1492 109.584 32.6926 109.766 31.2294 109.783V109.783Z" fill="#BBEC69"/>
<path d="M52.5121 149.197H3.93274C3.26927 149.196 2.61688 149.027 2.03679 148.706C1.45671 148.385 0.967972 147.921 0.61646 147.36C0.264947 146.798 0.0621917 146.157 0.02723 145.496C-0.00773174 144.835 0.126247 144.175 0.416587 143.58C4.36624 135.34 14.0959 126.846 29.4679 127.643C45.521 128.467 52.9593 137.888 55.9594 143.436C56.2824 144.031 56.4449 144.699 56.4312 145.376C56.4175 146.052 56.2279 146.714 55.8811 147.295C55.5343 147.877 55.0421 148.358 54.4527 148.693C53.8633 149.027 53.197 149.203 52.5189 149.204L52.5121 149.197ZM27.438 129.648C10.2838 129.648 3.49236 141.925 2.27444 144.466C2.13533 144.751 2.0712 145.068 2.08805 145.385C2.10489 145.702 2.20218 146.009 2.37077 146.279C2.53571 146.543 2.76595 146.761 3.03945 146.911C3.31294 147.062 3.62053 147.139 3.93274 147.137H52.5121C52.8351 147.137 53.1526 147.054 53.4333 146.894C53.714 146.735 53.9482 146.505 54.1129 146.228C54.2775 145.951 54.3669 145.635 54.3721 145.313C54.3774 144.991 54.2984 144.673 54.1428 144.39C51.3423 139.227 44.3995 130.451 29.3715 129.675C28.7041 129.696 28.0641 129.648 27.438 129.648Z" fill="#323740"/>
<path d="M148.57 58.3933C142.783 58.3947 137.125 56.6833 132.313 53.4757C127.5 50.268 123.749 45.7082 121.534 40.3729C119.318 35.0377 118.738 29.1666 119.867 23.5024C120.996 17.8381 123.782 12.6352 127.875 8.55152C131.967 4.46788 137.181 1.68703 142.857 0.560685C148.533 -0.565656 154.416 0.0131104 159.763 2.22379C165.109 4.43447 169.678 8.17773 172.893 12.9802C176.107 17.7826 177.822 23.4284 177.821 29.2035C177.812 36.9424 174.727 44.3616 169.243 49.8338C163.76 55.306 156.325 58.3843 148.57 58.3933ZM148.57 2.08745C143.191 2.0861 137.933 3.67648 133.46 6.65747C128.987 9.63846 125.501 13.8762 123.441 18.8346C121.382 23.7931 120.843 29.2496 121.891 34.514C122.94 39.7785 125.529 44.6144 129.332 48.4102C133.135 52.2061 137.98 54.7913 143.255 55.8389C148.53 56.8865 153.998 56.3496 158.968 54.2958C163.937 52.2421 168.185 48.764 171.173 44.3012C174.161 39.8384 175.756 34.5916 175.756 29.2241C175.753 22.0274 172.888 15.1262 167.791 10.0348C162.694 4.94335 155.782 2.07777 148.57 2.06685V2.08745Z" fill="#BBEC69"/>
<path d="M35.929 228.835C35.7106 228.835 35.4979 228.765 35.3215 228.637C35.1452 228.508 35.0144 228.327 34.9478 228.119C34.8813 227.911 34.8824 227.688 34.9512 227.481C35.0199 227.274 35.1527 227.094 35.3304 226.968C72.5355 200.538 87.5291 213.234 93.9283 218.686C118.046 190.279 141.524 175.86 163.722 175.839H163.777C188.369 175.839 203.934 193.349 209.59 200.016C229.544 190.712 258.788 183.31 286.408 199.79C303.129 209.76 311.18 223.576 311.483 224.152C311.558 224.27 311.608 224.401 311.631 224.539C311.653 224.676 311.648 224.817 311.614 224.952C311.581 225.087 311.52 225.215 311.436 225.326C311.352 225.437 311.246 225.53 311.125 225.6C311.004 225.669 310.87 225.713 310.732 225.729C310.593 225.745 310.452 225.733 310.318 225.693C310.185 225.654 310.06 225.587 309.953 225.498C309.845 225.409 309.757 225.299 309.693 225.175C303.501 215.513 295.146 207.416 285.287 201.52C263.798 188.735 237.685 188.982 209.769 202.207L209.046 202.55L208.537 201.939C203.507 195.993 188.204 177.906 163.811 177.906H163.763C141.992 177.906 118.817 192.36 94.8779 220.808L94.1898 221.591L93.3985 220.904L92.5866 220.218C86.552 215.095 72.4186 203.106 36.5208 228.602C36.3536 228.741 36.1462 228.823 35.929 228.835Z" fill="#455DD1"/>
<path d="M35.991 135.697C35.7173 135.697 35.4547 135.589 35.2612 135.395C35.0676 135.202 34.9589 134.94 34.9589 134.667V88.2285C34.9589 87.9553 35.0676 87.6933 35.2612 87.5002C35.4547 87.307 35.7173 87.1985 35.991 87.1985C36.2647 87.1985 36.5273 87.307 36.7208 87.5002C36.9144 87.6933 37.0231 87.9553 37.0231 88.2285V134.667C37.0231 134.94 36.9144 135.202 36.7208 135.395C36.5273 135.589 36.2647 135.697 35.991 135.697V135.697Z" fill="#BBEC69"/>
<path d="M286.945 105.731C286.671 105.731 286.409 105.623 286.215 105.43C286.022 105.237 285.913 104.975 285.913 104.701V58.2834C285.913 58.0102 286.022 57.7482 286.215 57.5551C286.409 57.3619 286.671 57.2534 286.945 57.2534C287.219 57.2534 287.482 57.3619 287.675 57.5551C287.869 57.7482 287.977 58.0102 287.977 58.2834V104.701C287.977 104.975 287.869 105.237 287.675 105.43C287.482 105.623 287.219 105.731 286.945 105.731V105.731Z" fill="#BBEC69"/>
<defs>
<clipPath id="clip0_1_22">
<rect width="57" height="21" fill="white" transform="translate(0 128)"/>
</clipPath>
<clipPath id="clip1_1_22">
<rect width="56" height="21" fill="white" transform="translate(251 98)"/>
</clipPath>
</defs>
</svg>
