<svg width="251" height="200" viewBox="0 0 251 200" fill="none" xmlns="http://www.w3.org/2000/svg">
<path d="M87.5 113L86 111C121.815 110.911 153.92 111.129 180.376 111.129C188.527 111.129 196.679 111.129 204.831 111.129C205.992 111.129 207.12 111.129 208.221 111.156C219.114 111.268 226.984 111.351 235.138 102.256C241.201 95.4755 245.37 86.4309 247.526 75.3614C250.044 62.473 249.905 48.3664 247.132 34.5657L247.076 34.3098C241.518 13.6338 233.315 2.97601 221.988 1.76337C215.318 1.05693 209.61 4.58358 204.075 7.99899C202.963 8.68318 201.818 9.38961 200.684 10.0516C174.318 25.4153 148.016 42.1301 122.5 58C110.087 66.8053 94.6998 75.718 82 83.5L81 82.5C93.6998 74.7124 108.966 65.2237 121.5 56.5C147.027 40.6245 173.456 23.9857 199.845 8.61086C200.957 7.95448 202.102 7.2536 203.18 6.57497C208.954 3.01494 214.924 -0.656332 222.149 0.105736C234.237 1.39625 242.919 12.4601 248.682 33.926L248.749 34.2375C251.567 48.2495 251.706 62.5787 249.149 75.6784C246.926 87.0483 242.63 96.3655 236.366 103.369C227.707 113.048 219.52 112.964 208.187 112.825C207.076 112.825 205.964 112.797 204.808 112.797C196.657 112.797 188.505 112.797 180.354 112.797C153.915 112.814 123.31 112.911 87.5 113Z" fill="#323740"/>
<path d="M46.4862 186.573C40.3726 186.573 23.3098 185.461 11.7105 173.613C2.41772 164.134 -1.35609 150.05 0.439111 131.727C2.49553 111.045 9.00938 96.894 19.7972 89.6738C33.3474 80.618 49.682 85.0124 55.9791 86.8925C57.7187 82.042 59.8696 76.7965 66.0834 75.3725C75.5929 73.1975 83.185 82.6817 86.2141 92.4161C86.2659 92.6229 86.2366 92.8417 86.1323 93.0276C86.028 93.2135 85.8565 93.3523 85.6531 93.4157C85.4497 93.479 85.2298 93.462 85.0385 93.3682C84.8473 93.2744 84.6991 93.1109 84.6245 92.9112C82.607 86.4308 76.2154 74.7773 66.4558 77.0023C60.8034 78.2928 59.0137 83.3269 57.2852 88.1997L57.0185 88.9451L56.257 88.717C50.8047 87.0483 34.2033 82.042 20.7254 91.0589C10.3655 97.9842 4.10176 111.724 2.10092 131.888C0.339068 149.688 3.96837 163.305 12.8888 172.411C26.6001 186.401 48.3926 184.843 48.6094 184.827C48.7188 184.818 48.829 184.831 48.9335 184.865C49.038 184.898 49.1348 184.953 49.2184 185.024C49.302 185.095 49.3708 185.182 49.4208 185.28C49.4707 185.378 49.501 185.485 49.5097 185.594C49.5185 185.704 49.5056 185.814 49.4718 185.919C49.438 186.023 49.3839 186.12 49.3127 186.204C49.2415 186.287 49.1545 186.356 49.0567 186.406C48.9589 186.456 48.8522 186.487 48.7428 186.495C48.7038 186.518 47.8813 186.573 46.4862 186.573Z" fill="#455DD1"/>
<path d="M82.6293 108.503C82.445 108.506 82.2651 108.447 82.118 108.336C81.9709 108.225 81.865 108.068 81.8172 107.889C81.7693 107.711 81.7822 107.522 81.8538 107.352C81.9254 107.182 82.0516 107.041 82.2124 106.951C84.6079 105.555 90.5993 101.199 89.56 97.8897C88.3372 93.9959 84.9914 93.117 77.6216 94.758C77.4057 94.8059 77.1795 94.766 76.9929 94.6471C76.8064 94.5282 76.6746 94.34 76.6267 94.1238C76.5788 93.9077 76.6187 93.6814 76.7375 93.4946C76.8563 93.3079 77.0444 93.1761 77.2603 93.1281C83.0628 91.8376 89.2487 91.337 91.1551 97.389C91.872 99.6641 90.6771 102.24 87.6091 105.026C86.2011 106.292 84.6749 107.418 83.0517 108.392C82.924 108.468 82.7777 108.506 82.6293 108.503V108.503Z" fill="#BBEC69"/>
<path d="M79.5334 196.808C72.3082 196.808 65.9777 195.24 60.6699 192.091C41.2562 180.577 45.5247 150.878 49.7931 134.202C52.0163 125.469 60.5977 107.824 71.191 104.609C75.4095 103.33 79.489 104.426 83.3239 107.869C90.9827 114.744 94.1674 126.681 96.4572 135.643L97.78 135.559C107.378 134.936 123.446 133.89 131.778 150.189C131.879 150.386 131.897 150.615 131.83 150.825C131.762 151.036 131.613 151.211 131.416 151.312C131.22 151.413 130.991 151.432 130.78 151.364C130.57 151.296 130.395 151.148 130.294 150.951C122.463 135.62 107.078 136.638 97.8856 137.234L95.8625 137.356L95.1789 137.395L95.0066 136.727C92.7834 127.905 89.6821 115.829 82.2234 109.12C78.8498 106.094 75.3039 105.115 71.6635 106.211C61.8315 109.198 53.4836 126.47 51.3994 134.619C47.2421 150.845 43.0292 179.704 61.5092 190.662C87.5201 206.092 130.121 176.844 130.549 176.55C130.639 176.48 130.741 176.43 130.851 176.401C130.96 176.373 131.074 176.367 131.186 176.384C131.298 176.401 131.405 176.441 131.501 176.501C131.597 176.561 131.68 176.64 131.745 176.733C131.809 176.826 131.854 176.931 131.877 177.042C131.9 177.153 131.899 177.267 131.877 177.378C131.854 177.489 131.808 177.594 131.744 177.687C131.679 177.78 131.596 177.858 131.5 177.918C123.611 183.152 115.199 187.55 106.4 191.04C96.5628 194.889 87.5201 196.808 79.5334 196.808Z" fill="#BBEC69"/>
<path d="M90.6492 157.242C86.0069 157.322 81.3979 156.444 77.1102 154.661C68.8567 151.068 64.5494 143.141 64.6439 131.738C64.7424 126.279 65.6202 120.861 67.2505 115.651C67.3242 115.441 67.478 115.27 67.6782 115.174C67.8783 115.078 68.1083 115.065 68.3176 115.139C68.5269 115.213 68.6984 115.367 68.7943 115.567C68.8902 115.767 68.9026 115.998 68.8289 116.207C68.7345 116.496 59.3361 145.132 77.7716 153.154C81.8338 154.844 86.2007 155.677 90.5992 155.601C106.75 155.601 123.224 146.362 123.43 146.245C123.525 146.19 123.63 146.155 123.739 146.142C123.848 146.128 123.958 146.136 124.064 146.164C124.17 146.193 124.269 146.243 124.355 146.31C124.442 146.377 124.515 146.461 124.569 146.556C124.623 146.652 124.659 146.757 124.672 146.866C124.686 146.975 124.678 147.085 124.649 147.191C124.62 147.297 124.571 147.396 124.504 147.483C124.437 147.57 124.353 147.642 124.258 147.697C119.119 150.461 113.72 152.709 108.14 154.411C103.21 155.89 97.0186 157.242 90.6492 157.242Z" fill="#BBEC69"/>
<path d="M69.5292 163.172C69.3718 163.173 69.2173 163.129 69.0846 163.044C68.9919 162.985 68.9115 162.909 68.8482 162.82C68.7849 162.73 68.7398 162.629 68.7155 162.522C68.6913 162.415 68.6883 162.305 68.7068 162.197C68.7253 162.088 68.7649 161.985 68.8234 161.892C73.1697 154.978 78.4552 153.704 78.6775 153.654C78.8879 153.617 79.1044 153.663 79.2823 153.781C79.4602 153.899 79.586 154.081 79.6337 154.289C79.6815 154.498 79.6476 154.717 79.5389 154.901C79.4303 155.085 79.2553 155.22 79.0499 155.278C78.9832 155.278 74.1812 156.502 70.2351 162.782C70.1592 162.901 70.0548 162.999 69.9316 163.067C69.8083 163.135 69.67 163.171 69.5292 163.172V163.172Z" fill="#BBEC69"/>
<path d="M104.889 199.033C97.7935 199.021 90.7177 198.292 83.7686 196.859C83.6617 196.835 83.5605 196.79 83.4708 196.727C83.3811 196.664 83.3046 196.584 83.2458 196.492C83.187 196.4 83.1469 196.296 83.1279 196.188C83.1089 196.08 83.1113 195.97 83.135 195.863C83.1588 195.756 83.2033 195.654 83.2661 195.565C83.329 195.475 83.4089 195.398 83.5012 195.34C83.5936 195.281 83.6967 195.241 83.8045 195.222C83.9124 195.203 84.023 195.205 84.1299 195.229C84.4522 195.301 116.177 202.221 133.406 190.345C139.342 186.256 142.927 180.332 144.055 172.784C143.988 172.266 143.938 171.671 143.888 171.115C143.36 164.996 142.477 154.839 121.334 148.993C121.226 148.966 121.124 148.918 121.035 148.851C120.945 148.785 120.87 148.701 120.814 148.604C120.757 148.508 120.721 148.401 120.706 148.291C120.692 148.18 120.7 148.067 120.729 147.96C120.759 147.852 120.81 147.752 120.88 147.664C120.949 147.577 121.035 147.504 121.133 147.45C121.231 147.397 121.338 147.363 121.449 147.352C121.56 147.341 121.672 147.352 121.779 147.385C144.011 153.537 145.022 164.879 145.545 170.97C145.6 171.599 145.656 172.2 145.722 172.706V172.823V172.94C144.544 181.039 140.72 187.369 134.351 191.752C126.031 197.448 114.709 199.033 104.889 199.033Z" fill="#BBEC69"/>
<path d="M126.262 92.9999L125.773 92.8073C116.965 89.3001 113.467 81.9401 114.054 78.9763C114.106 78.6773 114.24 78.399 114.44 78.1729C114.641 77.9468 114.9 77.7819 115.189 77.697C117.249 77.0499 121.575 79.6728 124.295 82.0636C126.536 77.124 128.699 74.6887 130.622 75.0345C132.007 75.2914 132.868 76.9363 132.985 79.5543C133.225 84.8989 126.864 92.2985 126.595 92.6146L126.262 92.9999ZM115.943 79.0702C115.838 79.0667 115.734 79.08 115.634 79.1097C115.546 79.1344 115.522 79.1591 115.502 79.2628C115.16 80.9868 117.65 87.7491 125.836 91.2315C127.128 89.6459 131.708 83.7184 131.527 79.6135C131.439 77.5982 130.862 76.5806 130.367 76.4868C129.643 76.3484 127.75 77.7019 125.239 83.5899L124.819 84.5779L124.055 83.8369C121.32 81.1695 117.435 79.0702 115.943 79.0702V79.0702Z" fill="#BBEC69"/>
<path d="M160.194 97.005L159.81 95.9004C159.42 94.7657 150.328 68.0349 158.188 58.9723C160.564 56.2309 164.206 55.3824 169.006 56.4619C174.363 57.6518 177.605 60.1522 178.64 63.8927C181.893 75.6314 161.885 95.3732 161.022 96.2067L160.194 97.005ZM165.29 57.5112C162.722 57.5112 160.717 58.3346 159.292 59.9714C152.886 67.3771 159.179 89.0369 160.835 94.2586C164.625 90.3474 179.877 73.8691 177.221 64.2893C176.344 61.1212 173.471 58.9823 168.69 57.9179C167.574 57.6595 166.434 57.5232 165.29 57.5112V57.5112Z" fill="#BBEC69"/>
<path d="M166.995 73.7487C166.02 73.7487 165.068 73.4542 164.257 72.9025C163.447 72.3508 162.815 71.5667 162.442 70.6492C162.069 69.7318 161.971 68.7223 162.162 67.7483C162.352 66.7744 162.821 65.8798 163.51 65.1776C164.2 64.4754 165.078 63.9972 166.034 63.8035C166.99 63.6098 167.98 63.7092 168.881 64.0892C169.781 64.4692 170.551 65.1128 171.093 65.9384C171.634 66.7641 171.923 67.7348 171.923 68.7279C171.923 70.0595 171.404 71.3365 170.48 72.2781C169.556 73.2197 168.302 73.7487 166.995 73.7487ZM166.995 65.2534C166.313 65.2534 165.646 65.4596 165.078 65.8458C164.511 66.2319 164.069 66.7808 163.808 67.4231C163.547 68.0653 163.479 68.7719 163.612 69.4537C163.745 70.1354 164.073 70.7617 164.556 71.2532C165.038 71.7447 165.653 72.0795 166.322 72.2151C166.991 72.3507 167.685 72.2811 168.315 72.0151C168.946 71.749 169.484 71.2986 169.863 70.7206C170.242 70.1426 170.445 69.4631 170.445 68.768C170.445 67.8359 170.081 66.942 169.434 66.2828C168.787 65.6237 167.91 65.2534 166.995 65.2534V65.2534Z" fill="#BBEC69"/>
<path d="M206.214 78.9875C204.201 79.0679 202.193 78.7234 200.325 77.9767C199.806 77.7601 199.335 77.4422 198.942 77.0418C198.709 76.8011 198.528 76.5152 198.411 76.2022C198.295 75.8891 198.244 75.5556 198.264 75.2224C198.334 74.7617 198.477 74.3149 198.687 73.8983C198.834 73.6164 198.939 73.3152 198.999 73.0038C198.958 72.8926 198.641 72.7308 198.488 72.65L198.223 72.5135L197.713 72.2457C196.908 71.9365 196.214 71.3984 195.717 70.6992C195.054 69.6884 194.901 68.0257 195.937 67.02C196.24 66.7452 196.584 66.5185 196.957 66.3479L197.146 66.2518C197.375 66.1504 197.574 65.9919 197.723 65.7919C197.723 65.7919 197.764 65.706 197.753 65.6757C197.662 65.4078 196.85 65.0339 196.462 64.8519C196.174 64.7274 195.896 64.5804 195.631 64.4122C195.173 64.0987 194.79 63.6887 194.51 63.2117C194.231 62.7347 194.061 62.2024 194.013 61.6528C193.901 60.3388 194.523 59.3736 195.223 58.5296C195.532 58.1896 195.874 57.8799 196.243 57.6047C195.754 57.2732 195.369 56.8127 195.131 56.2755C194.754 55.2977 194.704 54.2261 194.988 53.218C195.162 52.3271 195.571 51.4974 196.172 50.8124C198.029 48.8363 202.56 49.1901 205.561 49.4225L206.071 49.463C206.321 44.6618 206.933 35.1707 207.836 33.8264C207.98 33.5478 208.207 33.3201 208.487 33.1744C208.766 33.0287 209.085 32.9723 209.398 33.0128C210.709 33.22 211.817 35.3375 213.204 40.3156L213.327 40.735C214.592 44.6163 216.485 47.5678 218.94 49.5135C220.098 49.6651 226.257 47.1685 231.396 44.7275C231.504 44.6717 231.625 44.6426 231.748 44.6426C231.87 44.6426 231.991 44.6717 232.1 44.7275C232.207 44.786 232.299 44.8694 232.366 44.9707C232.434 45.072 232.475 45.188 232.488 45.3087C232.488 45.4149 233.687 56.2503 232.488 72.2457C232.426 73.0644 231.778 74.1156 224.834 76.2382L224.594 76.309C221.761 77.1618 218.858 77.7689 215.919 78.1233L215.062 78.2345C212.817 78.5276 210.495 78.8308 208.178 78.9319C207.495 78.9673 206.857 78.9875 206.214 78.9875ZM201.81 50.7466C199.907 50.7466 198.049 50.969 197.218 51.8332C196.801 52.3267 196.522 52.9188 196.406 53.5516C196.197 54.2433 196.215 54.983 196.457 55.664C196.593 55.9201 196.784 56.1434 197.017 56.3181C197.25 56.4928 197.519 56.6146 197.804 56.6748C197.938 56.7144 198.058 56.7892 198.153 56.8912C198.247 56.9933 198.311 57.1187 198.339 57.2541C198.367 57.3895 198.357 57.5298 198.31 57.6601C198.264 57.7904 198.182 57.9058 198.075 57.9939L197.708 58.287C197.23 58.6442 196.776 59.0325 196.35 59.4494C195.748 60.1822 195.411 60.7532 195.478 61.4962C195.509 61.8221 195.611 62.1376 195.777 62.421C195.942 62.7044 196.167 62.9492 196.437 63.1387C196.635 63.253 196.839 63.3559 197.049 63.4469C197.845 63.8209 198.835 64.2808 199.141 65.1501C199.213 65.3618 199.241 65.586 199.221 65.8086C199.202 66.0311 199.137 66.2474 199.029 66.4439C198.75 66.9315 198.323 67.3204 197.81 67.5557L197.605 67.6669C197.37 67.7686 197.152 67.9049 196.957 68.0712C196.519 68.4957 196.616 69.3245 196.957 69.8552C197.311 70.316 197.791 70.6667 198.34 70.866C198.529 70.962 198.723 71.053 198.917 71.1591L199.141 71.2754C199.652 71.5382 200.54 71.9728 200.509 73.029C200.456 73.5371 200.307 74.0308 200.07 74.4845C199.936 74.7545 199.835 75.0396 199.769 75.3336C199.769 75.4568 199.794 75.5788 199.842 75.6925C199.89 75.8061 199.961 75.9092 200.05 75.9956C200.303 76.247 200.605 76.4447 200.938 76.5768C203.065 77.537 205.709 77.5118 208.02 77.4157C210.332 77.3197 212.556 77.0216 214.771 76.7335L215.628 76.6223C218.477 76.2779 221.291 75.6895 224.037 74.8636L224.282 74.7877C229.778 73.1149 230.722 72.2608 230.885 72.0638C231.56 63.5691 231.593 55.0363 230.982 46.5368C229.834 47.0422 227.839 47.9721 225.798 48.8211C219.608 51.3885 218.542 51.1762 217.981 50.7416C215.235 48.6038 213.148 45.3896 211.771 41.1848C211.771 41.1039 211.699 40.9372 211.633 40.6794C210.235 35.6812 209.383 34.6957 209.107 34.5036C209.074 34.5422 209.043 34.5827 209.015 34.6249C208.474 35.5296 207.811 43.3529 207.484 50.2564C207.474 50.4518 207.389 50.6361 207.247 50.7721C207.105 50.9081 206.916 50.9857 206.719 50.9893C206.306 50.964 205.867 50.9337 205.387 50.8932C204.372 50.8477 203.081 50.7466 201.81 50.7466Z" fill="#BBEC69"/>
</svg>
