<svg width="344" height="363" viewBox="0 0 344 363" fill="none" xmlns="http://www.w3.org/2000/svg">
<path d="M124.321 273.149C124.321 273.149 141.695 306.807 155.578 303.657C169.462 300.507 191.836 297.861 201.422 212.125L184.652 233.627C184.652 233.627 167.838 252.499 124.321 273.149Z" fill="#282D36"/>
<path d="M115.778 140.979C115.778 140.979 142.503 121.957 161.546 122.779C165.67 113.124 169.485 106.198 185.091 98.8273C180.86 90.3185 169.915 76.2176 158.335 76.6622C146.756 77.1069 124.374 90.4768 115.778 140.979Z" fill="#282D36"/>
<path d="M213.666 183.403C213.412 183.404 213.165 183.32 212.965 183.164C212.764 183.008 212.622 182.79 212.561 182.544C212.5 182.298 212.524 182.039 212.628 181.808C212.733 181.577 212.912 181.387 213.137 181.27C213.704 180.976 269.843 151.531 315.452 103.643C315.661 103.435 315.944 103.317 316.239 103.314C316.534 103.311 316.819 103.423 317.033 103.627C317.247 103.83 317.372 104.109 317.383 104.403C317.394 104.698 317.289 104.985 317.091 105.203C271.217 153.355 214.754 182.966 214.187 183.26C214.028 183.351 213.849 183.4 213.666 183.403Z" fill="#BBEC69"/>
<path d="M202.343 212.592C202.103 212.593 201.868 212.518 201.673 212.378C201.478 212.237 201.334 212.038 201.259 211.81C201.185 211.581 201.186 211.336 201.261 211.108C201.337 210.88 201.483 210.682 201.678 210.542C201.829 210.429 217.481 198.891 222.655 176.356C222.722 176.063 222.903 175.809 223.158 175.65C223.413 175.49 223.721 175.438 224.014 175.505C224.308 175.572 224.563 175.752 224.723 176.007C224.883 176.261 224.935 176.568 224.868 176.861C219.49 200.225 203.672 211.891 203 212.374C202.811 212.517 202.58 212.594 202.343 212.592Z" fill="#BBEC69"/>
<path d="M250.467 125.492C250.319 125.493 250.171 125.464 250.033 125.407C249.896 125.35 249.771 125.266 249.667 125.16C249.561 125.056 249.477 124.931 249.419 124.794C249.362 124.657 249.332 124.51 249.332 124.361C249.332 124.213 249.362 124.066 249.419 123.928C249.477 123.791 249.561 123.667 249.667 123.562C249.969 123.261 280.705 93.4161 326.805 99.3398C327.105 99.3778 327.378 99.5333 327.564 99.7722C327.75 100.011 327.832 100.314 327.794 100.614C327.756 100.913 327.6 101.186 327.361 101.371C327.122 101.556 326.818 101.639 326.518 101.601C281.506 95.8202 251.555 124.889 251.261 125.183C251.047 125.385 250.762 125.496 250.467 125.492Z" fill="#BBEC69"/>
<path d="M204.05 139.208C203.813 139.216 203.58 139.15 203.383 139.019C203.186 138.887 203.035 138.698 202.952 138.476C202.868 138.255 202.857 138.013 202.918 137.785C202.98 137.557 203.111 137.353 203.295 137.204C203.514 137.023 208.749 132.772 218.402 128.974C227.285 125.484 241.751 121.761 260.182 123.841C260.482 123.875 260.757 124.027 260.945 124.263C261.134 124.499 261.22 124.8 261.186 125.1C261.152 125.4 261 125.674 260.763 125.862C260.527 126.05 260.225 126.136 259.925 126.102C242.007 124.082 227.958 127.685 219.331 131.061C209.972 134.724 204.783 138.922 204.73 138.967C204.536 139.119 204.297 139.204 204.05 139.208Z" fill="#BBEC69"/>
<path d="M220.517 128.921C220.342 128.923 220.168 128.884 220.011 128.807C219.853 128.729 219.716 128.616 219.611 128.476C219.43 128.237 219.351 127.936 219.392 127.64C219.433 127.343 219.591 127.075 219.83 126.894C220.117 126.675 248.383 105.233 262.002 86.814C262.09 86.6942 262.201 86.593 262.329 86.5161C262.456 86.4392 262.598 86.388 262.745 86.3656C262.892 86.3432 263.043 86.35 263.187 86.3856C263.332 86.4211 263.468 86.4847 263.588 86.5728C263.708 86.6609 263.81 86.7717 263.887 86.8989C263.964 87.0261 264.015 87.1673 264.038 87.3142C264.06 87.4612 264.053 87.6111 264.018 87.7555C263.982 87.8998 263.918 88.0358 263.83 88.1555C250.014 106.839 221.484 128.476 221.197 128.695C221 128.841 220.762 128.92 220.517 128.921Z" fill="#BBEC69"/>
<path d="M210.645 96.7698C210.398 96.7695 210.158 96.6887 209.961 96.5398C209.764 96.3909 209.622 96.1819 209.555 95.9448C209.488 95.7076 209.501 95.4552 209.592 95.2259C209.682 94.9967 209.845 94.8031 210.055 94.6747C210.342 94.5013 238.85 77.431 266.428 76.6622C266.577 76.6578 266.725 76.6826 266.865 76.7353C267.004 76.788 267.131 76.8675 267.24 76.9694C267.348 77.0712 267.435 77.1933 267.496 77.3288C267.557 77.4642 267.591 77.6104 267.595 77.7588C267.6 77.9073 267.575 78.0551 267.522 78.194C267.469 78.3329 267.39 78.46 267.288 78.5681C267.186 78.6762 267.063 78.7632 266.927 78.8242C266.792 78.8851 266.645 78.9187 266.496 78.9232C239.522 79.6769 211.513 96.4382 211.234 96.604C211.057 96.7137 210.853 96.7712 210.645 96.7698Z" fill="#BBEC69"/>
<path d="M212.767 132.365C210.779 132.351 208.837 131.762 207.177 130.669C207.043 130.591 206.927 130.486 206.836 130.361C206.744 130.235 206.679 130.092 206.645 129.941C206.611 129.79 206.609 129.633 206.638 129.481C206.668 129.329 206.728 129.184 206.816 129.056C206.904 128.928 207.017 128.82 207.149 128.737C207.28 128.655 207.427 128.6 207.581 128.577C207.735 128.554 207.891 128.562 208.042 128.602C208.192 128.642 208.332 128.712 208.454 128.808C208.666 128.944 213.507 132.139 217.564 127.994L217.7 127.851C219.098 126.33 219.874 124.34 219.872 122.276C219.871 120.212 219.093 118.223 217.692 116.704L213.538 111.836C213.343 111.607 213.248 111.31 213.273 111.011C213.298 110.712 213.44 110.435 213.67 110.242C213.899 110.048 214.196 109.953 214.496 109.977C214.796 110.002 215.073 110.145 215.267 110.373L219.392 115.212C221.169 117.158 222.148 119.699 222.135 122.332C222.123 124.965 221.119 127.497 219.324 129.426L219.165 129.592C218.347 130.468 217.356 131.166 216.255 131.643C215.155 132.12 213.967 132.366 212.767 132.365V132.365Z" fill="#BBEC69"/>
<path d="M200.991 177.14C200.857 177.14 200.724 177.117 200.598 177.072C200.317 176.969 200.089 176.758 199.963 176.487C199.837 176.216 199.823 175.906 199.926 175.625C201.15 172.234 201.671 170.063 201.678 170.041C208.824 137.422 196.882 123.577 196.753 123.442C196.553 123.218 196.45 122.924 196.467 122.624C196.484 122.325 196.62 122.044 196.844 121.844C197.068 121.644 197.363 121.541 197.663 121.558C197.964 121.575 198.245 121.711 198.445 121.935C198.974 122.515 211.287 136.653 203.884 170.538C203.382 172.522 202.772 174.477 202.056 176.394C201.976 176.612 201.831 176.8 201.641 176.933C201.45 177.067 201.224 177.139 200.991 177.14Z" fill="#BBEC69"/>
<path d="M162.022 122.884C161.857 122.885 161.694 122.849 161.546 122.779C161.409 122.717 161.287 122.629 161.185 122.519C161.083 122.41 161.004 122.281 160.952 122.141C160.901 122 160.878 121.851 160.886 121.702C160.893 121.552 160.93 121.406 160.994 121.271C162.958 117.021 166.425 110.954 171.781 106.198C175.4 103.15 179.35 100.516 183.557 98.345C183.689 98.2762 183.833 98.234 183.982 98.2209C184.13 98.2077 184.279 98.2238 184.421 98.2682C184.563 98.3127 184.695 98.3846 184.809 98.4799C184.924 98.5752 185.018 98.6919 185.087 98.8236C185.156 98.9552 185.198 99.0991 185.211 99.247C185.224 99.395 185.208 99.544 185.164 99.6858C185.119 99.8275 185.047 99.9591 184.952 100.073C184.856 100.187 184.739 100.281 184.607 100.35C180.566 102.442 176.767 104.969 173.277 107.886C168.208 112.408 164.907 118.166 163.034 122.206C162.948 122.404 162.807 122.573 162.628 122.694C162.448 122.814 162.238 122.88 162.022 122.884V122.884Z" fill="#455DD1"/>
<path d="M201.467 125.605C200.793 125.61 200.119 125.57 199.45 125.484C199.301 125.464 199.158 125.415 199.028 125.339C198.898 125.264 198.785 125.163 198.694 125.044C198.603 124.925 198.537 124.789 198.499 124.644C198.461 124.499 198.451 124.348 198.472 124.199C198.492 124.051 198.542 123.908 198.617 123.778C198.693 123.649 198.794 123.536 198.913 123.445C199.033 123.355 199.169 123.288 199.314 123.25C199.46 123.212 199.611 123.203 199.76 123.223C199.813 123.223 204.526 123.841 206.928 121.882C207.322 121.561 207.644 121.161 207.873 120.707C208.102 120.254 208.233 119.758 208.258 119.252C206.112 119.764 203.234 119.817 201.55 118.392C201.008 117.909 200.601 117.294 200.368 116.608C200.135 115.921 200.084 115.185 200.22 114.473C200.25 113.809 200.44 113.161 200.774 112.585C201.108 112.009 201.576 111.522 202.139 111.165C204.096 110.019 206.671 110.924 207.132 111.112C207.593 111.3 209.678 112.144 210.35 115.559C213.266 112.544 213.976 105.867 213.228 102.241C213.072 101.259 212.718 100.318 212.185 99.4771C211.652 98.6361 210.953 97.9123 210.131 97.3502C208.919 96.7294 207.592 96.3651 206.233 96.28C199.289 95.397 192.238 96.5822 185.967 99.6865C185.699 99.8001 185.397 99.8063 185.124 99.7038C184.852 99.6014 184.629 99.3982 184.503 99.1364C184.377 98.8745 184.356 98.5742 184.446 98.2978C184.536 98.0213 184.729 97.7899 184.985 97.6516C191.648 94.3782 199.132 93.1408 206.498 94.0943C208.174 94.2102 209.806 94.6803 211.287 95.4735C212.383 96.1929 213.319 97.1306 214.035 98.2278C214.751 99.325 215.233 100.558 215.449 101.85C215.992 105.069 215.829 108.368 214.973 111.519C214.074 114.775 212.571 117.104 210.569 118.37C210.569 118.686 210.554 119.018 210.524 119.365C210.492 120.2 210.282 121.019 209.908 121.768C209.534 122.516 209.005 123.177 208.356 123.706C206.362 125.288 203.416 125.605 201.467 125.605ZM204.42 112.883C204.027 112.869 203.636 112.957 203.287 113.139C203.121 113.237 202.607 113.539 202.471 114.752C202.313 116.094 202.842 116.538 203.015 116.689C204.02 117.541 206.339 117.443 208.107 116.975L208.258 116.938C207.971 113.78 206.505 113.305 206.482 113.305L206.324 113.252C205.715 113.023 205.071 112.898 204.42 112.883V112.883Z" fill="#BBEC69"/>
<path d="M106.608 239.649C106.412 239.648 106.22 239.599 106.049 239.505C105.796 239.358 105.61 239.119 105.529 238.838C105.449 238.557 105.481 238.256 105.618 237.998C109.916 230.552 116.44 224.634 124.276 221.071C124.554 220.958 124.866 220.96 125.143 221.077C125.42 221.193 125.639 221.415 125.753 221.693C125.866 221.971 125.864 222.282 125.747 222.558C125.63 222.834 125.408 223.053 125.129 223.166C117.795 226.575 111.679 232.136 107.597 239.106C107.494 239.274 107.348 239.413 107.175 239.508C107.001 239.603 106.806 239.652 106.608 239.649V239.649Z" fill="#455DD1"/>
<path d="M55.6584 301.23C55.3746 301.229 55.1013 301.123 54.8918 300.932C54.6823 300.741 54.5516 300.479 54.5253 300.198C52.2592 275.191 55.5148 257.676 65.0023 243.402C65.0846 243.278 65.1905 243.172 65.3141 243.089C65.4376 243.006 65.5762 242.948 65.7221 242.919C65.868 242.889 66.0183 242.889 66.1644 242.918C66.3104 242.946 66.4494 243.003 66.5734 243.085C66.6974 243.167 66.804 243.273 66.887 243.396C66.9701 243.52 67.028 243.658 67.0574 243.804C67.0869 243.949 67.0873 244.099 67.0587 244.245C67.0301 244.39 66.973 244.529 66.8907 244.653C57.7054 258.467 54.5933 275.553 56.7839 299.994C56.7984 300.142 56.7832 300.292 56.7393 300.434C56.6954 300.576 56.6235 300.709 56.5279 300.823C56.4323 300.937 56.3149 301.031 56.1825 301.1C56.05 301.169 55.9053 301.21 55.7566 301.223L55.6584 301.23Z" fill="#455DD1"/>
<path d="M84.1735 224.899C83.8912 224.89 83.6223 224.778 83.4181 224.583C83.2059 224.371 83.0867 224.084 83.0867 223.784C83.0867 223.484 83.2059 223.197 83.4181 222.985C98.8654 206.804 105.014 203.33 105.263 203.187C105.525 203.048 105.831 203.017 106.115 203.101C106.399 203.185 106.639 203.377 106.784 203.635C106.928 203.893 106.965 204.198 106.887 204.483C106.809 204.768 106.622 205.012 106.366 205.161V205.161C106.306 205.199 100.172 208.718 85.0648 224.545C84.9509 224.665 84.8122 224.759 84.6583 224.82C84.5043 224.882 84.3389 224.909 84.1735 224.899V224.899Z" fill="#455DD1"/>
<path d="M201.195 210.912C201.039 210.911 200.886 210.88 200.742 210.821C200.603 210.762 200.478 210.675 200.374 210.566C200.269 210.458 200.188 210.33 200.133 210.189C200.079 210.049 200.054 209.899 200.058 209.749C200.063 209.599 200.098 209.451 200.16 209.314C203.771 201.091 203.937 195.748 203.937 195.748C203.939 195.599 203.971 195.452 204.031 195.316C204.091 195.18 204.178 195.057 204.286 194.955C204.395 194.853 204.523 194.774 204.663 194.722C204.802 194.671 204.951 194.648 205.1 194.655C205.401 194.665 205.687 194.793 205.893 195.012C206.1 195.231 206.211 195.523 206.203 195.823C206.203 196.057 205.976 201.626 202.2 210.248C202.111 210.441 201.97 210.606 201.792 210.723C201.615 210.84 201.408 210.906 201.195 210.912Z" fill="#BBEC69"/>
<path d="M117.228 254.021C117.05 254.022 116.875 253.981 116.716 253.901C116.557 253.821 116.419 253.704 116.314 253.561C116.012 253.147 85.6539 212.434 52.3573 223.166C52.2155 223.212 52.066 223.229 51.9175 223.217C51.769 223.205 51.6243 223.163 51.4918 223.096C51.3592 223.028 51.2413 222.934 51.1449 222.821C51.0485 222.708 50.9753 222.577 50.9297 222.435C50.8841 222.293 50.8668 222.144 50.8789 221.996C50.8911 221.848 50.9323 221.704 51.0004 221.571C51.0684 221.439 51.1619 221.321 51.2755 221.225C51.3891 221.129 51.5206 221.056 51.6624 221.011C66.1277 216.353 82.2321 220.295 98.2383 232.421C105.696 238.143 112.385 244.797 118.142 252.22C118.319 252.462 118.393 252.764 118.347 253.061C118.302 253.357 118.142 253.623 117.901 253.802C117.706 253.946 117.47 254.022 117.228 254.021Z" fill="#455DD1"/>
<path d="M64.3526 312.053C64.1405 312.052 63.9326 311.993 63.7525 311.881C63.5724 311.769 63.427 311.609 63.3329 311.42C63.0232 310.787 56.0134 295.593 83.3124 266.388C83.4041 266.256 83.5233 266.144 83.6618 266.061C83.8003 265.978 83.955 265.926 84.1155 265.907C84.276 265.889 84.4386 265.905 84.5924 265.954C84.7461 266.004 84.8875 266.086 85.0071 266.194C85.1266 266.302 85.2215 266.435 85.2855 266.583C85.3494 266.731 85.3808 266.891 85.3777 267.052C85.3746 267.213 85.337 267.372 85.2674 267.518C85.1978 267.663 85.0978 267.792 84.9742 267.896C58.7252 295.962 65.2969 310.251 65.3346 310.387C65.4656 310.655 65.485 310.964 65.3888 311.246C65.2926 311.529 65.0885 311.762 64.821 311.894C64.6792 311.983 64.5189 312.037 64.3526 312.053Z" fill="#455DD1"/>
<path d="M155.291 304.531C152.563 304.538 149.863 303.984 147.36 302.903C142.314 300.748 137.774 296.527 133.476 290.001C132.834 289.021 132.169 288.034 131.505 287.031C128.37 282.336 125.122 277.49 122.863 272.568L124.925 271.626C127.109 276.382 130.304 281.16 133.386 285.773L135.372 288.787C139.413 294.93 143.628 298.879 148.251 300.846C153.871 303.242 159.582 302.722 167.354 299.09C168.722 298.374 169.992 297.485 171.131 296.444C183.867 285.69 192.123 266.946 196.391 239.166C201.506 205.816 200.995 171.848 194.88 138.666C192.055 123.276 188.89 108.384 181.329 95.3078C177.076 87.9671 167.906 76.0669 154.196 78.9383C139.217 82.0735 129.858 99.061 124.646 112.77C121.067 122.378 118.433 132.31 116.783 142.427L114.517 142.11C116.188 131.827 118.857 121.731 122.486 111.964C130.258 91.5319 141.053 79.3377 153.705 76.6848C168.812 73.527 178.715 86.2639 183.27 94.1396C191.013 107.525 194.223 122.628 197.086 138.221C203.246 171.652 203.757 205.876 198.596 239.475C194.246 267.835 185.755 287.031 172.566 298.155C171.283 299.328 169.847 300.324 168.299 301.117C164.643 302.858 160.178 304.531 155.291 304.531Z" fill="#323740"/>
<path d="M139.021 224.477C135.365 224.458 131.714 224.206 128.091 223.724L127.894 223.679C116.904 220.28 98.4348 210.527 98.0345 183.486C97.755 162.949 106.23 146.866 123.944 134.325C136.543 125.401 152.942 121.075 171.381 121.822C171.681 121.835 171.964 121.966 172.167 122.187C172.371 122.408 172.478 122.701 172.465 123.001C172.452 123.301 172.32 123.583 172.098 123.786C171.876 123.989 171.583 124.095 171.282 124.082C153.365 123.329 137.442 127.534 125.25 136.141C108.194 148.2 100.029 163.687 100.323 183.426C100.671 208.967 118.082 218.215 128.498 221.463C173.284 227.1 189.532 196.117 197.35 181.217L197.562 180.81C197.702 180.545 197.942 180.345 198.23 180.256C198.517 180.167 198.829 180.196 199.095 180.336C199.361 180.476 199.561 180.715 199.651 181.002C199.74 181.289 199.711 181.6 199.571 181.866L199.352 182.265C191.942 196.404 177.235 224.477 139.021 224.477Z" fill="#455DD1"/>
<path d="M103.216 279.314C101.206 279.361 99.2054 279.01 97.3317 278.28C95.4581 277.55 93.7482 276.457 92.3013 275.063C82.3531 265.627 73.1754 253.84 65.0098 240.018C63.4243 237.123 61.2898 234.563 58.7252 232.481C56.7159 230.974 53.7851 230.1 49.7816 229.851C49.4811 229.833 49.2001 229.697 49.0004 229.472C48.8006 229.247 48.6985 228.953 48.7166 228.653C48.7346 228.353 48.8713 228.072 49.0965 227.873C49.3217 227.674 49.6171 227.572 49.9176 227.59C54.4498 227.869 57.6828 228.849 60.0924 230.673C62.8948 232.926 65.2297 235.704 66.9662 238.85C75.0185 252.483 84.0678 264.112 93.8649 273.397C97.6417 276.992 102.431 277.919 108.897 276.246C111.73 275.45 114.506 274.463 117.206 273.292C119.223 272.47 121.315 271.619 123.445 270.933C172.431 251.097 191.624 226.995 199.329 210.309C199.594 209.743 199.193 213.142 199.14 214.28C199.057 215.931 198.989 215.901 198.989 215.901C191.103 232.964 173.956 252.928 124.261 273.043H124.185C122.116 273.714 120.053 274.551 118.059 275.365C115.265 276.561 112.393 277.568 109.463 278.379C107.428 278.947 105.329 279.261 103.216 279.314V279.314Z" fill="#455DD1"/>
<path d="M273.257 41.1498L272.381 40.8785C250.143 34.0202 246.698 33.5077 246.593 33.4926L245.611 33.357V32.3697C245.611 32.023 245.83 23.778 265.107 14.3497C279.534 7.29543 279.232 1.92184 279.217 1.86908L278.869 0L306.705 9.04391L306.886 9.57148C307.301 10.7472 308.246 17.1608 286.03 27.6065C285.275 28.1341 284.52 28.6014 283.847 29.0385C280.448 31.209 277.993 32.8068 273.71 40.3811L273.257 41.1498ZM248.073 31.4954C250.339 32.0079 256.382 33.5981 272.177 38.4517C276.475 31.0282 279.202 29.2872 282.616 27.1016C283.303 26.6645 284.029 26.1972 284.814 25.6621L284.973 25.5717C302.089 17.5301 304.408 12.3299 304.695 10.7396L281.324 3.20305C280.705 5.71274 277.887 10.6492 266.096 16.4072C251.978 23.2504 248.791 29.2797 248.073 31.4954Z" fill="#BBEC69"/>
<path d="M323.678 35.015L322.809 34.7437C310.421 30.9227 308.412 30.6061 308.329 30.5911L307.362 30.4479V29.4681C307.362 28.9481 307.679 24.1925 318.639 18.8566C326.389 15.0883 326.329 12.3073 326.329 12.2771L325.657 10.1744L327.802 11.0637L342.721 15.8947L342.902 16.4223C343.272 17.4548 343.476 21.2758 330.914 27.192C330.484 27.486 330.083 27.7422 329.698 27.9834C327.772 29.2194 326.503 30.0333 324.146 34.2162L323.678 35.015ZM309.9 28.6315C311.516 29.031 315.044 29.9881 322.613 32.3169C324.977 28.3075 326.533 27.3202 328.467 26.0842C328.844 25.8355 329.222 25.5792 329.69 25.2777L329.849 25.1873C338.158 21.2909 340.114 18.6531 340.575 17.5829L328.331 13.6186C327.719 15.2692 325.717 17.907 319.621 20.8914C312.702 24.2678 310.602 27.2222 309.9 28.6315Z" fill="#BBEC69"/>
<path d="M301.409 70.2184L301.092 69.9622C300.089 69.0937 299.285 68.0205 298.734 66.8153C298.183 65.61 297.897 64.3006 297.897 62.9758L297.942 61.8453C298.063 58.6121 298.275 53.1857 297.64 51.6181C297.353 50.9022 296.228 49.0557 291.93 44.8352L289.966 42.8983H309.545C311.977 43.3203 316.57 45.5587 316.57 51.0077V59.7426V59.8858C316.532 60.0365 315.656 63.7445 319.871 68.176L321.661 70.0677L301.409 70.2184ZM295.427 45.1065C297.814 47.6087 299.204 49.4702 299.748 50.7514C300.503 52.613 300.397 56.9013 300.201 61.9056L300.163 63.0285C300.17 63.9419 300.357 64.845 300.715 65.6857C301.073 66.5264 301.594 67.2883 302.248 67.9273L316.6 67.8143C313.654 63.6918 314.122 60.2777 314.288 59.426V51.0001C314.288 46.4028 309.922 45.2874 309.22 45.1367L295.427 45.1065Z" fill="#BBEC69"/>
<path d="M17.8447 361.176C16.751 361.168 15.685 360.832 14.7854 360.211C10.8651 357.604 3.40205 351.424 3.09235 351.168C1.49853 349.886 -0.601392 346.231 2.91106 341.649C6.6879 336.727 26.6749 316.635 27.5209 315.783C28.9561 314.276 32.6045 312.015 36.0415 314.178L48.0216 322.385C49.1477 322.954 50.0669 323.861 50.6503 324.978C50.9462 325.654 51.0323 326.403 50.8977 327.128C50.7631 327.854 50.4138 328.522 49.8949 329.048C47.4626 331.994 25.1566 356.308 23.7819 357.8C22.7394 359.239 20.4582 361.176 17.8447 361.176ZM32.952 315.527C30.9352 315.527 29.228 317.26 29.1752 317.358C28.9561 317.584 8.42524 338.22 4.7466 342.983C1.77045 346.864 4.27072 349.14 4.56531 349.381C4.64085 349.449 12.2549 355.75 16.0771 358.29C19.0457 360.272 21.969 356.534 22.12 356.375L22.1805 356.3C22.4222 356.036 45.831 330.525 48.2557 327.593C48.9356 326.772 48.8374 326.252 48.6712 325.89C48.2825 325.24 47.7131 324.716 47.0321 324.382L46.8885 324.3L34.8706 316.062C34.3013 315.698 33.6358 315.511 32.9596 315.527H32.952Z" fill="#455DD1"/>
<path d="M22.6715 363C20.3376 362.953 18.0727 362.202 16.1754 360.845L17.4368 358.968C22.9359 362.653 26.8865 359.533 27.2566 359.217C28.2008 358.267 48.8525 337.36 51.7531 333.336C52.1439 332.872 52.4238 332.326 52.5716 331.738C52.7195 331.151 52.7315 330.537 52.6067 329.944C51.9495 327.231 48.3238 325.362 48.286 325.34L49.3133 323.327C49.5021 323.418 53.8984 325.679 54.8048 329.409C55.0133 330.323 55.0122 331.272 54.8016 332.186C54.591 333.099 54.1764 333.954 53.5887 334.685C50.5672 338.898 29.7191 359.97 28.8353 360.86C27.0854 362.253 24.9106 363.009 22.6715 363Z" fill="#455DD1"/>
<path d="M39.0704 334.934C38.3096 334.903 37.5766 334.64 36.9705 334.18C34.999 332.839 33.1106 331.346 31.2902 329.914L31.1919 329.839C30.2251 329.085 29.2582 328.332 28.2838 327.578C28.1629 327.488 28.0043 327.397 27.8306 327.284C26.9619 326.741 25.3379 325.732 25.7533 324.126C25.776 324.07 25.8013 324.015 25.8288 323.96V323.96C26.1209 323.36 26.5442 322.832 27.0676 322.415C27.1961 322.302 27.3169 322.189 27.4076 322.091L31.1315 318.067C31.5647 317.649 32.1339 317.4 32.7356 317.365C33.3373 317.331 33.9314 317.513 34.4098 317.878C35.6335 318.632 43.7084 324.835 44.6299 325.536C45.6648 326.335 46.3824 327.759 45.5213 329.01C44.8641 329.952 41.6462 333.419 41.0948 334.007C40.8502 334.305 40.5408 334.543 40.19 334.704C39.8392 334.864 39.4563 334.943 39.0704 334.934V334.934ZM28.0043 324.646C28.3196 324.932 28.6639 325.185 29.0316 325.4C29.2733 325.551 29.4848 325.686 29.651 325.807C30.6405 326.561 31.615 327.314 32.5894 328.068L32.6876 328.143C34.4854 329.56 36.3436 331.022 38.2471 332.319C39.0024 332.831 39.2744 332.612 39.2744 332.612L39.3801 332.484C40.7625 330.977 43.0814 328.452 43.6026 327.744C43.5077 327.57 43.3794 327.416 43.2249 327.292C39.6672 324.556 34.0623 320.29 33.2088 319.755C33.0749 319.651 32.9099 319.596 32.7405 319.597L29.0543 323.576C28.9334 323.712 28.7672 323.87 28.5935 324.028C28.4198 324.187 28.1478 324.473 28.0043 324.646ZM32.8009 319.567V319.604V319.567Z" fill="#455DD1"/>
<path d="M5.84185 314.999C5.52481 315.014 5.20877 314.954 4.91983 314.823C4.63089 314.692 4.37732 314.494 4.18004 314.246C4.13619 314.193 4.09582 314.138 4.05919 314.08C3.75031 313.491 3.58227 312.838 3.5682 312.173C3.5682 312 3.56819 311.834 3.50777 311.698L2.53335 306.31C2.46186 305.713 2.60588 305.111 2.93955 304.611C3.27321 304.111 3.77464 303.746 4.35378 303.582C5.69078 303.062 15.5181 300.363 16.636 300.062C17.8975 299.715 19.4762 300.002 19.9521 301.441C20.3147 302.534 21.1456 307.184 21.2891 307.975C21.561 308.978 21.1758 310.636 18.9777 311.374C16.7796 312.113 14.3926 312.746 12.1416 313.334H12.0208C10.8273 313.65 9.64135 313.959 8.46298 314.291C8.32701 314.291 8.15327 314.397 7.96443 314.472C7.29346 314.771 6.57495 314.949 5.84185 314.999ZM17.6331 302.187C17.4959 302.187 17.3591 302.203 17.2252 302.232C12.897 303.423 6.10623 305.315 5.13936 305.677L4.72391 305.873L5.69833 311.291C5.7373 311.506 5.76503 311.722 5.78142 311.94C5.80433 312.213 5.84215 312.485 5.89473 312.754C6.31126 312.671 6.7186 312.547 7.11087 312.384C7.37525 312.279 7.61696 312.196 7.80581 312.136C8.99929 311.804 10.2003 311.487 11.3938 311.171H11.5298C13.743 310.591 16.062 309.988 18.2223 309.257C18.7813 309.068 19.1061 308.797 19.0532 308.556L18.9928 308.428C18.6227 306.355 18.0033 303.046 17.7464 302.202L17.6331 302.187Z" fill="#455DD1"/>
<path d="M23.8423 333.321C23.3701 333.31 22.9112 333.164 22.5204 332.899C21.765 332.424 20.3978 331.354 20.0806 331.105C19.8509 330.984 19.6494 330.817 19.4893 330.613C19.3292 330.409 19.2141 330.173 19.1515 329.922C19.1176 329.734 19.1266 329.541 19.1775 329.357C19.2285 329.173 19.3203 329.003 19.4461 328.859L21.2967 326.598C22.3165 325.287 23.2909 325.754 23.6686 326.018L24.4239 326.538C24.9376 326.885 25.4361 327.231 25.8667 327.563L26.0026 327.653C26.3004 327.813 26.5616 328.033 26.7697 328.299C26.9777 328.565 27.1281 328.871 27.2112 329.198C27.2459 329.417 27.2349 329.64 27.179 329.854C27.1231 330.068 27.0235 330.268 26.8864 330.442C26.4332 331.03 25.3757 332.575 25.3757 332.59C25.1955 332.823 24.9629 333.011 24.6965 333.138C24.4301 333.265 24.1375 333.328 23.8423 333.321V333.321ZM21.7877 329.553C22.2938 329.945 23.1927 330.623 23.7139 330.962C23.9631 330.6 24.3937 329.997 24.7412 329.515L24.5146 329.349C24.1067 329.04 23.6459 328.724 23.17 328.4L22.9132 328.226L21.7877 329.553Z" fill="#455DD1"/>
<path d="M29.6737 337.903C29.2042 337.891 28.748 337.744 28.3594 337.481C27.604 337.006 26.2368 335.936 25.9195 335.687C25.6892 335.569 25.4871 335.403 25.3268 335.2C25.1665 334.998 25.0518 334.763 24.9904 334.512C24.9571 334.323 24.9655 334.13 25.0151 333.945C25.0647 333.76 25.1543 333.588 25.2775 333.441L27.1357 331.181C28.1177 329.914 29.0392 330.269 29.5 330.593L30.2554 331.113C30.7615 331.459 31.26 331.806 31.6981 332.138L31.8341 332.228C32.1263 332.386 32.3838 332.601 32.5914 332.86C32.799 333.118 32.9524 333.416 33.0427 333.735C33.0758 333.954 33.0634 334.178 33.0062 334.392C32.949 334.606 32.8483 334.806 32.7103 334.979C32.2646 335.567 31.1996 337.112 31.1996 337.127C31.0241 337.367 30.7946 337.562 30.5295 337.697C30.2644 337.832 29.9713 337.902 29.6737 337.903ZM27.6267 334.135C28.1328 334.527 29.0317 335.205 29.5529 335.544C29.8021 335.19 30.2251 334.58 30.5802 334.105C30.5012 334.054 30.4255 333.999 30.3536 333.939C29.9457 333.63 29.4773 333.313 29.0014 332.989L28.7522 332.816L27.6267 334.135Z" fill="#455DD1"/>
<path d="M35.5127 342.523C35.0422 342.516 34.5844 342.37 34.1984 342.101C33.443 341.626 32.0758 340.594 31.751 340.315C31.5222 340.193 31.3214 340.025 31.1614 339.821C31.0014 339.617 30.8858 339.382 30.8219 339.132C30.7916 338.943 30.8023 338.749 30.8531 338.565C30.9039 338.38 30.9937 338.209 31.1165 338.061L32.9747 335.8C33.9869 334.489 34.9689 334.956 35.339 335.22L36.0943 335.74C36.6004 336.087 37.099 336.426 37.5296 336.758L37.6655 336.856C37.9602 337.011 38.22 337.225 38.4291 337.484C38.6382 337.743 38.7922 338.042 38.8817 338.363C38.9154 338.583 38.9033 338.808 38.8461 339.023C38.7889 339.238 38.6879 339.439 38.5493 339.614C38.1036 340.202 37.0386 341.747 37.0386 341.762C36.8603 341.998 36.6298 342.189 36.3651 342.321C36.1004 342.453 35.8087 342.522 35.5127 342.523ZM33.4657 338.755C33.9718 339.139 34.8707 339.825 35.3843 340.157L36.4116 338.717L36.1774 338.559C35.7771 338.25 35.3088 337.933 34.8329 337.609L34.5836 337.436L33.4657 338.755Z" fill="#455DD1"/>
<path d="M19.295 338.657C18.8229 338.646 18.3639 338.499 17.9731 338.235C17.2178 337.76 15.8505 336.727 15.5333 336.449C15.3045 336.327 15.1037 336.158 14.9437 335.955C14.7837 335.751 14.6681 335.516 14.6042 335.265C14.5703 335.076 14.5791 334.882 14.6301 334.697C14.6811 334.512 14.7729 334.34 14.8988 334.195L16.7494 331.934C17.7692 330.623 18.7436 331.09 19.1213 331.346L19.8767 331.874C20.3903 332.221 20.8888 332.56 21.3194 332.891L21.4554 332.989C21.7509 333.144 22.0113 333.357 22.2205 333.617C22.4297 333.876 22.5833 334.176 22.6715 334.497C22.7035 334.717 22.6905 334.941 22.6334 335.156C22.5762 335.371 22.4762 335.572 22.3391 335.748C21.8859 336.336 20.8284 337.881 20.8284 337.896C20.6502 338.133 20.4187 338.326 20.1524 338.458C19.8861 338.59 19.5924 338.658 19.295 338.657ZM17.248 334.889C17.7541 335.273 18.6454 335.959 19.1666 336.29L20.1939 334.851L19.9597 334.693C19.5518 334.384 19.0911 334.059 18.6152 333.735L18.3584 333.57L17.248 334.889Z" fill="#455DD1"/>
<path d="M25.1339 343.239C24.6624 343.231 24.2033 343.087 23.812 342.825C23.0567 342.342 21.6895 341.317 21.3722 341.031C21.1417 340.911 20.9395 340.744 20.7792 340.54C20.619 340.336 20.5044 340.1 20.4431 339.848C20.4099 339.66 20.4184 339.468 20.468 339.284C20.5176 339.101 20.6071 338.93 20.7301 338.785L22.5883 336.524C23.6081 335.213 24.5825 335.68 24.9526 335.944L25.708 336.464C26.2217 336.81 26.7202 337.149 27.1583 337.481L27.2943 337.579C27.587 337.736 27.845 337.951 28.0526 338.21C28.2603 338.469 28.4134 338.767 28.5029 339.086C28.5381 339.306 28.5275 339.53 28.4716 339.746C28.4157 339.961 28.3157 340.163 28.1781 340.337C27.7248 340.925 26.6673 342.47 26.6673 342.485C26.4891 342.722 26.2574 342.914 25.991 343.045C25.7246 343.176 25.4309 343.243 25.1339 343.239V343.239ZM23.0793 339.471C23.5854 339.863 24.4843 340.541 25.0055 340.873C25.2548 340.518 25.6778 339.915 26.0328 339.433L25.8062 339.275C25.3983 338.966 24.93 338.642 24.4541 338.318L24.2048 338.152L23.0793 339.471Z" fill="#455DD1"/>
<path d="M30.9654 347.867C30.4956 347.855 30.0391 347.709 29.6511 347.444C28.8957 346.97 27.5285 345.937 27.2112 345.658C26.9816 345.537 26.7801 345.37 26.62 345.166C26.4599 344.962 26.3447 344.726 26.2821 344.475C26.2488 344.287 26.2572 344.093 26.3068 343.908C26.3564 343.723 26.446 343.552 26.5692 343.405L28.4274 341.144C29.4471 339.833 30.4215 340.292 30.7917 340.556L31.547 341.076C32.0607 341.43 32.5592 341.769 32.9974 342.101C33.0376 342.135 33.0805 342.165 33.1258 342.191C33.4199 342.348 33.6793 342.562 33.8883 342.821C34.0973 343.08 34.2516 343.379 34.3419 343.699C34.3755 343.918 34.3633 344.141 34.3061 344.355C34.2489 344.569 34.1479 344.769 34.0095 344.942C33.5639 345.53 32.4988 347.075 32.4988 347.09C32.3226 347.331 32.0919 347.527 31.8254 347.662C31.5589 347.797 31.2642 347.867 30.9654 347.867ZM28.9184 344.098C29.4245 344.49 30.3234 345.168 30.8446 345.508C31.0863 345.153 31.5168 344.55 31.8643 344.068L31.6301 343.902C31.2298 343.593 30.7615 343.277 30.2856 342.953L30.0363 342.779L28.9184 344.098Z" fill="#455DD1"/>
<path d="M14.1283 344C13.6584 343.99 13.2016 343.843 12.814 343.578C12.0586 343.103 10.6914 342.071 10.3666 341.785C10.1371 341.665 9.93569 341.499 9.77553 341.296C9.61537 341.094 9.50015 340.859 9.43747 340.609C9.40302 340.42 9.41161 340.226 9.4626 340.04C9.51359 339.855 9.60569 339.684 9.73207 339.539L11.5903 337.278C12.6025 335.959 13.5844 336.426 13.9546 336.69L14.7099 337.21C15.216 337.557 15.7221 337.903 16.1527 338.235L16.2887 338.325C16.5828 338.482 16.8422 338.696 17.0512 338.955C17.2602 339.214 17.4145 339.512 17.5048 339.833C17.5379 340.052 17.5255 340.275 17.4683 340.489C17.4111 340.703 17.3104 340.903 17.1724 341.076C16.7192 341.664 15.6617 343.209 15.6617 343.224C15.4864 343.466 15.2558 343.662 14.9891 343.797C14.7224 343.932 14.4273 344.002 14.1283 344ZM12.0813 340.232C12.5874 340.624 13.4862 341.302 13.9999 341.641C14.2492 341.287 14.6797 340.677 15.0272 340.202L14.793 340.036C14.3851 339.727 13.9244 339.411 13.4485 339.086L13.1992 338.913L12.0813 340.232Z" fill="#455DD1"/>
<path d="M19.9673 348.582C19.4952 348.572 19.0362 348.425 18.6454 348.16C17.8901 347.686 16.5228 346.653 16.2056 346.374C15.9768 346.252 15.776 346.084 15.616 345.88C15.456 345.677 15.3404 345.442 15.2765 345.191C15.2426 345.002 15.2514 344.808 15.3024 344.623C15.3534 344.438 15.4452 344.266 15.5711 344.121L17.4217 341.86C18.4415 340.548 19.4159 341.016 19.7936 341.272L20.549 341.8C21.0551 342.146 21.5611 342.485 21.9917 342.817L22.1277 342.915C22.422 343.07 22.6812 343.284 22.8892 343.543C23.0971 343.802 23.2493 344.102 23.3363 344.422C23.3715 344.642 23.3608 344.866 23.3049 345.082C23.249 345.297 23.1491 345.498 23.0114 345.673C22.5582 346.261 21.5007 347.799 21.5007 347.821C21.3225 348.059 21.091 348.251 20.8247 348.384C20.5584 348.516 20.2647 348.584 19.9673 348.582V348.582ZM17.9127 344.814C18.4188 345.199 19.3177 345.884 19.8389 346.216C20.0882 345.862 20.5112 345.259 20.8662 344.777L20.6396 344.618C20.2317 344.302 19.7634 343.985 19.295 343.661L19.0382 343.488L17.9127 344.814Z" fill="#455DD1"/>
<path d="M25.8289 353.21C25.3593 353.198 24.9032 353.051 24.5146 352.788C23.7592 352.313 22.392 351.281 22.0747 350.994C21.8442 350.875 21.642 350.707 21.4817 350.503C21.3215 350.299 21.2069 350.063 21.1456 349.811C21.1124 349.624 21.1209 349.431 21.1705 349.248C21.2201 349.064 21.3096 348.894 21.4327 348.748L23.2909 346.487C24.2728 345.221 25.1944 345.583 25.6552 345.907L26.4105 346.427C26.9166 346.774 27.4152 347.12 27.8533 347.452L27.9892 347.542C28.2862 347.703 28.5467 347.924 28.7546 348.189C28.9625 348.455 29.1134 348.761 29.1978 349.087C29.2299 349.309 29.2156 349.534 29.1558 349.749C29.096 349.965 28.992 350.165 28.8504 350.338C28.4047 350.926 27.3396 352.471 27.3396 352.486C27.1602 352.714 26.9307 352.898 26.6687 353.024C26.4068 353.149 26.1194 353.213 25.8289 353.21V353.21ZM23.7818 349.442C24.2879 349.834 25.1868 350.512 25.708 350.851C25.9573 350.497 26.3803 349.886 26.7353 349.404L26.5012 349.238C26.1008 348.929 25.6325 348.613 25.1566 348.289L24.9073 348.115L23.7818 349.442Z" fill="#2B56F0" fill-opacity="0.9"/>
<path d="M19.0204 302.852L3.84326 308.042L4.57804 310.181L19.7552 304.991L19.0204 302.852Z" fill="#455DD1"/>
</svg>
