<svg width="21" height="20" viewBox="0 0 21 20" fill="none" xmlns="http://www.w3.org/2000/svg">
<g clip-path="url(#clip0_173_479)">
<path d="M15.703 -3.22243e-05C11.6561 0.452094 7.65374 1.21051 3.73402 2.268C3.48454 2.35251 3.27621 2.52075 3.14825 2.74101C3.0203 2.96128 2.98154 3.21836 3.03932 3.46387L3.76295 6.21301C3.79016 6.32182 3.84159 6.42386 3.91376 6.51223C3.98593 6.6006 4.07718 6.67324 4.18137 6.72533C4.28557 6.77742 4.40031 6.80771 4.51786 6.81418C4.63542 6.82065 4.75306 6.80318 4.8629 6.76287C8.87427 5.60797 12.9722 4.74408 17.1213 4.17867C17.2358 4.16115 17.3445 4.11874 17.4389 4.05476C17.5332 3.99077 17.6108 3.90695 17.6654 3.80982C17.72 3.71269 17.7503 3.60486 17.7538 3.49479C17.7574 3.38471 17.7341 3.27534 17.6858 3.17522L16.745 0.701012C16.6801 0.489653 16.5418 0.30535 16.3526 0.178081C16.1634 0.050813 15.9345 -0.0119549 15.703 -3.22243e-05V-3.22243e-05Z" fill="black"/>
<path d="M19.1183 6.02062C12.7411 6.73803 6.50933 8.34043 0.622104 10.7766C0.405563 10.8837 0.230193 11.053 0.121025 11.2603C0.0118561 11.4677 -0.0255229 11.7025 0.01425 11.9313C0.245814 13.0859 0.361602 13.6632 0.607639 14.8316C0.621964 14.9433 0.665493 15.0497 0.734267 15.1413C0.803041 15.2329 0.894878 15.3066 1.00137 15.3558C1.10786 15.405 1.22563 15.4281 1.34393 15.423C1.46223 15.4178 1.5773 15.3847 1.67863 15.3265C7.67267 12.7797 14.0014 11.0134 20.4932 10.0756C20.5964 10.0476 20.6919 9.99852 20.773 9.93187C20.8542 9.86521 20.9191 9.78256 20.9632 9.68966C21.0072 9.59675 21.0295 9.49586 21.0283 9.39396C21.0271 9.29206 21.0026 9.19161 20.9564 9.09965C20.638 8.13745 20.4643 7.72509 20.1314 6.70791C20.0718 6.5 19.9384 6.31802 19.7538 6.19278C19.5692 6.06754 19.3447 6.00672 19.1183 6.02062V6.02062Z" fill="black"/>
<path d="M19.0463 12.4811C15.0704 13.2881 11.1466 14.3115 7.29436 15.5464C7.06236 15.6247 6.86903 15.7817 6.7515 15.9873C6.63396 16.1928 6.60049 16.4323 6.65755 16.6598C6.96148 17.7457 7.1207 18.2818 7.42463 19.4089C7.46644 19.5306 7.5341 19.6428 7.62345 19.7386C7.71279 19.8344 7.82192 19.9118 7.94404 19.9659C8.06616 20.0201 8.19866 20.0498 8.33337 20.0533C8.46809 20.0568 8.60213 20.034 8.72717 19.9863C12.5737 18.6621 16.4917 17.5333 20.4646 16.6048C20.562 16.5716 20.6511 16.5198 20.7264 16.4525C20.8017 16.3851 20.8616 16.3038 20.9024 16.2135C20.9431 16.1232 20.9638 16.0259 20.9632 15.9277C20.9626 15.8295 20.9407 15.7324 20.8988 15.6426L20.1028 13.2371C20.057 13.0089 19.9235 12.8051 19.7282 12.6653C19.5329 12.5256 19.2898 12.4599 19.0463 12.4811Z" fill="black"/>
</g>
<defs>
<clipPath id="clip0_173_479">
<rect width="21" height="20" fill="white"/>
</clipPath>
</defs>
</svg>
