<svg width="21" height="17" viewBox="0 0 21 17" fill="none" xmlns="http://www.w3.org/2000/svg">
<path fill-rule="evenodd" clip-rule="evenodd" d="M18.2743 7.03632C18.2158 7.7188 18.3061 8.40514 18.5401 9.05529C18.7741 9.70543 19.147 10.3064 19.6372 10.8231C22.4801 13.9518 18.626 17.3088 14.2589 16.5031C11.8383 16.926 9.35228 16.926 6.93165 16.5031C2.53527 17.3088 -1.37749 13.9518 1.4655 10.8231C1.95562 10.3064 2.32856 9.70543 2.56256 9.05529C2.79655 8.40514 2.8869 7.7188 2.82836 7.03632H18.2743Z" fill="#DF0E13"/>
<path d="M10.566 16.8926C9.32729 16.8817 8.09182 16.7739 6.8731 16.5703C5.7629 16.8179 4.59739 16.7573 3.52486 16.3963C2.45234 16.0352 1.52126 15.39 0.850074 14.5427C0.475551 13.9516 0.321569 13.2647 0.411484 12.5862C0.501398 11.9077 0.830301 11.2746 1.34832 10.7828C1.83133 10.2732 2.1992 9.68085 2.43062 9.04007C2.66205 8.39929 2.75243 7.7228 2.69654 7.04978V6.96918H18.3476V7.04978C18.2917 7.7228 18.3821 8.39929 18.6136 9.04007C18.845 9.68085 19.2129 10.2732 19.6959 10.7828C20.2186 11.2773 20.5514 11.9143 20.644 12.5975C20.7365 13.2807 20.5838 13.9729 20.2088 14.5695C19.5511 15.412 18.6317 16.0535 17.5705 16.4104C16.5093 16.7673 15.3553 16.823 14.259 16.5703C13.0401 16.7729 11.8047 16.8807 10.566 16.8926ZM6.8731 16.436C9.2934 16.8621 11.7801 16.8621 14.2004 16.436C15.2765 16.6877 16.4101 16.6379 17.455 16.2932C18.5 15.9485 19.4081 15.3247 20.0622 14.5024C20.4262 13.9297 20.5746 13.2632 20.4846 12.6056C20.3946 11.9481 20.0711 11.3359 19.5639 10.8634C18.5928 9.819 18.0947 8.47369 18.1718 7.10347H2.85774C2.93479 8.47369 2.43667 9.819 1.46556 10.8634C0.965194 11.3339 0.645847 11.9411 0.555936 12.5929C0.466026 13.2448 0.610435 13.9057 0.967291 14.4755C1.62166 15.2985 2.52855 15.9244 3.57245 16.2736C4.61635 16.6227 5.75003 16.6793 6.82912 16.436H6.8731Z" fill="#1D1D1B"/>
<path fill-rule="evenodd" clip-rule="evenodd" d="M13.9218 15.8452C14.0864 15.471 14.3479 15.1392 14.6839 14.8784C14.933 14.7038 15.3433 14.771 15.1382 15.1201C15.1382 15.2141 14.4787 15.5767 14.0684 16.0198C13.9951 16.1004 13.9218 15.8452 13.9218 15.8452ZM7.98674 15.4424C7.9138 15.0449 7.73231 14.6707 7.45918 14.3547C7.25401 14.1398 6.82904 14.113 6.96093 14.5024C7.2605 14.8463 7.53934 15.2049 7.79623 15.5766C7.79623 15.6706 7.98674 15.4424 7.98674 15.4424ZM7.19538 15.8452C7.0325 15.4737 6.77648 15.1425 6.44801 14.8784C6.19888 14.7038 5.77391 14.771 5.97907 15.1201C6.35452 15.4006 6.71172 15.701 7.04885 16.0198C7.04885 16.1004 7.19538 15.8452 7.19538 15.8452ZM13.1452 15.4424C13.2167 15.0469 13.3928 14.6735 13.6581 14.3547C13.8632 14.1398 14.2882 14.113 14.1563 14.5024C13.8567 14.8463 13.5779 15.2049 13.321 15.5766C13.321 15.6706 13.1452 15.4424 13.1452 15.4424Z" fill="#DF0E13"/>
<path d="M13.8779 15.8586C13.9072 15.9661 13.9659 16.1003 14.0391 16.1003L14.1417 16.1406C14.3824 15.895 14.6473 15.6702 14.9331 15.4692C15.1089 15.3349 15.0649 15.4424 15.2115 15.2275C15.358 15.0127 15.2115 14.8649 15.2115 14.8649C15.1322 14.8135 15.0375 14.7858 14.9404 14.7858C14.8432 14.7858 14.7485 14.8135 14.6693 14.8649C14.3227 15.1335 14.0514 15.4743 13.8779 15.8586Z" fill="#1D1D1B"/>
<path fill-rule="evenodd" clip-rule="evenodd" d="M12.603 15.3618C12.603 15.3618 13.9073 11.5482 11.9289 9.27881C11.7306 9.22953 11.5459 9.14264 11.3867 9.02372C11.306 8.91413 11.1967 8.82476 11.0687 8.76378C10.9408 8.70281 10.7982 8.67214 10.6539 8.67457C10.3162 8.69138 9.99518 8.81474 9.74537 9.02372C9.55618 9.1554 9.33489 9.24292 9.10056 9.27881C7.13685 11.5482 8.48507 15.3752 8.48507 15.3752C9.81917 14.9537 11.2689 14.9537 12.603 15.3752V15.3618Z" fill="#FBEA07"/>
<path d="M8.39696 15.4692V15.402C8.39696 15.402 7.06339 11.5079 9.0271 9.2385C9.24474 9.20058 9.45018 9.11795 9.62794 8.9968C9.89237 8.78187 10.2277 8.65425 10.5805 8.63426C10.7339 8.63289 10.8852 8.66655 11.0208 8.7322C11.1564 8.79784 11.272 8.89339 11.3572 9.01024C11.512 9.11366 11.6857 9.19094 11.8701 9.2385C13.8485 11.5079 12.5589 15.3349 12.5589 15.3752V15.4557H12.4856C11.1634 15.0513 9.73374 15.0513 8.41161 15.4557L8.39696 15.4692ZM9.11505 9.3325C7.3565 11.4004 8.33836 14.7843 8.49956 15.2946C9.80983 14.9084 11.2193 14.9084 12.5296 15.2946C12.6761 14.7843 13.6286 11.4139 11.8701 9.35939C11.6667 9.31187 11.4768 9.22486 11.3132 9.10425C11.2439 9.00222 11.1464 8.91871 11.0306 8.86214C10.9149 8.80557 10.7849 8.7779 10.6538 8.78195C10.3361 8.79844 10.035 8.91735 9.80381 9.11765C9.60227 9.22971 9.37784 9.30282 9.14434 9.3325H9.11505Z" fill="#1D1D1B"/>
<path d="M12.0022 12.703C12.0022 12.6393 12.0228 12.577 12.0615 12.524C12.1001 12.471 12.155 12.4296 12.2193 12.4053C12.2836 12.3809 12.3543 12.3745 12.4225 12.3869C12.4907 12.3994 12.5534 12.4301 12.6026 12.4751C12.6518 12.5202 12.6853 12.5776 12.6989 12.6401C12.7124 12.7027 12.7055 12.7674 12.6788 12.8263C12.6522 12.8852 12.6071 12.9356 12.5493 12.971C12.4915 13.0064 12.4235 13.0253 12.3539 13.0253C12.3077 13.0253 12.262 13.017 12.2193 13.0008C12.1766 12.9846 12.1379 12.9608 12.1052 12.9309C12.0725 12.901 12.0466 12.8654 12.029 12.8263C12.0113 12.7872 12.0022 12.7453 12.0022 12.703Z" fill="white"/>
<path d="M12.3539 13.0924C12.2699 13.0924 12.1877 13.0695 12.1178 13.0267C12.0479 12.9839 11.9935 12.9231 11.9613 12.852C11.9291 12.7808 11.9207 12.7025 11.9371 12.627C11.9535 12.5514 11.994 12.482 12.0534 12.4276C12.1129 12.3731 12.1886 12.3361 12.271 12.321C12.3535 12.306 12.4389 12.3137 12.5166 12.3432C12.5942 12.3726 12.6606 12.4225 12.7073 12.4866C12.754 12.5506 12.7789 12.6259 12.7789 12.703C12.7789 12.7541 12.7679 12.8047 12.7466 12.852C12.7252 12.8992 12.6939 12.9421 12.6544 12.9783C12.615 13.0145 12.5681 13.0431 12.5166 13.0627C12.465 13.0823 12.4097 13.0924 12.3539 13.0924ZM12.3539 12.4478C12.3168 12.4459 12.2797 12.4511 12.2449 12.4633C12.2102 12.4754 12.1786 12.4941 12.1523 12.5182C12.126 12.5423 12.1056 12.5712 12.0924 12.603C12.0791 12.6349 12.0734 12.6689 12.0755 12.703C12.0755 12.7706 12.1048 12.8355 12.157 12.8833C12.2093 12.9312 12.2801 12.9581 12.3539 12.9581C12.4278 12.9581 12.4986 12.9312 12.5508 12.8833C12.603 12.8355 12.6324 12.7706 12.6324 12.703C12.6345 12.6689 12.6288 12.6349 12.6155 12.603C12.6023 12.5712 12.5818 12.5423 12.5555 12.5182C12.5292 12.4941 12.4977 12.4754 12.463 12.4633C12.4282 12.4511 12.3911 12.4459 12.3539 12.4478Z" fill="#1D1D1B"/>
<path fill-rule="evenodd" clip-rule="evenodd" d="M3.67829 9.53391H6.19887C6.39069 9.53387 6.57488 9.60279 6.71188 9.72581C6.84888 9.84884 6.92777 10.0162 6.9316 10.1919V11.7361C6.92777 11.9119 6.84888 12.0792 6.71188 12.2022C6.57488 12.3253 6.39069 12.3941 6.19887 12.3941H3.67829C3.58399 12.3941 3.49061 12.3771 3.40349 12.344C3.31637 12.311 3.23721 12.2625 3.17053 12.2014C3.10385 12.1403 3.05096 12.0677 3.01488 11.9879C2.97879 11.9081 2.96021 11.8225 2.96021 11.7361V10.1785C2.96021 10.004 3.03587 9.83659 3.17053 9.71319C3.3052 9.5898 3.48784 9.52051 3.67829 9.52051V9.53391Z" fill="#1C87CE"/>
<path d="M6.19889 12.4613H3.6783C3.46842 12.4613 3.26714 12.3849 3.11874 12.2489C2.97033 12.1129 2.88696 11.9285 2.88696 11.7362V10.1785C2.88696 9.98619 2.97033 9.80175 3.11874 9.66577C3.26714 9.52978 3.46842 9.45337 3.6783 9.45337H6.19889C6.40877 9.45337 6.61005 9.52978 6.75845 9.66577C6.90686 9.80175 6.99023 9.98619 6.99023 10.1785V11.7227C6.99217 11.8191 6.97315 11.9148 6.93426 12.0043C6.89536 12.0939 6.83739 12.1754 6.76371 12.2442C6.69003 12.3129 6.60212 12.3675 6.50515 12.4048C6.40817 12.4421 6.30405 12.4613 6.19889 12.4613ZM3.6783 9.6011C3.50729 9.6011 3.34328 9.66335 3.22236 9.77416C3.10143 9.88496 3.0335 10.0352 3.0335 10.1919V11.7362C3.03149 11.8143 3.04679 11.8919 3.07849 11.9644C3.11018 12.0369 3.15761 12.1028 3.21788 12.158C3.27816 12.2133 3.35006 12.2567 3.4292 12.2858C3.50833 12.3148 3.59308 12.3288 3.6783 12.327H6.19889C6.28479 12.3288 6.37021 12.3148 6.45014 12.2859C6.53007 12.2571 6.6029 12.2138 6.66433 12.1588C6.72577 12.1037 6.77458 12.038 6.80789 11.9654C6.84121 11.8928 6.85836 11.8149 6.85834 11.7362V10.1785C6.85451 10.0206 6.78334 9.87029 6.66009 9.75985C6.53683 9.64942 6.37128 9.58762 6.19889 9.58766L3.6783 9.6011Z" fill="#1D1D1B"/>
<path d="M4.00073 9.91001H5.99375C6.06551 9.90815 6.13691 9.91975 6.20361 9.94406C6.27031 9.96837 6.33089 10.0049 6.38165 10.0514C6.43241 10.0979 6.47229 10.1534 6.49882 10.2146C6.52535 10.2757 6.53799 10.3411 6.53596 10.4069V11.5214C6.53596 11.6532 6.47884 11.7795 6.37715 11.8727C6.27547 11.9659 6.13756 12.0182 5.99375 12.0182H4.00073C3.85554 12.0183 3.71607 11.9664 3.61205 11.8736C3.50803 11.7808 3.44767 11.6544 3.44385 11.5214V10.3934C3.44382 10.327 3.45833 10.2613 3.48649 10.2001C3.51465 10.139 3.55591 10.0836 3.60782 10.0373C3.65973 9.99097 3.72124 9.95466 3.78872 9.93049C3.85621 9.90633 3.9283 9.89481 4.00073 9.8966V9.91001Z" fill="#1D1D1B"/>
<path d="M5.96445 12.0987H4.00074C3.8375 12.0987 3.68096 12.0393 3.56553 11.9336C3.4501 11.8278 3.38525 11.6844 3.38525 11.5348V10.4068C3.38525 10.3328 3.40117 10.2594 3.4321 10.191C3.46303 10.1226 3.50838 10.0604 3.56553 10.008C3.62268 9.95565 3.69054 9.91412 3.76521 9.88578C3.83989 9.85744 3.91992 9.84283 4.00074 9.84283H5.99377C6.07459 9.84283 6.15462 9.85744 6.2293 9.88578C6.30397 9.91412 6.37183 9.95565 6.42898 10.008C6.48613 10.0604 6.53148 10.1226 6.56241 10.191C6.59334 10.2594 6.60926 10.3328 6.60926 10.4068V11.5213C6.61137 11.5988 6.59602 11.6759 6.56418 11.7477C6.53233 11.8195 6.48466 11.8846 6.42415 11.9388C6.36364 11.9929 6.29159 12.0351 6.2125 12.0626C6.13341 12.0902 6.04896 12.1025 5.96445 12.0987ZM4.00074 9.97712C3.93794 9.97532 3.87538 9.9851 3.81678 10.0059C3.75818 10.0267 3.70473 10.0581 3.65962 10.0981C3.61451 10.1382 3.57867 10.1862 3.55419 10.2392C3.52971 10.2923 3.51711 10.3493 3.51714 10.4068V11.5213C3.52095 11.6365 3.57359 11.7458 3.66387 11.826C3.75416 11.9063 3.87498 11.9511 4.00074 11.9511H5.99377C6.11814 11.9511 6.23741 11.9058 6.32536 11.8252C6.4133 11.7446 6.4627 11.6353 6.4627 11.5213V10.3934C6.4627 10.2794 6.4133 10.1701 6.32536 10.0895C6.23741 10.0089 6.11814 9.96368 5.99377 9.96368L4.00074 9.97712Z" fill="#1D1D1B"/>
<path fill-rule="evenodd" clip-rule="evenodd" d="M6.50665 11.2527C5.61272 11.1722 5.29031 10.2053 5.21704 9.90992H5.96442C6.03617 9.90807 6.1076 9.91966 6.1743 9.94397C6.241 9.96829 6.30158 10.0048 6.35234 10.0513C6.40309 10.0979 6.44295 10.1534 6.46949 10.2145C6.49602 10.2756 6.50867 10.341 6.50665 10.4068V11.2527Z" fill="#EF8E00"/>
<path d="M6.5799 11.3199C5.62736 11.2259 5.30497 10.2322 5.21704 9.97711V9.89655H6.05234C6.21558 9.89655 6.37215 9.95597 6.48758 10.0617C6.603 10.1675 6.66785 10.3109 6.66785 10.4605L6.5799 11.3199ZM5.30496 9.97711C5.40755 10.3128 5.7153 11.0648 6.43337 11.1722V10.4068C6.43337 10.2929 6.38395 10.1835 6.29601 10.103C6.20806 10.0224 6.08879 9.97711 5.96442 9.97711H5.30496Z" fill="#1D1D1B"/>
<path fill-rule="evenodd" clip-rule="evenodd" d="M4.73345 9.90997C4.73345 10.1785 4.38175 11.2528 3.41455 11.2528V10.4068C3.41452 10.3405 3.42901 10.2747 3.45717 10.2135C3.48533 10.1524 3.52659 10.097 3.5785 10.0507C3.63041 10.0044 3.69192 9.96807 3.7594 9.9439C3.82689 9.91974 3.89898 9.90818 3.97141 9.90997H4.73345Z" fill="#EF8E00"/>
<path d="M3.35571 11.3199V10.4068C3.35571 10.3328 3.37163 10.2594 3.40256 10.191C3.43349 10.1226 3.47883 10.0604 3.53599 10.008C3.59314 9.95565 3.661 9.91412 3.73567 9.88578C3.81035 9.85744 3.89037 9.84283 3.9712 9.84283H4.82117V9.9234C4.82117 10.2322 4.45482 11.2662 3.45831 11.2662L3.35571 11.3199ZM3.9712 9.97712C3.9084 9.97532 3.84583 9.9851 3.78724 10.0059C3.72864 10.0267 3.67522 10.0581 3.63011 10.0981C3.585 10.1382 3.54913 10.1862 3.52465 10.2392C3.50017 10.2923 3.48757 10.3493 3.4876 10.4068V11.1856C4.26429 11.1051 4.54273 10.3128 4.63065 9.97712H3.9712Z" fill="#1D1D1B"/>
<path fill-rule="evenodd" clip-rule="evenodd" d="M14.9036 9.53391H17.4242C17.5197 9.53212 17.6147 9.54783 17.7035 9.58009C17.7923 9.61236 17.8732 9.66056 17.9415 9.72184C18.0097 9.78312 18.0639 9.85626 18.1009 9.93698C18.1379 10.0177 18.157 10.1044 18.1569 10.1919V11.7361C18.157 11.8237 18.1379 11.9104 18.1009 11.9911C18.0639 12.0718 18.0097 12.1449 17.9415 12.2062C17.8732 12.2675 17.7923 12.3157 17.7035 12.3479C17.6147 12.3802 17.5197 12.3959 17.4242 12.3941H14.9036C14.8093 12.3941 14.716 12.3771 14.6288 12.344C14.5417 12.311 14.4626 12.2625 14.3959 12.2014C14.3292 12.1403 14.2763 12.0677 14.2402 11.9879C14.2041 11.9081 14.1855 11.8225 14.1855 11.7361V10.1785C14.1855 10.004 14.2612 9.83659 14.3959 9.71319C14.5305 9.5898 14.7132 9.52051 14.9036 9.52051V9.53391Z" fill="#1C87CE"/>
<path d="M17.4245 12.4613H14.9039C14.694 12.4613 14.4928 12.3849 14.3443 12.2489C14.1959 12.1129 14.1125 11.9285 14.1125 11.7362V10.1785C14.1125 9.98619 14.1959 9.80175 14.3443 9.66577C14.4928 9.52978 14.694 9.45337 14.9039 9.45337H17.4245C17.6357 9.45334 17.8386 9.52933 17.9893 9.66495C18.14 9.80056 18.2267 9.98496 18.2305 10.1785V11.7227C18.2305 11.9186 18.1456 12.1065 17.9944 12.245C17.8433 12.3835 17.6383 12.4613 17.4245 12.4613ZM14.9039 9.6011C14.7329 9.6011 14.5689 9.66335 14.448 9.77416C14.327 9.88496 14.2591 10.0352 14.2591 10.1919V11.7362C14.2591 11.8929 14.327 12.0431 14.448 12.154C14.5689 12.2648 14.7329 12.327 14.9039 12.327H17.4245C17.5104 12.3288 17.5958 12.3148 17.6757 12.2859C17.7557 12.2571 17.8285 12.2138 17.8899 12.1588C17.9514 12.1037 18.0002 12.038 18.0335 11.9654C18.0668 11.8928 18.084 11.8149 18.0839 11.7362V10.1785C18.0801 10.0206 18.009 9.87029 17.8857 9.75985C17.7624 9.64942 17.5969 9.58762 17.4245 9.58766L14.9039 9.6011Z" fill="#1D1D1B"/>
<path d="M15.1967 9.90989H17.1897C17.2622 9.9081 17.3343 9.91966 17.4017 9.94382C17.4692 9.96799 17.5307 10.0043 17.5826 10.0506C17.6346 10.0969 17.6758 10.1523 17.704 10.2135C17.7321 10.2746 17.7466 10.3404 17.7466 10.4068V11.5213C17.7428 11.6543 17.6824 11.7807 17.5784 11.8735C17.4744 11.9663 17.3349 12.0182 17.1897 12.0181H15.1967C15.0529 12.0181 14.915 11.9658 14.8133 11.8726C14.7116 11.7794 14.6545 11.6531 14.6545 11.5213V10.3933C14.6525 10.3276 14.6651 10.2621 14.6916 10.201C14.7182 10.1399 14.7581 10.0844 14.8088 10.0379C14.8596 9.99136 14.9202 9.95482 14.9869 9.93051C15.0536 9.90619 15.125 9.89464 15.1967 9.89649V9.90989Z" fill="#1D1D1B"/>
<path d="M17.1898 12.0988H15.1968C15.0335 12.0988 14.877 12.0393 14.7616 11.9336C14.6461 11.8278 14.5813 11.6844 14.5813 11.5348V10.4068C14.5813 10.3328 14.5972 10.2594 14.6281 10.191C14.6591 10.1226 14.7044 10.0604 14.7616 10.008C14.8187 9.95565 14.8866 9.91412 14.9613 9.88578C15.0359 9.85744 15.116 9.84283 15.1968 9.84283H17.1898C17.2706 9.84283 17.3507 9.85744 17.4253 9.88578C17.5 9.91412 17.5679 9.95565 17.625 10.008C17.6822 10.0604 17.7275 10.1226 17.7585 10.191C17.7894 10.2594 17.8053 10.3328 17.8053 10.4068V11.5214C17.8073 11.5965 17.7928 11.6713 17.7627 11.7413C17.7327 11.8113 17.6877 11.875 17.6303 11.9288C17.573 11.9827 17.5044 12.0254 17.4288 12.0546C17.3531 12.0838 17.2719 12.0988 17.1898 12.0988ZM15.1968 9.97712C15.0724 9.97712 14.9531 10.0224 14.8652 10.103C14.7773 10.1836 14.7279 10.2929 14.7279 10.4068V11.5214C14.7279 11.6353 14.7773 11.7446 14.8652 11.8252C14.9531 11.9058 15.0724 11.9511 15.1968 11.9511H17.1898C17.3156 11.9511 17.4364 11.9063 17.5267 11.826C17.617 11.7458 17.6696 11.6365 17.6734 11.5214V10.3934C17.6734 10.3358 17.6608 10.2788 17.6364 10.2258C17.6119 10.1728 17.576 10.1248 17.5309 10.0847C17.4858 10.0446 17.4324 10.0132 17.3738 9.99245C17.3152 9.97166 17.2526 9.96188 17.1898 9.96368L15.1968 9.97712Z" fill="#1D1D1B"/>
<path fill-rule="evenodd" clip-rule="evenodd" d="M17.7466 11.2528C16.8381 11.1722 16.5157 10.2054 16.4424 9.90997H17.1898C17.2622 9.90818 17.3343 9.91974 17.4018 9.9439C17.4692 9.96807 17.5308 10.0044 17.5827 10.0507C17.6346 10.097 17.6758 10.1524 17.704 10.2135C17.7322 10.2747 17.7467 10.3405 17.7466 10.4068V11.2528Z" fill="#EF8E00"/>
<path d="M17.8052 11.3199C16.8527 11.2259 16.5303 10.2322 16.4424 9.97711V9.89655H17.1898C17.353 9.89655 17.5095 9.95597 17.625 10.0617C17.7404 10.1675 17.8052 10.3109 17.8052 10.4605V11.3199ZM16.545 9.97711C16.6329 10.3128 16.9406 11.0648 17.6734 11.1722V10.4068C17.6734 10.3492 17.6608 10.2922 17.6363 10.2392C17.6118 10.1862 17.576 10.1382 17.5309 10.0981C17.4858 10.058 17.4323 10.0267 17.3737 10.0059C17.3151 9.98509 17.2526 9.97531 17.1898 9.97711H16.545Z" fill="#1D1D1B"/>
<path fill-rule="evenodd" clip-rule="evenodd" d="M15.9588 9.90992C15.9588 10.1785 15.6071 11.2527 14.6545 11.2527V10.4068C14.6525 10.341 14.6651 10.2756 14.6916 10.2145C14.7182 10.1534 14.7581 10.0979 14.8088 10.0513C14.8596 10.0048 14.9202 9.96829 14.9869 9.94397C15.0536 9.91966 15.125 9.90807 15.1967 9.90992H15.9588Z" fill="#EF8E00"/>
<path d="M14.5813 11.3199V10.4068C14.5813 10.3328 14.5972 10.2594 14.6281 10.191C14.6591 10.1226 14.7044 10.0604 14.7616 10.008C14.8187 9.95565 14.8866 9.91412 14.9613 9.88578C15.0359 9.85744 15.116 9.84283 15.1968 9.84283H16.0468V9.9234C15.9735 10.2322 15.6657 11.2662 14.6692 11.2662L14.5813 11.3199ZM15.1968 9.97712C15.0724 9.97712 14.9531 10.0224 14.8652 10.103C14.7773 10.1836 14.7279 10.2929 14.7279 10.4068V11.1856C15.4899 11.1051 15.783 10.3128 15.8709 9.97712H15.1968Z" fill="#1D1D1B"/>
<path fill-rule="evenodd" clip-rule="evenodd" d="M8.00157 15.1334C7.63026 15.1731 7.28951 15.3412 7.04904 15.6034C7.00029 15.6824 6.97068 15.77 6.96223 15.8603C6.95378 15.9507 6.96669 16.0417 7.00007 16.1271C7.03344 16.2125 7.08651 16.2902 7.15565 16.3551C7.2248 16.42 7.3084 16.4705 7.40075 16.5031C8.42647 16.7015 9.47432 16.7872 10.5222 16.7582C11.5755 16.8106 12.6315 16.7247 13.6582 16.5031C13.7493 16.4691 13.8314 16.4177 13.899 16.3522C13.9666 16.2867 14.0181 16.2087 14.05 16.1235C14.0819 16.0382 14.0936 15.9478 14.0841 15.858C14.0747 15.7683 14.0444 15.6815 13.9953 15.6034C13.7584 15.3442 13.4235 15.1763 13.0574 15.1334C13.0574 14.7843 8.06019 14.932 8.00157 15.1334Z" fill="#EB7D02"/>
<path d="M11.0203 16.8926H10.5221C9.4688 16.9164 8.41617 16.8262 7.38597 16.624C7.28593 16.5968 7.19415 16.5487 7.11786 16.4834C7.04157 16.4182 6.98285 16.3376 6.94633 16.248C6.89568 16.1517 6.86938 16.0461 6.86938 15.9392C6.86938 15.8322 6.89568 15.7267 6.94633 15.6303C7.19374 15.3574 7.54434 15.18 7.92818 15.1335C9.26982 14.9358 10.631 14.8728 11.9875 14.9455C12.8228 14.9455 13.0133 15.0798 13.072 15.1469C13.4454 15.19 13.7865 15.3631 14.0245 15.6303C14.0748 15.722 14.1009 15.8231 14.1009 15.9257C14.1009 16.0283 14.0748 16.1295 14.0245 16.2212C13.993 16.3162 13.9364 16.4027 13.8597 16.473C13.7831 16.5433 13.6886 16.5951 13.5849 16.624C12.7455 16.8107 11.884 16.9009 11.0203 16.8926ZM10.5367 16.7314C11.5758 16.765 12.6152 16.6747 13.6288 16.4628C13.7079 16.4322 13.7789 16.3864 13.8371 16.3285C13.8952 16.2706 13.9391 16.2019 13.9659 16.1271C14.0095 16.0553 14.0324 15.9744 14.0324 15.8922C14.0324 15.8099 14.0095 15.729 13.9659 15.6572C13.738 15.4154 13.4185 15.2619 13.072 15.2275C13.072 15.2275 13.072 15.2275 12.7496 15.1469C11.2163 15.0212 9.67232 15.0572 8.14802 15.2543C8.14802 15.2543 7.48855 15.3349 7.26873 15.684C7.22384 15.7604 7.20035 15.8457 7.20035 15.9325C7.20035 16.0192 7.22384 16.1045 7.26873 16.1809C7.29817 16.2511 7.3434 16.3149 7.40147 16.3681C7.45953 16.4213 7.52915 16.4628 7.6058 16.4897C8.62248 16.6828 9.65996 16.7684 10.6979 16.7449L10.5367 16.7314Z" fill="#1D1D1B"/>
<path d="M13.0864 15.1872C11.3939 14.9804 9.67901 14.9804 7.98657 15.1872V15.0664C9.69251 14.8433 11.4244 14.8433 13.1303 15.0664L13.0864 15.1872Z" fill="#1D1D1B"/>
<path fill-rule="evenodd" clip-rule="evenodd" d="M15.7244 2.60503V0.778821L18.1717 0.644531L18.2743 3.59873C16.9407 2.79305 16.9114 3.14219 15.7244 2.64535V2.60503Z" fill="#DF0E13"/>
<path d="M18.4502 3.88072L18.1571 3.69275C17.7222 3.39633 17.2222 3.19013 16.6917 3.08847C16.3213 3.01756 15.9619 2.9048 15.6219 2.75277H15.5046V0.617701L18.3183 0.469971L18.4502 3.88072ZM15.9003 2.53791C16.1869 2.65647 16.4866 2.74653 16.7942 2.80649C17.2487 2.88515 17.6819 3.0448 18.0692 3.27644L17.9812 0.819115L15.8856 0.939963L15.9003 2.53791Z" fill="#1D1D1B"/>
<path d="M10.566 16.9866C9.32699 16.9805 8.09108 16.8726 6.87308 16.6643C5.74333 16.9149 4.55776 16.8522 3.46703 16.484C2.37631 16.1158 1.42968 15.4587 0.747454 14.5964C0.364213 13.9855 0.207063 13.2773 0.299517 12.5778C0.39197 11.8783 0.729068 11.225 1.26037 10.7156C2.20852 9.7045 2.68715 8.39353 2.59392 7.06317H2.96029C3.00963 7.7709 2.90555 8.4806 2.65403 9.15128C2.40251 9.82195 2.00852 10.4403 1.49483 10.9708C1.00104 11.42 0.685276 12.0077 0.597657 12.6402C0.510038 13.2728 0.655613 13.914 1.01125 14.4621C1.65379 15.2704 2.54569 15.884 3.57211 16.2238C4.59853 16.5637 5.71246 16.6142 6.77048 16.3688C7.97827 16.5794 9.20469 16.6873 10.4341 16.6912C11.6587 16.6878 12.8803 16.5798 14.0831 16.3688H14.259C15.3055 16.6091 16.4064 16.5587 17.4215 16.2239C18.4367 15.8892 19.3202 15.2852 19.9596 14.4889C20.3157 13.9353 20.46 13.2887 20.3698 12.6514C20.2795 12.0142 19.9599 11.4227 19.4613 10.9708C18.9477 10.4403 18.5537 9.82195 18.3021 9.15128C18.0506 8.4806 17.9465 7.7709 17.9959 7.06317H18.3623C18.2579 8.3966 18.7318 9.71393 19.6812 10.7291C20.2237 11.2377 20.5691 11.8954 20.6644 12.6013C20.7596 13.3071 20.5996 14.0222 20.2087 14.6367C19.5465 15.4973 18.6146 16.1534 17.5364 16.5179C16.4582 16.8824 15.2846 16.9381 14.171 16.6777C12.9815 16.8768 11.7752 16.9801 10.566 16.9866Z" fill="#1D1D1B"/>
<path fill-rule="evenodd" clip-rule="evenodd" d="M10.5074 0.161133C10.2887 0.181875 10.0727 0.222351 9.86262 0.281981C6.50813 1.36639 3.39888 3.00483 0.688868 5.11611C-0.23437 5.96208 0.175939 7.03632 1.33365 7.03632H19.6665C20.8242 7.03632 21.2346 5.96208 20.3113 5.11611C17.6034 3.00207 14.4936 1.36333 11.1376 0.281981C10.9326 0.221903 10.7215 0.181408 10.5074 0.161133Z" fill="#EB7D02"/>
<path d="M19.6675 7.2109H1.33458C1.07556 7.22651 0.817513 7.16931 0.594921 7.04694C0.37233 6.92456 0.195811 6.74282 0.0889569 6.52605C-0.00598783 6.25692 -0.0121288 5.96812 0.0712916 5.69581C0.154712 5.42349 0.323971 5.1798 0.557891 4.99526C3.28595 2.86529 6.42128 1.21709 9.80494 0.134248C10.0315 0.059803 10.2682 0.0146419 10.5084 0C10.7419 0.0181327 10.9728 0.0586332 11.1971 0.120848C14.5773 1.21694 17.7109 2.86878 20.4442 4.99526C20.6813 5.17759 20.8529 5.42119 20.9366 5.69429C21.0202 5.96739 21.012 6.25727 20.9131 6.52605C20.8062 6.74282 20.6297 6.92456 20.4071 7.04694C20.1845 7.16931 19.9265 7.22651 19.6675 7.2109ZM10.5084 0.335703C10.3097 0.354645 10.1135 0.390592 9.92216 0.44311C6.59624 1.52162 3.51245 3.14607 0.821685 5.23696C0.641337 5.37407 0.508051 5.55597 0.437857 5.76084C0.367663 5.96571 0.363545 6.1848 0.426006 6.39176C0.504679 6.5474 0.6347 6.6765 0.797714 6.76082C0.960729 6.84514 1.1485 6.88045 1.33458 6.86175H19.6675C19.8535 6.88045 20.0413 6.84514 20.2044 6.76082C20.3674 6.6765 20.4974 6.5474 20.576 6.39176C20.6424 6.18501 20.6402 5.96489 20.5697 5.75928C20.4993 5.55368 20.3637 5.37188 20.1804 5.23696C17.4896 3.14607 14.4058 1.52162 11.0799 0.44311C10.8939 0.389345 10.7024 0.353363 10.5084 0.335703Z" fill="#1D1D1B"/>
<path fill-rule="evenodd" clip-rule="evenodd" d="M11.5623 8.56712C12.0562 8.80516 12.4826 9.14541 12.8079 9.56083C13.2285 10.1165 13.5219 10.7444 13.6705 11.4067C13.8191 12.069 13.8198 12.7521 13.6726 13.4147L15.138 14.7575C15.7096 15.2678 14.8156 16.1003 14.4053 16.5703H13.3355C13.4426 16.4445 13.5112 16.2949 13.5344 16.1368C13.5575 15.9787 13.5344 15.8178 13.4674 15.6706C13.2916 15.3618 12.6467 15.2678 12.6467 15.2678C12.6467 15.2678 12.9398 14.6501 12.4562 14.5024C12.9909 13.1298 12.9596 11.6255 12.3683 10.2725C12.2289 9.93695 12.0005 9.63848 11.7038 9.40405C11.407 9.16961 11.0511 9.00658 10.6684 8.92971C10.4651 8.90592 10.2586 8.92898 10.0675 8.99683C9.73383 9.11345 9.43079 9.29336 9.17824 9.52477C8.9257 9.75618 8.72935 10.0339 8.60209 10.3396C8.03393 11.6738 8.03393 13.1548 8.60209 14.4889C8.11849 14.6366 8.41157 15.2543 8.41157 15.2543C8.41157 15.2543 7.78143 15.3483 7.59092 15.6572C7.52885 15.806 7.50975 15.9671 7.53542 16.1247C7.56109 16.2823 7.63068 16.4311 7.73747 16.5569H6.65303C6.37459 16.2212 5.50998 15.2141 5.78841 14.6635C6.24491 14.1491 6.80138 13.7166 7.42972 13.3879C7.14306 12.113 7.41691 10.786 8.19176 9.69512C8.59175 9.14749 9.15692 8.71824 9.81842 8.45972C10.0881 8.32996 10.3909 8.26896 10.6951 8.28314C10.9993 8.29731 11.2937 8.38613 11.5476 8.54028L11.5623 8.56712Z" fill="#1C87CE"/>
<path d="M14.4935 16.6509H13.2332L13.3211 16.5434C13.4166 16.4256 13.4787 16.2877 13.5017 16.1424C13.5248 15.9971 13.508 15.8488 13.453 15.7109C13.2918 15.4423 12.691 15.3484 12.6763 15.3484H12.5884V15.2678C12.6532 15.0983 12.6532 14.9136 12.5884 14.7441C12.5696 14.7086 12.543 14.6772 12.5102 14.6518C12.4774 14.6263 12.4391 14.6075 12.3979 14.5964C12.9115 13.2336 12.8751 11.7472 12.2953 10.4068C12.1696 10.0755 11.9545 9.77873 11.6702 9.54397C11.3858 9.30921 11.0413 9.14413 10.6686 9.06402C10.4693 9.05401 10.2698 9.08142 10.0824 9.14458C9.74632 9.25734 9.44111 9.4359 9.18801 9.66781C8.93492 9.89972 8.74003 10.1794 8.61698 10.4874C8.07437 11.7842 8.07437 13.219 8.61698 14.5158V14.583H8.54372C8.50053 14.5938 8.46012 14.6125 8.42489 14.6379C8.38967 14.6632 8.36033 14.6948 8.33856 14.7307C8.27008 14.8996 8.27008 15.0854 8.33856 15.2544V15.3349H8.39717C8.39717 15.3349 7.79632 15.4289 7.63512 15.6975C7.57535 15.8338 7.55474 15.982 7.57526 16.1278C7.59579 16.2735 7.65676 16.412 7.75236 16.53L7.84029 16.6375H6.57999L6.47742 16.5166C6.14037 16.1138 5.43694 15.2544 5.71538 14.677C6.15187 14.1552 6.70051 13.721 7.32739 13.4013C7.06268 12.1186 7.34598 10.7918 8.11873 9.69514C8.52505 9.13902 9.10095 8.70468 9.7747 8.4463C10.0524 8.31123 10.3644 8.24628 10.6785 8.25808C10.9927 8.26988 11.2978 8.35803 11.5626 8.51346C12.0637 8.76431 12.4989 9.11261 12.8375 9.53397C13.2583 10.0924 13.5539 10.7217 13.7074 11.3855C13.8608 12.0494 13.869 12.7345 13.7314 13.4013L15.1969 14.7441C15.7098 15.2141 15.1969 15.8855 14.684 16.3689L14.4642 16.6375L14.4935 16.6509ZM13.5116 16.5166H14.4202L14.6254 16.2749C15.0357 15.8049 15.5633 15.2141 15.1383 14.8247L13.6728 13.4818C13.8144 12.8277 13.8108 12.1541 13.6623 11.5012C13.5137 10.8483 13.2233 10.2295 12.8082 9.6817C12.4858 9.27739 12.0706 8.94277 11.5919 8.70143C11.3367 8.56321 11.0457 8.49031 10.7492 8.49031C10.4528 8.49031 10.1618 8.56321 9.90659 8.70143C9.26853 8.95798 8.72065 9.3717 8.32389 9.89655C7.56416 10.978 7.29595 12.2888 7.57651 13.549C6.96195 13.8791 6.41615 14.3065 5.9645 14.8113C5.73003 15.3081 6.40415 16.154 6.72655 16.5032L6.79982 16.5972H7.72305C7.62932 16.4725 7.57319 16.3274 7.56032 16.1765C7.54746 16.0256 7.57833 15.8743 7.64979 15.7378C7.74463 15.6235 7.86353 15.5277 7.99945 15.4562C8.13537 15.3847 8.28555 15.3389 8.44113 15.3215C8.37302 15.1387 8.37302 14.9403 8.44113 14.7575C8.48695 14.6724 8.56511 14.6055 8.66094 14.5695C8.09987 13.2342 8.09987 11.7556 8.66094 10.4202C8.78179 10.1017 8.97486 9.81015 9.22743 9.56483C9.48001 9.31951 9.78636 9.12594 10.1264 8.99685C10.3332 8.9306 10.5535 8.90767 10.7712 8.92973C11.17 9.00671 11.5403 9.17705 11.8459 9.42414C12.1515 9.67124 12.3821 9.98664 12.5151 10.3397C13.1062 11.6905 13.153 13.19 12.647 14.5695C12.7353 14.6107 12.8072 14.6766 12.8521 14.7575C12.9203 14.9403 12.9203 15.1387 12.8521 15.3215C13.0056 15.3391 13.1536 15.3851 13.2871 15.4567C13.4206 15.5282 13.5369 15.6239 13.6289 15.7378C13.676 15.8671 13.69 16.0047 13.6696 16.1398C13.6493 16.2748 13.5952 16.4038 13.5116 16.5166Z" fill="#1D1D1B"/>
</svg>
