<svg width="23" height="23" viewBox="0 0 23 23" fill="none" xmlns="http://www.w3.org/2000/svg">
<g clip-path="url(#clip0_173_434)">
<path d="M9.49777 21.361C9.49777 21.361 11.411 24.6659 14.0486 21.8581L14.4996 21.361C13.3789 20.7833 9.78475 18.9562 6.51855 17.2366L9.49777 21.361Z" fill="#F72779"/>
<path d="M5.08363 3.896L2.59639 5.23945C2.59639 5.23945 -0.287146 6.90533 1.22979 9.59224L1.36646 9.43104L5.08363 3.896Z" fill="#F72779"/>
<path d="M14.6363 1.03442C14.5084 0.778393 14.3242 0.553543 14.097 0.376216C13.8698 0.198889 13.6053 0.0735092 13.3226 0.00919216C13.04 -0.0551249 12.7464 -0.056744 12.463 0.00439526C12.1796 0.0655346 11.9137 0.187922 11.6844 0.362686L10.1401 1.19562L17.3148 4.16465L14.6363 1.03442Z" fill="#F72779"/>
<path d="M22.1801 9.67289C21.9888 9.47137 21.7701 9.243 21.5378 8.9743C21.1825 10.2506 20.3898 13.1122 19.6792 15.6916L21.9478 13.2062C22.242 13.0195 22.4876 12.7677 22.665 12.4709C22.8423 12.1741 22.9465 11.8406 22.9691 11.4971C22.9917 11.1535 22.9321 10.8096 22.795 10.4928C22.658 10.176 22.4474 9.89522 22.1801 9.67289V9.67289Z" fill="#F72779"/>
<path d="M1.18897 9.59229C0.655989 10.2371 -1.25725 12.8435 1.32563 14.3884C2.36426 15.0333 4.37315 16.1081 6.51872 17.2366C4.63281 14.6168 2.41892 11.4194 1.36663 9.88785L1.18897 9.59229Z" fill="#2FC7CE"/>
<path d="M9.86687 1.07479C9.86687 1.07479 7.92627 -0.26869 6.81932 1.34346L5.08374 3.89606L10.1402 1.20915L9.86687 1.07479Z" fill="#2FC7CE"/>
<path d="M21.7291 8.32944C21.8478 8.05202 21.9064 7.75328 21.901 7.45235C21.8956 7.15142 21.8264 6.8549 21.6977 6.58177C21.5691 6.30865 21.3839 6.06492 21.154 5.86618C20.9241 5.66743 20.6545 5.51804 20.3625 5.42757L17.3149 4.17816C18.6815 5.81718 20.3898 7.75177 21.5378 9.01462L21.7291 8.32944Z" fill="#2FC7CE"/>
<path d="M14.8687 21.5356C14.8687 21.5356 17.7249 23.0671 18.4493 20.2862L19.6792 15.7587C18.0939 17.4784 16.003 19.7891 14.4998 21.361L14.8687 21.5356Z" fill="#2FC7CE"/>
<path d="M17.3149 4.16471L10.1402 1.19568L5.0838 3.88259L1.32563 9.41763L1.18896 9.57884L1.36663 9.87441C2.36425 11.4059 4.63281 14.6034 6.51873 17.2231C9.78492 18.9427 13.3518 20.7699 14.4997 21.3475C16.003 19.7354 18.0939 17.4649 19.6792 15.7453C20.3898 13.1256 21.1824 10.264 21.5377 9.02802C20.3898 7.7383 18.7225 5.80373 17.3149 4.16471Z" fill="#210049"/>
</g>
<defs>
<clipPath id="clip0_173_434">
<rect width="23" height="23" fill="white"/>
</clipPath>
</defs>
</svg>
