<svg width="40" height="40" viewBox="0 0 40 40" fill="none" xmlns="http://www.w3.org/2000/svg">
<path d="M13.8788 0.5H26.0412C33.4301 0.5 39.42 6.48989 39.42 13.8788V26.0412C39.42 33.4301 33.4301 39.42 26.0412 39.42H13.8788C6.48989 39.42 0.5 33.4301 0.5 26.0412V13.8788C0.5 6.48989 6.48989 0.5 13.8788 0.5Z" stroke="url(#paint0_linear_45_110)" stroke-opacity="0.9"/>
<path fill-rule="evenodd" clip-rule="evenodd" d="M11.6722 17.0861H15.2244V28.516H11.6722V17.0861ZM28.5273 22.2466V28.516H24.9807V22.9573C24.9807 21.6321 24.9561 19.9269 23.1344 19.9269C21.2859 19.9269 21.0022 21.3708 21.0022 22.8618V28.516H17.45V17.0861H20.8575V18.648H20.9046C21.3793 17.7491 22.5381 16.8017 24.2665 16.8017C27.8664 16.8017 28.5308 19.1691 28.5308 22.2466H28.5273ZM15.5081 13.463C15.5084 13.8704 15.3878 14.2687 15.1617 14.6076C14.9356 14.9465 14.6141 15.2107 14.2378 15.3669C13.8615 15.523 13.4474 15.5641 13.0478 15.4849C12.6482 15.4057 12.281 15.2098 11.9927 14.9219C11.7045 14.634 11.508 14.2671 11.4283 13.8676C11.3485 13.4681 11.389 13.0539 11.5447 12.6774C11.7003 12.3009 11.9641 11.979 12.3027 11.7525C12.6413 11.5259 13.0395 11.4048 13.4469 11.4045C13.9931 11.4045 14.5169 11.6213 14.9034 12.0073C15.2899 12.3932 15.5074 12.9168 15.5081 13.463Z" fill="black"/>
<defs>
<linearGradient id="paint0_linear_45_110" x1="19.96" y1="0" x2="19.96" y2="39.6169" gradientUnits="userSpaceOnUse">
<stop stop-color="#2B56F0"/>
<stop offset="1" stop-color="#900BCF"/>
</linearGradient>
</defs>
</svg>
