<svg width="41" height="40" viewBox="0 0 41 40" fill="none" xmlns="http://www.w3.org/2000/svg">
<path d="M14.7987 0.5H26.9611C34.35 0.5 40.3399 6.48989 40.3399 13.8788V26.0412C40.3399 33.4301 34.35 39.42 26.9611 39.42H14.7987C7.40981 39.42 1.41992 33.4301 1.41992 26.0412V13.8788C1.41992 6.48989 7.40981 0.5 14.7987 0.5Z" stroke="url(#paint0_linear_45_106)" stroke-opacity="0.9"/>
<path fill-rule="evenodd" clip-rule="evenodd" d="M31.6644 12.7937C30.7515 11.84 29.7324 11.8351 29.2647 11.7789C25.9126 11.5366 20.8849 11.5366 20.8849 11.5366H20.8743C20.8743 11.5366 15.8473 11.5366 12.4952 11.7789C12.0268 11.8351 11.0064 11.84 10.0955 12.7937C9.37704 13.5206 9.14317 15.171 9.14317 15.171C8.99409 16.458 8.91415 17.7521 8.90369 19.0477V20.8645C8.91415 22.1601 8.99409 23.4542 9.14317 24.7412C9.14317 24.7412 9.37704 26.3916 10.0955 27.1185C11.0085 28.0729 12.2024 28.0427 12.7361 28.1424C14.6527 28.3264 20.8828 28.3833 20.8828 28.3833C20.8828 28.3833 25.9154 28.3756 29.2675 28.1333C29.7352 28.0778 30.7564 28.0729 31.6672 27.1185C32.3857 26.3916 32.6196 24.7412 32.6196 24.7412C32.7682 23.4542 32.8479 22.1601 32.8584 20.8645V19.0477C32.8479 17.7521 32.7682 16.4581 32.6196 15.171C32.6196 15.171 32.3829 13.5206 31.6644 12.7937ZM18.4058 23.0669V16.3368L24.8781 19.7135L18.4058 23.0669Z" fill="black"/>
<defs>
<linearGradient id="paint0_linear_45_106" x1="23.3279" y1="3.0952" x2="23.3279" y2="33.0587" gradientUnits="userSpaceOnUse">
<stop stop-color="#F9EF5B"/>
<stop offset="1" stop-color="#BFF067"/>
</linearGradient>
</defs>
</svg>
